%TF.GenerationSoftware,KiCad,Pcbnew,9.0.5*%
%TF.CreationDate,2025-11-12T16:40:10-05:00*%
%TF.ProjectId,SplitFlapDriverATtiny1616,53706c69-7446-46c6-9170-447269766572,rev?*%
%TF.SameCoordinates,Original*%
%TF.FileFunction,Component,L1,Top*%
%TF.FilePolarity,Positive*%
%FSLAX46Y46*%
G04 Gerber Fmt 4.6, Leading zero omitted, Abs format (unit mm)*
G04 Created by KiCad (PCBNEW 9.0.5) date 2025-11-12 16:40:10*
%MOMM*%
%LPD*%
G01*
G04 APERTURE LIST*
%TA.AperFunction,ComponentMain*%
%ADD10C,0.300000*%
%TD*%
%TA.AperFunction,ComponentOutline,Courtyard*%
%ADD11C,0.100000*%
%TD*%
%TA.AperFunction,ComponentPin*%
%ADD12P,0.360000X4X0.000000*%
%TD*%
%TA.AperFunction,ComponentPin*%
%ADD13C,0.100000*%
%TD*%
G04 APERTURE END LIST*
D10*
%TO.C,J4*%
%TO.CFtp,PinHeader_1x03_P2.54mm_Vertical*%
%TO.CVal,Hall Effect*%
%TO.CLbN,Connector_PinHeader_2.54mm*%
%TO.CMnt,TH*%
%TO.CRot,0*%
X124600000Y-89660000D03*
D11*
X126365000Y-87895000D02*
X126365000Y-96505000D01*
X122835000Y-96505000D01*
X122835000Y-87895000D01*
X126365000Y-87895000D01*
D12*
%TO.P,J4,1,Pin_1*%
X124600000Y-89660000D03*
D13*
%TO.P,J4,2,Pin_2*%
X124600000Y-92200000D03*
%TO.P,J4,3,Pin_3*%
X124600000Y-94740000D03*
%TD*%
D10*
%TO.C,J1*%
%TO.CFtp,PinHeader_1x03_P2.54mm_Vertical*%
%TO.CVal,UPDI Programming*%
%TO.CLbN,Connector_PinHeader_2.54mm*%
%TO.CMnt,TH*%
%TO.CRot,90*%
X132920000Y-84400000D03*
D11*
X139765000Y-82635000D02*
X139765000Y-86165000D01*
X131155000Y-86165000D01*
X131155000Y-82635000D01*
X139765000Y-82635000D01*
D12*
%TO.P,J1,1,Pin_1*%
X132920000Y-84400000D03*
D13*
%TO.P,J1,2,Pin_2*%
X135460000Y-84400000D03*
%TO.P,J1,3,Pin_3*%
X138000000Y-84400000D03*
%TD*%
D10*
%TO.C,J2*%
%TO.CFtp,PinHeader_1x04_P2.54mm_Vertical*%
%TO.CVal,BUS POGO*%
%TO.CLbN,Connector_PinHeader_2.54mm*%
%TO.CMnt,TH*%
%TO.CRot,0*%
X123825000Y-105410000D03*
D11*
X125590000Y-103645000D02*
X125590000Y-114795000D01*
X122060000Y-114795000D01*
X122060000Y-103645000D01*
X125590000Y-103645000D01*
D12*
%TO.P,J2,1,Pin_1*%
X123825000Y-105410000D03*
D13*
%TO.P,J2,2,Pin_2*%
X123825000Y-107950000D03*
%TO.P,J2,3,Pin_3*%
X123825000Y-110490000D03*
%TO.P,J2,4,Pin_4*%
X123825000Y-113030000D03*
%TD*%
D10*
%TO.C,C4*%
%TO.CFtp,C_0603_1608Metric*%
%TO.CVal,10u*%
%TO.CLbN,Capacitor_SMD*%
%TO.CMnt,SMD*%
%TO.CRot,-90*%
X134620000Y-106680000D03*
D11*
X135345000Y-105205000D02*
X135345000Y-108155000D01*
X133895000Y-108155000D01*
X133895000Y-105205000D01*
X135345000Y-105205000D01*
D12*
%TO.P,C4,1*%
X134620000Y-105905000D03*
D13*
%TO.P,C4,2*%
X134620000Y-107455000D03*
%TD*%
D10*
%TO.C,U5*%
%TO.CFtp,SOT-23-5*%
%TO.CVal,SPX3819M5-L-3-3*%
%TO.CLbN,Package_TO_SOT_SMD*%
%TO.CMnt,SMD*%
%TO.CRot,0*%
X133362500Y-102800000D03*
D11*
X134407500Y-101105000D02*
X134407500Y-101305000D01*
X135407500Y-101305000D01*
X135407500Y-104295000D01*
X134407500Y-104295000D01*
X134407500Y-104495000D01*
X132317500Y-104495000D01*
X132317500Y-104295000D01*
X131317500Y-104295000D01*
X131317500Y-101305000D01*
X132317500Y-101305000D01*
X132317500Y-101105000D01*
X134407500Y-101105000D01*
D12*
%TO.P,U5,1,IN*%
X132225000Y-101850000D03*
D13*
%TO.P,U5,2,GND*%
X132225000Y-102800000D03*
%TO.P,U5,3,EN*%
X132225000Y-103750000D03*
%TO.P,U5,4,BP*%
X134500000Y-103750000D03*
%TO.P,U5,5,OUT*%
X134500000Y-101850000D03*
%TD*%
D10*
%TO.C,C2*%
%TO.CFtp,C_0603_1608Metric*%
%TO.CVal,470n*%
%TO.CLbN,Capacitor_SMD*%
%TO.CMnt,SMD*%
%TO.CRot,-90*%
X127000000Y-106680000D03*
D11*
X127725000Y-105205000D02*
X127725000Y-108155000D01*
X126275000Y-108155000D01*
X126275000Y-105205000D01*
X127725000Y-105205000D01*
D12*
%TO.P,C2,1*%
X127000000Y-105905000D03*
D13*
%TO.P,C2,2*%
X127000000Y-107455000D03*
%TD*%
D10*
%TO.C,U3*%
%TO.CFtp,SOIC-8_5.3x6.2mm_P1.27mm*%
%TO.CVal,SN65HVD72DR*%
%TO.CLbN,Package_SO*%
%TO.CMnt,SMD*%
%TO.CRot,180*%
X132715000Y-112395000D03*
D11*
X135610000Y-109050000D02*
X135610000Y-109940000D01*
X137410000Y-109940000D01*
X137410000Y-114850000D01*
X135610000Y-114850000D01*
X135610000Y-115740000D01*
X129820000Y-115740000D01*
X129820000Y-114850000D01*
X128020000Y-114850000D01*
X128020000Y-109940000D01*
X129820000Y-109940000D01*
X129820000Y-109050000D01*
X135610000Y-109050000D01*
D12*
%TO.P,U3,1,R*%
X136215000Y-114300000D03*
D13*
%TO.P,U3,2,~{RE}*%
X136215000Y-113030000D03*
%TO.P,U3,3,DE*%
X136215000Y-111760000D03*
%TO.P,U3,4,D*%
X136215000Y-110490000D03*
%TO.P,U3,5,GND*%
X129215000Y-110490000D03*
%TO.P,U3,6,A*%
X129215000Y-111760000D03*
%TO.P,U3,7,B*%
X129215000Y-113030000D03*
%TO.P,U3,8,VCC*%
X129215000Y-114300000D03*
%TD*%
D10*
%TO.C,C1*%
%TO.CFtp,C_0603_1608Metric*%
%TO.CVal,300u*%
%TO.CLbN,Capacitor_SMD*%
%TO.CMnt,SMD*%
%TO.CRot,90*%
X145415000Y-132080000D03*
D11*
X146140000Y-130605000D02*
X146140000Y-133555000D01*
X144690000Y-133555000D01*
X144690000Y-130605000D01*
X146140000Y-130605000D01*
D12*
%TO.P,C1,1*%
X145415000Y-132855000D03*
D13*
%TO.P,C1,2*%
X145415000Y-131305000D03*
%TD*%
D10*
%TO.C,C3*%
%TO.CFtp,C_0603_1608Metric*%
%TO.CVal,470n*%
%TO.CLbN,Capacitor_SMD*%
%TO.CMnt,SMD*%
%TO.CRot,-90*%
X132080000Y-106680000D03*
D11*
X132805000Y-105205000D02*
X132805000Y-108155000D01*
X131355000Y-108155000D01*
X131355000Y-105205000D01*
X132805000Y-105205000D01*
D12*
%TO.P,C3,1*%
X132080000Y-105905000D03*
D13*
%TO.P,C3,2*%
X132080000Y-107455000D03*
%TD*%
D10*
%TO.C,C6*%
%TO.CFtp,C_0603_1608Metric*%
%TO.CVal,470n*%
%TO.CLbN,Capacitor_SMD*%
%TO.CMnt,SMD*%
%TO.CRot,0*%
X137250000Y-103750000D03*
D11*
X138725000Y-103025000D02*
X138725000Y-104475000D01*
X135775000Y-104475000D01*
X135775000Y-103025000D01*
X138725000Y-103025000D01*
D12*
%TO.P,C6,1*%
X136475000Y-103750000D03*
D13*
%TO.P,C6,2*%
X138025000Y-103750000D03*
%TD*%
D10*
%TO.C,J3*%
%TO.CFtp,JST_XH_B5B-XH-A_1x05_P2.50mm_Vertical*%
%TO.CVal,Stepper Connector*%
%TO.CLbN,Connector_JST*%
%TO.CMnt,TH*%
%TO.CRot,-90*%
X131025000Y-122000000D03*
D11*
X133870000Y-119055000D02*
X133870000Y-134945000D01*
X127130000Y-134945000D01*
X127130000Y-119055000D01*
X133870000Y-119055000D01*
D12*
%TO.P,J3,1,Pin_1*%
X131025000Y-122000000D03*
D13*
%TO.P,J3,2,Pin_2*%
X131025000Y-124500000D03*
%TO.P,J3,3,Pin_3*%
X131025000Y-127000000D03*
%TO.P,J3,4,Pin_4*%
X131025000Y-129500000D03*
%TO.P,J3,5,Pin_5*%
X131025000Y-132000000D03*
%TD*%
D10*
%TO.C,R1*%
%TO.CFtp,R_0805_2012Metric*%
%TO.CVal,0R*%
%TO.CLbN,Resistor_SMD*%
%TO.CMnt,SMD*%
%TO.CRot,90*%
X129540000Y-106680000D03*
D11*
X130485000Y-105005000D02*
X130485000Y-108355000D01*
X128595000Y-108355000D01*
X128595000Y-105005000D01*
X130485000Y-105005000D01*
D12*
%TO.P,R1,1*%
X129540000Y-107592500D03*
D13*
%TO.P,R1,2*%
X129540000Y-105767500D03*
%TD*%
D10*
%TO.C,U2*%
%TO.CFtp,SOIC-16W_5.3x10.2mm_P1.27mm*%
%TO.CVal,ULN2003ADR*%
%TO.CLbN,Package_SO*%
%TO.CMnt,SMD*%
%TO.CRot,180*%
X144500000Y-121250000D03*
D11*
X147395000Y-115905000D02*
X147395000Y-116255000D01*
X149195000Y-116255000D01*
X149195000Y-126245000D01*
X147395000Y-126245000D01*
X147395000Y-126595000D01*
X141605000Y-126595000D01*
X141605000Y-126245000D01*
X139805000Y-126245000D01*
X139805000Y-116255000D01*
X141605000Y-116255000D01*
X141605000Y-115905000D01*
X147395000Y-115905000D01*
D12*
%TO.P,U2,1,I1*%
X147750000Y-125695000D03*
D13*
%TO.P,U2,2,I2*%
X147750000Y-124425000D03*
%TO.P,U2,3,I3*%
X147750000Y-123155000D03*
%TO.P,U2,4,I4*%
X147750000Y-121885000D03*
%TO.P,U2,5,I5*%
X147750000Y-120615000D03*
%TO.P,U2,6,I6*%
X147750000Y-119345000D03*
%TO.P,U2,7,I7*%
X147750000Y-118075000D03*
%TO.P,U2,8,GND*%
X147750000Y-116805000D03*
%TO.P,U2,9,COM*%
X141250000Y-116805000D03*
%TO.P,U2,10,O7*%
X141250000Y-118075000D03*
%TO.P,U2,11,O6*%
X141250000Y-119345000D03*
%TO.P,U2,12,O5*%
X141250000Y-120615000D03*
%TO.P,U2,13,O4*%
X141250000Y-121885000D03*
%TO.P,U2,14,O3*%
X141250000Y-123155000D03*
%TO.P,U2,15,O2*%
X141250000Y-124425000D03*
%TO.P,U2,16,O1*%
X141250000Y-125695000D03*
%TD*%
D10*
%TO.C,U1*%
%TO.CFtp,VQFN-20-1EP_3x3mm_P0.4mm_EP1.7x1.7mm*%
%TO.CVal,ATtiny1616-MNR*%
%TO.CLbN,Package_DFN_QFN*%
%TO.CMnt,SMD*%
%TO.CRot,0*%
X135680000Y-91650000D03*
D11*
X136825000Y-89555000D02*
X136825000Y-89905000D01*
X137425000Y-89905000D01*
X137425000Y-90505000D01*
X137775000Y-90505000D01*
X137775000Y-92795000D01*
X137425000Y-92795000D01*
X137425000Y-93395000D01*
X136825000Y-93395000D01*
X136825000Y-93745000D01*
X134535000Y-93745000D01*
X134535000Y-93395000D01*
X133935000Y-93395000D01*
X133935000Y-92795000D01*
X133585000Y-92795000D01*
X133585000Y-90505000D01*
X133935000Y-90505000D01*
X133935000Y-89905000D01*
X134535000Y-89905000D01*
X134535000Y-89555000D01*
X136825000Y-89555000D01*
D12*
%TO.P,U1,1,PA2*%
X134230000Y-90850000D03*
D13*
%TO.P,U1,2,EXTCLK/PA3*%
X134230000Y-91250000D03*
%TO.P,U1,3,GND*%
X134230000Y-91650000D03*
%TO.P,U1,4,VCC*%
X134230000Y-92050000D03*
%TO.P,U1,5,PA4*%
X134230000Y-92450000D03*
%TO.P,U1,6,PA5*%
X134880000Y-93100000D03*
%TO.P,U1,7,PA6*%
X135280000Y-93100000D03*
%TO.P,U1,8,PA7*%
X135680000Y-93100000D03*
%TO.P,U1,9,PB5*%
X136080000Y-93100000D03*
%TO.P,U1,10,PB4*%
X136480000Y-93100000D03*
%TO.P,U1,11,PB3/TOSC1*%
X137130000Y-92450000D03*
%TO.P,U1,12,PB2/TOSC2*%
X137130000Y-92050000D03*
%TO.P,U1,13,PB1*%
X137130000Y-91650000D03*
%TO.P,U1,14,PB0*%
X137130000Y-91250000D03*
%TO.P,U1,15,PC0*%
X137130000Y-90850000D03*
%TO.P,U1,16,PC1*%
X136480000Y-90200000D03*
%TO.P,U1,17,PC2*%
X136080000Y-90200000D03*
%TO.P,U1,18,PC3*%
X135680000Y-90200000D03*
%TO.P,U1,19,~{RESET}/PA0/UPDI*%
X135280000Y-90200000D03*
%TO.P,U1,20,PA1*%
X134880000Y-90200000D03*
%TO.P,U1,21*%
X135680000Y-91650000D03*
%TD*%
D10*
%TO.C,C5*%
%TO.CFtp,C_0603_1608Metric*%
%TO.CVal,10u*%
%TO.CLbN,Capacitor_SMD*%
%TO.CMnt,SMD*%
%TO.CRot,0*%
X137250000Y-102000000D03*
D11*
X138725000Y-101275000D02*
X138725000Y-102725000D01*
X135775000Y-102725000D01*
X135775000Y-101275000D01*
X138725000Y-101275000D01*
D12*
%TO.P,C5,1*%
X136475000Y-102000000D03*
D13*
%TO.P,C5,2*%
X138025000Y-102000000D03*
%TD*%
M02*
