%TF.GenerationSoftware,KiCad,Pcbnew,9.0.6*%
%TF.CreationDate,2025-11-04T10:22:12-06:00*%
%TF.ProjectId,SplitFlapDriver,53706c69-7446-46c6-9170-447269766572,rev?*%
%TF.SameCoordinates,Original*%
%TF.FileFunction,Copper,L1,Top*%
%TF.FilePolarity,Positive*%
%FSLAX46Y46*%
G04 Gerber Fmt 4.6, Leading zero omitted, Abs format (unit mm)*
G04 Created by KiCad (PCBNEW 9.0.6) date 2025-11-04 10:22:12*
%MOMM*%
%LPD*%
G01*
G04 APERTURE LIST*
G04 Aperture macros list*
%AMRoundRect*
0 Rectangle with rounded corners*
0 $1 Rounding radius*
0 $2 $3 $4 $5 $6 $7 $8 $9 X,Y pos of 4 corners*
0 Add a 4 corners polygon primitive as box body*
4,1,4,$2,$3,$4,$5,$6,$7,$8,$9,$2,$3,0*
0 Add four circle primitives for the rounded corners*
1,1,$1+$1,$2,$3*
1,1,$1+$1,$4,$5*
1,1,$1+$1,$6,$7*
1,1,$1+$1,$8,$9*
0 Add four rect primitives between the rounded corners*
20,1,$1+$1,$2,$3,$4,$5,0*
20,1,$1+$1,$4,$5,$6,$7,0*
20,1,$1+$1,$6,$7,$8,$9,0*
20,1,$1+$1,$8,$9,$2,$3,0*%
G04 Aperture macros list end*
%TA.AperFunction,SMDPad,CuDef*%
%ADD10RoundRect,0.100000X-0.850000X-0.100000X0.850000X-0.100000X0.850000X0.100000X-0.850000X0.100000X0*%
%TD*%
%TA.AperFunction,SMDPad,CuDef*%
%ADD11RoundRect,0.250000X-0.970000X-0.310000X0.970000X-0.310000X0.970000X0.310000X-0.970000X0.310000X0*%
%TD*%
%TA.AperFunction,SMDPad,CuDef*%
%ADD12RoundRect,0.250000X-0.350000X-0.450000X0.350000X-0.450000X0.350000X0.450000X-0.350000X0.450000X0*%
%TD*%
%TA.AperFunction,ComponentPad*%
%ADD13O,1.700000X1.950000*%
%TD*%
%TA.AperFunction,ComponentPad*%
%ADD14RoundRect,0.250000X-0.600000X-0.725000X0.600000X-0.725000X0.600000X0.725000X-0.600000X0.725000X0*%
%TD*%
%TA.AperFunction,ComponentPad*%
%ADD15RoundRect,0.250000X0.550000X-0.550000X0.550000X0.550000X-0.550000X0.550000X-0.550000X-0.550000X0*%
%TD*%
%TA.AperFunction,ComponentPad*%
%ADD16C,1.600000*%
%TD*%
%TA.AperFunction,ComponentPad*%
%ADD17RoundRect,0.250000X-0.350000X-0.625000X0.350000X-0.625000X0.350000X0.625000X-0.350000X0.625000X0*%
%TD*%
%TA.AperFunction,ComponentPad*%
%ADD18O,1.200000X1.750000*%
%TD*%
%TA.AperFunction,ComponentPad*%
%ADD19R,0.850000X0.850000*%
%TD*%
%TA.AperFunction,ComponentPad*%
%ADD20C,0.850000*%
%TD*%
%TA.AperFunction,ComponentPad*%
%ADD21RoundRect,0.250000X0.600000X0.725000X-0.600000X0.725000X-0.600000X-0.725000X0.600000X-0.725000X0*%
%TD*%
%TA.AperFunction,SMDPad,CuDef*%
%ADD22RoundRect,0.100000X-0.130000X-0.100000X0.130000X-0.100000X0.130000X0.100000X-0.130000X0.100000X0*%
%TD*%
%TA.AperFunction,ComponentPad*%
%ADD23RoundRect,0.250000X0.350000X0.625000X-0.350000X0.625000X-0.350000X-0.625000X0.350000X-0.625000X0*%
%TD*%
%TA.AperFunction,ComponentPad*%
%ADD24RoundRect,0.250000X-0.550000X0.550000X-0.550000X-0.550000X0.550000X-0.550000X0.550000X0.550000X0*%
%TD*%
%TA.AperFunction,ViaPad*%
%ADD25C,0.600000*%
%TD*%
%TA.AperFunction,Conductor*%
%ADD26C,0.200000*%
%TD*%
G04 APERTURE END LIST*
D10*
%TO.P,U1,24,VCC*%
%TO.N,+5V*%
X160000000Y-96425000D03*
%TO.P,U1,23,SDA*%
%TO.N,SDA*%
X160000000Y-97075000D03*
%TO.P,U1,22,SCL*%
%TO.N,SCL*%
X160000000Y-97725000D03*
%TO.P,U1,21,A0*%
%TO.N,Net-(U1-A0)*%
X160000000Y-98375000D03*
%TO.P,U1,20,P17*%
%TO.N,unconnected-(U1-P17-Pad20)*%
X160000000Y-99025000D03*
%TO.P,U1,19,P16*%
%TO.N,unconnected-(U1-P16-Pad19)*%
X160000000Y-99675000D03*
%TO.P,U1,18,P15*%
%TO.N,unconnected-(U1-P15-Pad18)*%
X160000000Y-100325000D03*
%TO.P,U1,17,P14*%
%TO.N,Net-(U1-P14)*%
X160000000Y-100975000D03*
%TO.P,U1,16,P13*%
%TO.N,Net-(U1-P13)*%
X160000000Y-101625000D03*
%TO.P,U1,15,P12*%
%TO.N,Net-(U1-P12)*%
X160000000Y-102275000D03*
%TO.P,U1,14,P11*%
%TO.N,Net-(U1-P11)*%
X160000000Y-102925000D03*
%TO.P,U1,13,P10*%
%TO.N,Net-(U1-P10)*%
X160000000Y-103575000D03*
%TO.P,U1,12,GND*%
%TO.N,GND*%
X153000000Y-103575000D03*
%TO.P,U1,11,P7*%
%TO.N,unconnected-(U1-P7-Pad11)*%
X153000000Y-102925000D03*
%TO.P,U1,10,P6*%
%TO.N,unconnected-(U1-P6-Pad10)*%
X153000000Y-102275000D03*
%TO.P,U1,9,P5*%
%TO.N,unconnected-(U1-P5-Pad9)*%
X153000000Y-101625000D03*
%TO.P,U1,8,P4*%
%TO.N,Net-(U1-P4)*%
X153000000Y-100975000D03*
%TO.P,U1,7,P3*%
%TO.N,Net-(U1-P3)*%
X153000000Y-100325000D03*
%TO.P,U1,6,P2*%
%TO.N,Net-(U1-P2)*%
X153000000Y-99675000D03*
%TO.P,U1,5,P1*%
%TO.N,Net-(U1-P1)*%
X153000000Y-99025000D03*
%TO.P,U1,4,P0*%
%TO.N,Net-(U1-P0)*%
X153000000Y-98375000D03*
%TO.P,U1,3,A2*%
%TO.N,Net-(U1-A2)*%
X153000000Y-97725000D03*
%TO.P,U1,2,A1*%
%TO.N,Net-(U1-A1)*%
X153000000Y-97075000D03*
%TO.P,U1,1,~{INT}*%
%TO.N,unconnected-(U1-~{INT}-Pad1)*%
X153000000Y-96425000D03*
%TD*%
D11*
%TO.P,SW1,6*%
%TO.N,Net-(U1-A0)*%
X144500000Y-97500000D03*
%TO.P,SW1,5*%
%TO.N,Net-(U1-A1)*%
X144500000Y-100040000D03*
%TO.P,SW1,4*%
%TO.N,Net-(U1-A2)*%
X144500000Y-102580000D03*
%TO.P,SW1,3*%
%TO.N,+5V*%
X135890000Y-102580000D03*
%TO.P,SW1,2*%
X135890000Y-100040000D03*
%TO.P,SW1,1*%
X135890000Y-97500000D03*
%TD*%
D12*
%TO.P,R2,2*%
%TO.N,GND*%
X150000000Y-100000000D03*
%TO.P,R2,1*%
%TO.N,Net-(U1-A1)*%
X148000000Y-100000000D03*
%TD*%
%TO.P,R1,1*%
%TO.N,Net-(U1-A2)*%
X148000000Y-103500000D03*
%TO.P,R1,2*%
%TO.N,GND*%
X150000000Y-103500000D03*
%TD*%
%TO.P,R3,1*%
%TO.N,Net-(U1-A0)*%
X148000000Y-97000000D03*
%TO.P,R3,2*%
%TO.N,GND*%
X150000000Y-97000000D03*
%TD*%
D13*
%TO.P,J2,5,Pin_5*%
%TO.N,Net-(J2-Pin_5)*%
X158000000Y-78000000D03*
%TO.P,J2,4,Pin_4*%
%TO.N,Net-(J2-Pin_4)*%
X155500000Y-78000000D03*
%TO.P,J2,3,Pin_3*%
%TO.N,Net-(J2-Pin_3)*%
X153000000Y-78000000D03*
%TO.P,J2,2,Pin_2*%
%TO.N,Net-(J2-Pin_2)*%
X150500000Y-78000000D03*
D14*
%TO.P,J2,1,Pin_1*%
%TO.N,+5V*%
X148000000Y-78000000D03*
%TD*%
D15*
%TO.P,U3,1,I1*%
%TO.N,Net-(U1-P10)*%
X135610000Y-92305000D03*
D16*
%TO.P,U3,2,I2*%
%TO.N,Net-(U1-P11)*%
X138150000Y-92305000D03*
%TO.P,U3,3,I3*%
%TO.N,Net-(U1-P12)*%
X140690000Y-92305000D03*
%TO.P,U3,4,I4*%
%TO.N,Net-(U1-P13)*%
X143230000Y-92305000D03*
%TO.P,U3,5,I5*%
%TO.N,unconnected-(U3-I5-Pad5)*%
X145770000Y-92305000D03*
%TO.P,U3,6,I6*%
%TO.N,unconnected-(U3-I6-Pad6)*%
X148310000Y-92305000D03*
%TO.P,U3,7,I7*%
%TO.N,unconnected-(U3-I7-Pad7)*%
X150850000Y-92305000D03*
%TO.P,U3,8,GND*%
%TO.N,GND*%
X153390000Y-92305000D03*
%TO.P,U3,9,COM*%
%TO.N,+5V*%
X153390000Y-84685000D03*
%TO.P,U3,10,O7*%
%TO.N,unconnected-(U3-O7-Pad10)*%
X150850000Y-84685000D03*
%TO.P,U3,11,O6*%
%TO.N,unconnected-(U3-O6-Pad11)*%
X148310000Y-84685000D03*
%TO.P,U3,12,O5*%
%TO.N,unconnected-(U3-O5-Pad12)*%
X145770000Y-84685000D03*
%TO.P,U3,13,O4*%
%TO.N,Net-(J2-Pin_5)*%
X143230000Y-84685000D03*
%TO.P,U3,14,O3*%
%TO.N,Net-(J2-Pin_4)*%
X140690000Y-84685000D03*
%TO.P,U3,15,O2*%
%TO.N,Net-(J2-Pin_3)*%
X138150000Y-84685000D03*
%TO.P,U3,16,O1*%
%TO.N,Net-(J2-Pin_2)*%
X135610000Y-84685000D03*
%TD*%
D17*
%TO.P,J4,1,Pin_1*%
%TO.N,+5V*%
X135500000Y-78000000D03*
D18*
%TO.P,J4,2,Pin_2*%
%TO.N,GND*%
X137500000Y-78000000D03*
%TO.P,J4,3,Pin_3*%
%TO.N,SDA*%
X139500000Y-78000000D03*
%TO.P,J4,4,Pin_4*%
%TO.N,SCL*%
X141500000Y-78000000D03*
%TD*%
D19*
%TO.P,U5,1,V_{CC}*%
%TO.N,+5V*%
X159000000Y-89500000D03*
D20*
%TO.P,U5,2,V_{OUT}*%
%TO.N,Net-(U1-P14)*%
X159000000Y-88500000D03*
%TO.P,U5,3,GND*%
%TO.N,GND*%
X159000000Y-87500000D03*
%TD*%
D19*
%TO.P,U4,1,V_{CC}*%
%TO.N,+5V*%
X135500000Y-112000000D03*
D20*
%TO.P,U4,2,V_{OUT}*%
%TO.N,Net-(U1-P4)*%
X135500000Y-113000000D03*
%TO.P,U4,3,GND*%
%TO.N,GND*%
X135500000Y-114000000D03*
%TD*%
D21*
%TO.P,J1,1,Pin_1*%
%TO.N,+5V*%
X146000000Y-122500000D03*
D13*
%TO.P,J1,2,Pin_2*%
%TO.N,Net-(J1-Pin_2)*%
X143500000Y-122500000D03*
%TO.P,J1,3,Pin_3*%
%TO.N,Net-(J1-Pin_3)*%
X141000000Y-122500000D03*
%TO.P,J1,4,Pin_4*%
%TO.N,Net-(J1-Pin_4)*%
X138500000Y-122500000D03*
%TO.P,J1,5,Pin_5*%
%TO.N,Net-(J1-Pin_5)*%
X136000000Y-122500000D03*
%TD*%
D22*
%TO.P,C1,1*%
%TO.N,+5V*%
X151025000Y-73500000D03*
%TO.P,C1,2*%
%TO.N,GND*%
X151665000Y-73500000D03*
%TD*%
D18*
%TO.P,J3,4,Pin_4*%
%TO.N,SCL*%
X152500000Y-122500000D03*
%TO.P,J3,3,Pin_3*%
%TO.N,SDA*%
X154500000Y-122500000D03*
%TO.P,J3,2,Pin_2*%
%TO.N,GND*%
X156500000Y-122500000D03*
D23*
%TO.P,J3,1,Pin_1*%
%TO.N,+5V*%
X158500000Y-122500000D03*
%TD*%
D24*
%TO.P,U2,1,I1*%
%TO.N,Net-(U1-P0)*%
X158740000Y-108380000D03*
D16*
%TO.P,U2,2,I2*%
%TO.N,Net-(U1-P1)*%
X156200000Y-108380000D03*
%TO.P,U2,3,I3*%
%TO.N,Net-(U1-P2)*%
X153660000Y-108380000D03*
%TO.P,U2,4,I4*%
%TO.N,Net-(U1-P3)*%
X151120000Y-108380000D03*
%TO.P,U2,5,I5*%
%TO.N,unconnected-(U2-I5-Pad5)*%
X148580000Y-108380000D03*
%TO.P,U2,6,I6*%
%TO.N,unconnected-(U2-I6-Pad6)*%
X146040000Y-108380000D03*
%TO.P,U2,7,I7*%
%TO.N,unconnected-(U2-I7-Pad7)*%
X143500000Y-108380000D03*
%TO.P,U2,8,GND*%
%TO.N,GND*%
X140960000Y-108380000D03*
%TO.P,U2,9,COM*%
%TO.N,+5V*%
X140960000Y-116000000D03*
%TO.P,U2,10,O7*%
%TO.N,unconnected-(U2-O7-Pad10)*%
X143500000Y-116000000D03*
%TO.P,U2,11,O6*%
%TO.N,unconnected-(U2-O6-Pad11)*%
X146040000Y-116000000D03*
%TO.P,U2,12,O5*%
%TO.N,unconnected-(U2-O5-Pad12)*%
X148580000Y-116000000D03*
%TO.P,U2,13,O4*%
%TO.N,Net-(J1-Pin_5)*%
X151120000Y-116000000D03*
%TO.P,U2,14,O3*%
%TO.N,Net-(J1-Pin_4)*%
X153660000Y-116000000D03*
%TO.P,U2,15,O2*%
%TO.N,Net-(J1-Pin_3)*%
X156200000Y-116000000D03*
%TO.P,U2,16,O1*%
%TO.N,Net-(J1-Pin_2)*%
X158740000Y-116000000D03*
%TD*%
D25*
%TO.N,Net-(U1-P4)*%
X139000000Y-106500000D03*
%TO.N,Net-(U1-P10)*%
X157100000Y-103600000D03*
%TO.N,Net-(U1-P11)*%
X158000000Y-103000000D03*
%TO.N,Net-(U1-P12)*%
X157309313Y-102275000D03*
%TO.N,Net-(U1-P13)*%
X158000000Y-101624999D03*
%TO.N,+5V*%
X159000000Y-95000000D03*
%TO.N,SCL*%
X158500000Y-97725000D03*
%TO.N,SDA*%
X156500000Y-96500000D03*
%TD*%
D26*
%TO.N,Net-(J2-Pin_5)*%
X158000000Y-78000000D02*
X153000000Y-83000000D01*
X153000000Y-83000000D02*
X144915000Y-83000000D01*
X144915000Y-83000000D02*
X143230000Y-84685000D01*
%TO.N,Net-(J2-Pin_4)*%
X151500000Y-82000000D02*
X141000000Y-82000000D01*
X155500000Y-78000000D02*
X151500000Y-82000000D01*
X141000000Y-82000000D02*
X140690000Y-82310000D01*
X140690000Y-82310000D02*
X140690000Y-84685000D01*
%TO.N,Net-(J2-Pin_3)*%
X150000000Y-81000000D02*
X139000000Y-81000000D01*
X153000000Y-78000000D02*
X150000000Y-81000000D01*
X139000000Y-81000000D02*
X138150000Y-81850000D01*
X138150000Y-81850000D02*
X138150000Y-84685000D01*
%TO.N,Net-(J2-Pin_2)*%
X148500000Y-80000000D02*
X137000000Y-80000000D01*
X135610000Y-81390000D02*
X135610000Y-84685000D01*
X150500000Y-78000000D02*
X148500000Y-80000000D01*
X137000000Y-80000000D02*
X135610000Y-81390000D01*
%TO.N,+5V*%
X151025000Y-73500000D02*
X151025000Y-74025000D01*
X151025000Y-74025000D02*
X151500000Y-74500000D01*
X148000000Y-78000000D02*
X151500000Y-74500000D01*
X158528737Y-74500000D02*
X158629737Y-74601000D01*
X151500000Y-74500000D02*
X158528737Y-74500000D01*
X158629737Y-74601000D02*
X160370263Y-74601000D01*
X160370263Y-74601000D02*
X160471263Y-74500000D01*
X160471263Y-74500000D02*
X161399000Y-74500000D01*
X161399000Y-82101000D02*
X158815000Y-84685000D01*
X158815000Y-84685000D02*
X153390000Y-84685000D01*
X161399000Y-74500000D02*
X161399000Y-82101000D01*
%TO.N,Net-(U1-P10)*%
X157100000Y-103600000D02*
X158575000Y-103600000D01*
X158575000Y-103575000D02*
X160000000Y-103575000D01*
X158575000Y-103600000D02*
X158575000Y-103575000D01*
%TO.N,Net-(U1-P13)*%
X159124999Y-101624999D02*
X159125000Y-101625000D01*
X158000000Y-101624999D02*
X159124999Y-101624999D01*
X159125000Y-101625000D02*
X160000000Y-101625000D01*
%TO.N,Net-(U1-P12)*%
X157309313Y-102275000D02*
X160000000Y-102275000D01*
%TO.N,Net-(U1-P11)*%
X158000000Y-103000000D02*
X158075000Y-102925000D01*
X158075000Y-102925000D02*
X160000000Y-102925000D01*
%TO.N,Net-(U1-P4)*%
X139000000Y-106500000D02*
X148586160Y-106500000D01*
X148586160Y-106500000D02*
X151401000Y-103685160D01*
X151401000Y-103685160D02*
X151401000Y-101624001D01*
X151401000Y-101624001D02*
X152050001Y-100975000D01*
X152050001Y-100975000D02*
X153000000Y-100975000D01*
%TO.N,Net-(U1-P14)*%
X161399000Y-100500000D02*
X161399000Y-90498000D01*
X161399000Y-90498000D02*
X159401000Y-88500000D01*
X161399000Y-100500000D02*
X161399000Y-99000000D01*
X161326001Y-100673999D02*
X161399000Y-100601000D01*
X161399000Y-100601000D02*
X161399000Y-100500000D01*
X161251000Y-100673999D02*
X161326001Y-100673999D01*
X160949999Y-100975000D02*
X161251000Y-100673999D01*
X160000000Y-100975000D02*
X160949999Y-100975000D01*
%TO.N,Net-(U1-A0)*%
X148000000Y-97000000D02*
X151000000Y-94000000D01*
X151000000Y-94000000D02*
X154500000Y-94000000D01*
X157375000Y-98375000D02*
X160000000Y-98375000D01*
X154500000Y-94000000D02*
X155500000Y-95000000D01*
X155500000Y-96500000D02*
X157375000Y-98375000D01*
X155500000Y-95000000D02*
X155500000Y-96500000D01*
%TO.N,+5V*%
X159000000Y-95000000D02*
X159000000Y-95425000D01*
X159000000Y-95425000D02*
X160000000Y-96425000D01*
%TO.N,Net-(U1-P3)*%
X153000000Y-100325000D02*
X153869870Y-100325000D01*
X153869870Y-100325000D02*
X154747530Y-101202660D01*
X154748943Y-101202660D02*
X155101000Y-101554717D01*
X155101000Y-101554717D02*
X155101000Y-102404660D01*
X154747530Y-101202660D02*
X154748943Y-101202660D01*
X155101000Y-104399000D02*
X151120000Y-108380000D01*
X155101000Y-102404660D02*
X155101000Y-104399000D01*
%TO.N,Net-(U1-P2)*%
X153000000Y-99675000D02*
X153949999Y-99675000D01*
X153949999Y-99675000D02*
X155502000Y-101227001D01*
X155502000Y-101227001D02*
X155502000Y-106538000D01*
X155502000Y-106538000D02*
X153660000Y-108380000D01*
%TO.N,Net-(U1-P1)*%
X153000000Y-99025000D02*
X153949999Y-99025000D01*
X155500000Y-100575001D02*
X155502771Y-100575001D01*
X155502771Y-100575001D02*
X156000000Y-101072230D01*
X156000000Y-101072230D02*
X156000000Y-108180000D01*
X153949999Y-99025000D02*
X155500000Y-100575001D01*
X156000000Y-108180000D02*
X156200000Y-108380000D01*
%TO.N,Net-(U1-P0)*%
X153000000Y-98375000D02*
X153869870Y-98375000D01*
X153869870Y-98375000D02*
X156500000Y-101005130D01*
X156500000Y-101005130D02*
X156500000Y-106140000D01*
X156500000Y-106140000D02*
X158740000Y-108380000D01*
%TO.N,Net-(U1-P4)*%
X153869870Y-100975000D02*
X153000000Y-100975000D01*
%TO.N,Net-(U1-A1)*%
X149000000Y-98500000D02*
X148000000Y-99500000D01*
X153000000Y-97075000D02*
X152050001Y-97075000D01*
X148000000Y-100000000D02*
X144540000Y-100000000D01*
%TO.N,+5V*%
X135890000Y-102580000D02*
X135890000Y-97500000D01*
X135500000Y-102970000D02*
X135890000Y-102580000D01*
%TO.N,Net-(U1-A1)*%
X144540000Y-100000000D02*
X144500000Y-100040000D01*
X148000000Y-99500000D02*
X148000000Y-100000000D01*
X152050001Y-97075000D02*
X150625001Y-98500000D01*
X150625001Y-98500000D02*
X149000000Y-98500000D01*
%TO.N,Net-(U1-A2)*%
X148000000Y-103500000D02*
X147500000Y-103500000D01*
X146580000Y-102580000D02*
X144500000Y-102580000D01*
X147500000Y-103500000D02*
X146580000Y-102580000D01*
X151000000Y-98775001D02*
X151000000Y-101500000D01*
%TO.N,Net-(U1-A0)*%
X144500000Y-97500000D02*
X147500000Y-97500000D01*
%TO.N,Net-(U1-A2)*%
X152050001Y-97725000D02*
X151000000Y-98775001D01*
X153000000Y-97725000D02*
X152050001Y-97725000D01*
X151000000Y-101500000D02*
X150500000Y-102000000D01*
%TO.N,Net-(U1-A0)*%
X147500000Y-97500000D02*
X148000000Y-97000000D01*
%TO.N,Net-(U1-A2)*%
X150500000Y-102000000D02*
X149500000Y-102000000D01*
X149500000Y-102000000D02*
X148000000Y-103500000D01*
%TO.N,SDA*%
X157075000Y-97075000D02*
X160000000Y-97075000D01*
%TO.N,+5V*%
X135890000Y-97500000D02*
X133000000Y-94610000D01*
%TO.N,SDA*%
X156500000Y-96500000D02*
X157075000Y-97075000D01*
%TO.N,SCL*%
X158500000Y-97725000D02*
X160000000Y-97725000D01*
%TO.N,+5V*%
X153390000Y-84685000D02*
X153390000Y-87390000D01*
X153390000Y-87390000D02*
X155500000Y-89500000D01*
X155500000Y-89500000D02*
X159000000Y-89500000D01*
X135500000Y-78000000D02*
X136676000Y-76824000D01*
X136676000Y-76824000D02*
X146824000Y-76824000D01*
X146824000Y-76824000D02*
X148000000Y-78000000D01*
X133000000Y-94610000D02*
X133000000Y-80500000D01*
X133000000Y-80500000D02*
X135500000Y-78000000D01*
X135500000Y-112000000D02*
X135500000Y-102970000D01*
X140960000Y-116000000D02*
X140960000Y-117460000D01*
X140960000Y-117460000D02*
X146000000Y-122500000D01*
X135500000Y-112000000D02*
X136960000Y-112000000D01*
X136960000Y-112000000D02*
X140960000Y-116000000D01*
X146000000Y-122500000D02*
X149000000Y-125500000D01*
X149000000Y-125500000D02*
X155500000Y-125500000D01*
X155500000Y-125500000D02*
X158500000Y-122500000D01*
%TD*%
M02*
