M48
; DRILL file {KiCad 9.0.6} date 2025-11-04T10:22:33-0600
; FORMAT={-:-/ absolute / metric / decimal}
; #@! TF.CreationDate,2025-11-04T10:22:33-06:00
; #@! TF.GenerationSoftware,Kicad,Pcbnew,9.0.6
; #@! TF.FileFunction,Plated,1,2,PTH
FMAT,2
METRIC
; #@! TA.AperFunction,Plated,PTH,ViaDrill
T1C0.300
; #@! TA.AperFunction,Plated,PTH,ComponentDrill
T2C0.500
; #@! TA.AperFunction,Plated,PTH,ComponentDrill
T3C0.750
; #@! TA.AperFunction,Plated,PTH,ComponentDrill
T4C0.800
; #@! TA.AperFunction,Plated,PTH,ComponentDrill
T5C0.950
%
G90
G05
T1
X139.0Y-106.5
X156.5Y-96.5
X157.1Y-103.6
X157.309Y-102.275
X158.0Y-101.625
X158.0Y-103.0
X158.5Y-97.725
X159.0Y-95.0
T2
X135.5Y-112.0
X135.5Y-113.0
X135.5Y-114.0
X159.0Y-87.5
X159.0Y-88.5
X159.0Y-89.5
T3
X135.5Y-78.0
X137.5Y-78.0
X139.5Y-78.0
X141.5Y-78.0
X152.5Y-122.5
X154.5Y-122.5
X156.5Y-122.5
X158.5Y-122.5
T4
X135.61Y-84.685
X135.61Y-92.305
X138.15Y-84.685
X138.15Y-92.305
X140.69Y-84.685
X140.69Y-92.305
X140.96Y-108.38
X140.96Y-116.0
X143.23Y-84.685
X143.23Y-92.305
X143.5Y-108.38
X143.5Y-116.0
X145.77Y-84.685
X145.77Y-92.305
X146.04Y-108.38
X146.04Y-116.0
X148.31Y-84.685
X148.31Y-92.305
X148.58Y-108.38
X148.58Y-116.0
X150.85Y-84.685
X150.85Y-92.305
X151.12Y-108.38
X151.12Y-116.0
X153.39Y-84.685
X153.39Y-92.305
X153.66Y-108.38
X153.66Y-116.0
X156.2Y-108.38
X156.2Y-116.0
X158.74Y-108.38
X158.74Y-116.0
T5
X136.0Y-122.5
X138.5Y-122.5
X141.0Y-122.5
X143.5Y-122.5
X146.0Y-122.5
X148.0Y-78.0
X150.5Y-78.0
X153.0Y-78.0
X155.5Y-78.0
X158.0Y-78.0
M30
