%TF.GenerationSoftware,KiCad,Pcbnew,9.0.5*%
%TF.CreationDate,2025-11-13T16:07:57-05:00*%
%TF.ProjectId,SplitFlapBusBoard,53706c69-7446-46c6-9170-427573426f61,rev?*%
%TF.SameCoordinates,Original*%
%TF.FileFunction,Copper,L1,Top*%
%TF.FilePolarity,Positive*%
%FSLAX46Y46*%
G04 Gerber Fmt 4.6, Leading zero omitted, Abs format (unit mm)*
G04 Created by KiCad (PCBNEW 9.0.5) date 2025-11-13 16:07:57*
%MOMM*%
%LPD*%
G01*
G04 APERTURE LIST*
G04 Aperture macros list*
%AMRoundRect*
0 Rectangle with rounded corners*
0 $1 Rounding radius*
0 $2 $3 $4 $5 $6 $7 $8 $9 X,Y pos of 4 corners*
0 Add a 4 corners polygon primitive as box body*
4,1,4,$2,$3,$4,$5,$6,$7,$8,$9,$2,$3,0*
0 Add four circle primitives for the rounded corners*
1,1,$1+$1,$2,$3*
1,1,$1+$1,$4,$5*
1,1,$1+$1,$6,$7*
1,1,$1+$1,$8,$9*
0 Add four rect primitives between the rounded corners*
20,1,$1+$1,$2,$3,$4,$5,0*
20,1,$1+$1,$4,$5,$6,$7,0*
20,1,$1+$1,$6,$7,$8,$9,0*
20,1,$1+$1,$8,$9,$2,$3,0*%
G04 Aperture macros list end*
%TA.AperFunction,SMDPad,CuDef*%
%ADD10RoundRect,0.017000X-224.983000X-0.833000X224.983000X-0.833000X224.983000X0.833000X-224.983000X0.833000X0*%
%TD*%
%TA.AperFunction,ComponentPad*%
%ADD11R,1.700000X1.700000*%
%TD*%
%TA.AperFunction,ComponentPad*%
%ADD12C,1.700000*%
%TD*%
%TA.AperFunction,ViaPad*%
%ADD13C,0.600000*%
%TD*%
%TA.AperFunction,Conductor*%
%ADD14C,1.000000*%
%TD*%
G04 APERTURE END LIST*
D10*
%TO.P,J2,1,Pin_1*%
%TO.N,+5V*%
X252780000Y-97810000D03*
%TO.P,J2,2,Pin_2*%
%TO.N,GND*%
X252780000Y-100350000D03*
%TO.P,J2,3,Pin_3*%
%TO.N,/B*%
X252780000Y-102890000D03*
%TO.P,J2,4,Pin_4*%
%TO.N,/A*%
X252780000Y-105410000D03*
%TD*%
D11*
%TO.P,J1,1,Pin_1*%
%TO.N,+5V*%
X25250000Y-97815000D03*
D12*
%TO.P,J1,2,Pin_2*%
%TO.N,GND*%
X25250000Y-100355000D03*
%TO.P,J1,3,Pin_3*%
%TO.N,/B*%
X25250000Y-102895000D03*
%TO.P,J1,4,Pin_4*%
%TO.N,/A*%
X25250000Y-105435000D03*
%TD*%
D13*
%TO.N,GND*%
X32780000Y-100350000D03*
X32780000Y-100350000D03*
X32780000Y-100350000D03*
X32780000Y-100350000D03*
X32780000Y-100350000D03*
X32780000Y-100350000D03*
X32780000Y-100350000D03*
X32780000Y-100350000D03*
X32780000Y-100350000D03*
X32780000Y-100350000D03*
X32780000Y-100350000D03*
X32780000Y-100350000D03*
X32780000Y-100350000D03*
X32780000Y-100350000D03*
X32780000Y-100350000D03*
X32780000Y-100350000D03*
X32780000Y-100350000D03*
X32780000Y-100350000D03*
X32780000Y-100350000D03*
X29400000Y-100355000D03*
%TD*%
D14*
%TO.N,GND*%
X29400000Y-100355000D02*
X32775000Y-100355000D01*
X25250000Y-100355000D02*
X29400000Y-100355000D01*
%TO.N,/A*%
X32755000Y-105435000D02*
X32780000Y-105410000D01*
X25250000Y-105435000D02*
X32755000Y-105435000D01*
%TO.N,/B*%
X32775000Y-102895000D02*
X32780000Y-102890000D01*
X25250000Y-102895000D02*
X32775000Y-102895000D01*
%TO.N,GND*%
X32775000Y-100355000D02*
X32780000Y-100350000D01*
%TO.N,+5V*%
X32775000Y-97815000D02*
X32780000Y-97810000D01*
X25250000Y-97815000D02*
X32775000Y-97815000D01*
%TD*%
M02*
