%TF.GenerationSoftware,KiCad,Pcbnew,9.0.5*%
%TF.CreationDate,2025-11-13T16:07:57-05:00*%
%TF.ProjectId,SplitFlapBusBoard,53706c69-7446-46c6-9170-427573426f61,rev?*%
%TF.SameCoordinates,Original*%
%TF.FileFunction,Copper,L2,Bot*%
%TF.FilePolarity,Positive*%
%FSLAX46Y46*%
G04 Gerber Fmt 4.6, Leading zero omitted, Abs format (unit mm)*
G04 Created by KiCad (PCBNEW 9.0.5) date 2025-11-13 16:07:57*
%MOMM*%
%LPD*%
G01*
G04 APERTURE LIST*
%TA.AperFunction,ComponentPad*%
%ADD10R,1.700000X1.700000*%
%TD*%
%TA.AperFunction,ComponentPad*%
%ADD11C,1.700000*%
%TD*%
%TA.AperFunction,ViaPad*%
%ADD12C,0.600000*%
%TD*%
G04 APERTURE END LIST*
D10*
%TO.P,J1,1,Pin_1*%
%TO.N,+5V*%
X25250000Y-97815000D03*
D11*
%TO.P,J1,2,Pin_2*%
%TO.N,GND*%
X25250000Y-100355000D03*
%TO.P,J1,3,Pin_3*%
%TO.N,/B*%
X25250000Y-102895000D03*
%TO.P,J1,4,Pin_4*%
%TO.N,/A*%
X25250000Y-105435000D03*
%TD*%
D12*
%TO.N,GND*%
X32780000Y-100350000D03*
X32780000Y-100350000D03*
X32780000Y-100350000D03*
X32780000Y-100350000D03*
X32780000Y-100350000D03*
X32780000Y-100350000D03*
X32780000Y-100350000D03*
X32780000Y-100350000D03*
X32780000Y-100350000D03*
X32780000Y-100350000D03*
X32780000Y-100350000D03*
X32780000Y-100350000D03*
X32780000Y-100350000D03*
X32780000Y-100350000D03*
X32780000Y-100350000D03*
X32780000Y-100350000D03*
X32780000Y-100350000D03*
X32780000Y-100350000D03*
X32780000Y-100350000D03*
X29400000Y-100355000D03*
%TD*%
%TA.AperFunction,Conductor*%
%TO.N,GND*%
G36*
X478442539Y-96169685D02*
G01*
X478488294Y-96222489D01*
X478499500Y-96274000D01*
X478499500Y-107000500D01*
X478479815Y-107067539D01*
X478427011Y-107113294D01*
X478375500Y-107124500D01*
X23674000Y-107124500D01*
X23606961Y-107104815D01*
X23561206Y-107052011D01*
X23550000Y-107000500D01*
X23550000Y-96917135D01*
X23899500Y-96917135D01*
X23899500Y-98712870D01*
X23899501Y-98712876D01*
X23905908Y-98772483D01*
X23956202Y-98907328D01*
X23956206Y-98907335D01*
X24042452Y-99022544D01*
X24042455Y-99022547D01*
X24157664Y-99108793D01*
X24157671Y-99108797D01*
X24202618Y-99125561D01*
X24292517Y-99159091D01*
X24352127Y-99165500D01*
X24362685Y-99165499D01*
X24429723Y-99185179D01*
X24450372Y-99201818D01*
X25120591Y-99872037D01*
X25057007Y-99889075D01*
X24942993Y-99954901D01*
X24849901Y-100047993D01*
X24784075Y-100162007D01*
X24767037Y-100225591D01*
X24134728Y-99593282D01*
X24134727Y-99593282D01*
X24095380Y-99647439D01*
X23998904Y-99836782D01*
X23933242Y-100038869D01*
X23933242Y-100038872D01*
X23900000Y-100248753D01*
X23900000Y-100461246D01*
X23933242Y-100671127D01*
X23933242Y-100671130D01*
X23998904Y-100873217D01*
X24095375Y-101062550D01*
X24134728Y-101116716D01*
X24767037Y-100484408D01*
X24784075Y-100547993D01*
X24849901Y-100662007D01*
X24942993Y-100755099D01*
X25057007Y-100820925D01*
X25120590Y-100837962D01*
X24488282Y-101470269D01*
X24488282Y-101470270D01*
X24542452Y-101509626D01*
X24542451Y-101509626D01*
X24551495Y-101514234D01*
X24602292Y-101562208D01*
X24619087Y-101630029D01*
X24596550Y-101696164D01*
X24551499Y-101735202D01*
X24542182Y-101739949D01*
X24370213Y-101864890D01*
X24219890Y-102015213D01*
X24094951Y-102187179D01*
X23998444Y-102376585D01*
X23932753Y-102578760D01*
X23899500Y-102788713D01*
X23899500Y-103001286D01*
X23932753Y-103211239D01*
X23998444Y-103413414D01*
X24094951Y-103602820D01*
X24219890Y-103774786D01*
X24370213Y-103925109D01*
X24542182Y-104050050D01*
X24550946Y-104054516D01*
X24601742Y-104102491D01*
X24618536Y-104170312D01*
X24595998Y-104236447D01*
X24550946Y-104275484D01*
X24542182Y-104279949D01*
X24370213Y-104404890D01*
X24219890Y-104555213D01*
X24094951Y-104727179D01*
X23998444Y-104916585D01*
X23932753Y-105118760D01*
X23899500Y-105328713D01*
X23899500Y-105541286D01*
X23932753Y-105751239D01*
X23998444Y-105953414D01*
X24094951Y-106142820D01*
X24219890Y-106314786D01*
X24370213Y-106465109D01*
X24542179Y-106590048D01*
X24542181Y-106590049D01*
X24542184Y-106590051D01*
X24731588Y-106686557D01*
X24933757Y-106752246D01*
X25143713Y-106785500D01*
X25143714Y-106785500D01*
X25356286Y-106785500D01*
X25356287Y-106785500D01*
X25566243Y-106752246D01*
X25768412Y-106686557D01*
X25957816Y-106590051D01*
X25979789Y-106574086D01*
X26129786Y-106465109D01*
X26129788Y-106465106D01*
X26129792Y-106465104D01*
X26280104Y-106314792D01*
X26280106Y-106314788D01*
X26280109Y-106314786D01*
X26405048Y-106142820D01*
X26405047Y-106142820D01*
X26405051Y-106142816D01*
X26501557Y-105953412D01*
X26567246Y-105751243D01*
X26600500Y-105541287D01*
X26600500Y-105328713D01*
X26567246Y-105118757D01*
X26501557Y-104916588D01*
X26405051Y-104727184D01*
X26405049Y-104727181D01*
X26405048Y-104727179D01*
X26280109Y-104555213D01*
X26129786Y-104404890D01*
X25957820Y-104279951D01*
X25957115Y-104279591D01*
X25949054Y-104275485D01*
X25898259Y-104227512D01*
X25881463Y-104159692D01*
X25903999Y-104093556D01*
X25949054Y-104054515D01*
X25957816Y-104050051D01*
X25979789Y-104034086D01*
X26129786Y-103925109D01*
X26129788Y-103925106D01*
X26129792Y-103925104D01*
X26280104Y-103774792D01*
X26280106Y-103774788D01*
X26280109Y-103774786D01*
X26405048Y-103602820D01*
X26405047Y-103602820D01*
X26405051Y-103602816D01*
X26501557Y-103413412D01*
X26567246Y-103211243D01*
X26600500Y-103001287D01*
X26600500Y-102788713D01*
X26567246Y-102578757D01*
X26501557Y-102376588D01*
X26405051Y-102187184D01*
X26405049Y-102187181D01*
X26405048Y-102187179D01*
X26280109Y-102015213D01*
X26129786Y-101864890D01*
X25957817Y-101739949D01*
X25948504Y-101735204D01*
X25897707Y-101687230D01*
X25880912Y-101619409D01*
X25903449Y-101553274D01*
X25948507Y-101514232D01*
X25957555Y-101509622D01*
X26011716Y-101470270D01*
X26011717Y-101470270D01*
X25379408Y-100837962D01*
X25442993Y-100820925D01*
X25557007Y-100755099D01*
X25650099Y-100662007D01*
X25715925Y-100547993D01*
X25732962Y-100484408D01*
X26365270Y-101116717D01*
X26365270Y-101116716D01*
X26404622Y-101062554D01*
X26501095Y-100873217D01*
X26566757Y-100671130D01*
X26566757Y-100671127D01*
X26600000Y-100461246D01*
X26600000Y-100248753D01*
X26566757Y-100038872D01*
X26566757Y-100038869D01*
X26501095Y-99836782D01*
X26404624Y-99647449D01*
X26365270Y-99593282D01*
X26365269Y-99593282D01*
X25732962Y-100225590D01*
X25715925Y-100162007D01*
X25650099Y-100047993D01*
X25557007Y-99954901D01*
X25442993Y-99889075D01*
X25379409Y-99872037D01*
X26049627Y-99201818D01*
X26110950Y-99168333D01*
X26137307Y-99165499D01*
X26147872Y-99165499D01*
X26207483Y-99159091D01*
X26342331Y-99108796D01*
X26457546Y-99022546D01*
X26543796Y-98907331D01*
X26594091Y-98772483D01*
X26600500Y-98712873D01*
X26600499Y-96917128D01*
X26594091Y-96857517D01*
X26543796Y-96722669D01*
X26543795Y-96722668D01*
X26543793Y-96722664D01*
X26457547Y-96607455D01*
X26457544Y-96607452D01*
X26342335Y-96521206D01*
X26342328Y-96521202D01*
X26207482Y-96470908D01*
X26207483Y-96470908D01*
X26147883Y-96464501D01*
X26147881Y-96464500D01*
X26147873Y-96464500D01*
X26147864Y-96464500D01*
X24352129Y-96464500D01*
X24352123Y-96464501D01*
X24292516Y-96470908D01*
X24157671Y-96521202D01*
X24157664Y-96521206D01*
X24042455Y-96607452D01*
X24042452Y-96607455D01*
X23956206Y-96722664D01*
X23956202Y-96722671D01*
X23905908Y-96857517D01*
X23899501Y-96917116D01*
X23899501Y-96917123D01*
X23899500Y-96917135D01*
X23550000Y-96917135D01*
X23550000Y-96274000D01*
X23569685Y-96206961D01*
X23622489Y-96161206D01*
X23674000Y-96150000D01*
X478375500Y-96150000D01*
X478442539Y-96169685D01*
G37*
%TD.AperFunction*%
%TD*%
M02*
