M48
; DRILL file {KiCad 9.0.5} date 2025-12-05T12:21:26-0500
; FORMAT={-:-/ absolute / metric / decimal}
; #@! TF.CreationDate,2025-12-05T12:21:26-05:00
; #@! TF.GenerationSoftware,Kicad,Pcbnew,9.0.5
; #@! TF.FileFunction,Plated,1,2,PTH
FMAT,2
METRIC
; #@! TA.AperFunction,Plated,PTH,ViaDrill
T1C0.300
; #@! TA.AperFunction,Plated,PTH,ComponentDrill
T2C0.950
; #@! TA.AperFunction,Plated,PTH,ComponentDrill
T3C1.000
%
G90
G05
T1
X123.2Y-96.3
X123.7Y-103.75
X124.45Y-96.3
X124.65Y-92.575
X124.862Y-108.287
X124.95Y-98.3
X125.337Y-114.5
X126.771Y-103.421
X126.812Y-108.35
X126.837Y-114.5
X127.15Y-98.3
X128.35Y-114.5
X130.15Y-103.0
X130.55Y-106.95
X138.3Y-104.45
X138.3Y-117.3
X138.6Y-92.25
X139.625Y-121.3
X139.8Y-90.625
X140.325Y-102.925
X140.65Y-86.3
X142.075Y-93.6
X147.65Y-123.112
T2
X130.475Y-129.1
X132.975Y-129.1
X135.475Y-129.1
X137.975Y-129.1
X140.475Y-129.1
T3
X127.15Y-118.12
X127.15Y-120.66
X127.15Y-123.2
X132.81Y-86.8
X135.0Y-102.35
X135.0Y-108.1
X135.0Y-111.9
X135.0Y-117.65
X135.35Y-86.8
X137.89Y-86.8
X145.55Y-89.36
X145.55Y-91.9
X145.55Y-94.44
X145.55Y-96.98
X145.55Y-99.52
M30
