%TF.GenerationSoftware,KiCad,Pcbnew,9.0.5*%
%TF.CreationDate,2025-12-05T12:21:23-05:00*%
%TF.ProjectId,SplitFlapDriverATtiny1616V2,53706c69-7446-46c6-9170-447269766572,rev?*%
%TF.SameCoordinates,Original*%
%TF.FileFunction,Copper,L2,Bot*%
%TF.FilePolarity,Positive*%
%FSLAX46Y46*%
G04 Gerber Fmt 4.6, Leading zero omitted, Abs format (unit mm)*
G04 Created by KiCad (PCBNEW 9.0.5) date 2025-12-05 12:21:23*
%MOMM*%
%LPD*%
G01*
G04 APERTURE LIST*
G04 Aperture macros list*
%AMRoundRect*
0 Rectangle with rounded corners*
0 $1 Rounding radius*
0 $2 $3 $4 $5 $6 $7 $8 $9 X,Y pos of 4 corners*
0 Add a 4 corners polygon primitive as box body*
4,1,4,$2,$3,$4,$5,$6,$7,$8,$9,$2,$3,0*
0 Add four circle primitives for the rounded corners*
1,1,$1+$1,$2,$3*
1,1,$1+$1,$4,$5*
1,1,$1+$1,$6,$7*
1,1,$1+$1,$8,$9*
0 Add four rect primitives between the rounded corners*
20,1,$1+$1,$2,$3,$4,$5,0*
20,1,$1+$1,$4,$5,$6,$7,0*
20,1,$1+$1,$6,$7,$8,$9,0*
20,1,$1+$1,$8,$9,$2,$3,0*%
G04 Aperture macros list end*
%TA.AperFunction,ComponentPad*%
%ADD10C,1.700000*%
%TD*%
%TA.AperFunction,ComponentPad*%
%ADD11R,1.700000X1.700000*%
%TD*%
%TA.AperFunction,ComponentPad*%
%ADD12RoundRect,0.250000X-0.600000X-0.725000X0.600000X-0.725000X0.600000X0.725000X-0.600000X0.725000X0*%
%TD*%
%TA.AperFunction,ComponentPad*%
%ADD13O,1.700000X1.950000*%
%TD*%
%TA.AperFunction,ViaPad*%
%ADD14C,0.600000*%
%TD*%
%TA.AperFunction,Conductor*%
%ADD15C,0.200000*%
%TD*%
%TA.AperFunction,Conductor*%
%ADD16C,0.500000*%
%TD*%
G04 APERTURE END LIST*
D10*
%TO.P,J4,3,Pin_3*%
%TO.N,+5V*%
X127150000Y-118120000D03*
%TO.P,J4,2,Pin_2*%
%TO.N,GND*%
X127150000Y-120660000D03*
D11*
%TO.P,J4,1,Pin_1*%
%TO.N,HALL_IN*%
X127150000Y-123200000D03*
%TD*%
%TO.P,J8,1,Pin_1*%
%TO.N,RS465_A*%
X135000000Y-111900000D03*
%TD*%
%TO.P,J6,1,Pin_1*%
%TO.N,GND*%
X135000000Y-117650000D03*
%TD*%
%TO.P,J2,1,Pin_1*%
%TO.N,+VBUS*%
X135000000Y-102350000D03*
%TD*%
D12*
%TO.P,J3,1,Pin_1*%
%TO.N,M4*%
X130475000Y-129100000D03*
D13*
%TO.P,J3,2,Pin_2*%
%TO.N,M3*%
X132975000Y-129100000D03*
%TO.P,J3,3,Pin_3*%
%TO.N,M2*%
X135475000Y-129100000D03*
%TO.P,J3,4,Pin_4*%
%TO.N,M1*%
X137975000Y-129100000D03*
%TO.P,J3,5,Pin_5*%
%TO.N,+VBUSF*%
X140475000Y-129100000D03*
%TD*%
D11*
%TO.P,J7,1,Pin_1*%
%TO.N,RS465_B*%
X135000000Y-108100000D03*
%TD*%
%TO.P,J1,1,Pin_1*%
%TO.N,+3V3*%
X132810000Y-86800000D03*
D10*
%TO.P,J1,2,Pin_2*%
%TO.N,GND*%
X135350000Y-86800000D03*
%TO.P,J1,3,Pin_3*%
%TO.N,UPDI*%
X137890000Y-86800000D03*
%TD*%
D11*
%TO.P,J5,1,Pin_1*%
%TO.N,IO1*%
X145550000Y-89360000D03*
D10*
%TO.P,J5,2,Pin_2*%
%TO.N,IO2*%
X145550000Y-91900000D03*
%TO.P,J5,3,Pin_3*%
%TO.N,IO3*%
X145550000Y-94440000D03*
%TO.P,J5,4,Pin_4*%
%TO.N,IO4*%
X145550000Y-96980000D03*
%TO.P,J5,5,Pin_5*%
%TO.N,IO5*%
X145550000Y-99520000D03*
%TD*%
D14*
%TO.N,HALL_IN*%
X127150000Y-98300000D03*
X124950000Y-98300000D03*
%TO.N,RS465_B*%
X124450000Y-96300000D03*
%TO.N,RS465_A*%
X123200000Y-96300000D03*
%TO.N,GND*%
X123700000Y-103750000D03*
X126812500Y-108350000D03*
X130550000Y-106950000D03*
X125337500Y-114500000D03*
X126771446Y-103421446D03*
X130150000Y-103000000D03*
X124862500Y-108287500D03*
X128350000Y-114500000D03*
X126837500Y-114500000D03*
X140325000Y-102925000D03*
X140650000Y-86300000D03*
X138300000Y-104450000D03*
X124650000Y-92575000D03*
X147650000Y-123112500D03*
X138600000Y-92250000D03*
%TO.N,UPDI*%
X139800000Y-90625000D03*
X142075000Y-93600000D03*
%TO.N,+VBUSF*%
X138300000Y-117300000D03*
X139625000Y-121300000D03*
%TD*%
D15*
%TO.N,UPDI*%
X139850000Y-90625000D02*
X139800000Y-90625000D01*
X142075000Y-92850000D02*
X139850000Y-90625000D01*
X142075000Y-93600000D02*
X142075000Y-92850000D01*
%TO.N,HALL_IN*%
X124950000Y-98300000D02*
X127150000Y-98300000D01*
%TO.N,RS465_B*%
X133453979Y-108100000D02*
X135000000Y-108100000D01*
X124450000Y-99096021D02*
X133453979Y-108100000D01*
X124450000Y-96300000D02*
X124450000Y-99096021D01*
%TO.N,RS465_A*%
X133450000Y-111900000D02*
X135000000Y-111900000D01*
X123200000Y-101650000D02*
X133450000Y-111900000D01*
X123200000Y-96300000D02*
X123200000Y-101650000D01*
D16*
%TO.N,+VBUSF*%
X138300000Y-119975000D02*
X138300000Y-117300000D01*
X139625000Y-121300000D02*
X138300000Y-119975000D01*
%TD*%
%TA.AperFunction,Conductor*%
%TO.N,GND*%
G36*
X148943039Y-80994037D02*
G01*
X148988794Y-81046841D01*
X149000000Y-81098352D01*
X149000000Y-138850352D01*
X148980315Y-138917391D01*
X148927511Y-138963146D01*
X148876000Y-138974352D01*
X121124000Y-138974352D01*
X121056961Y-138954667D01*
X121011206Y-138901863D01*
X121000000Y-138850352D01*
X121000000Y-136871907D01*
X121372500Y-136871907D01*
X121372500Y-137128092D01*
X121402960Y-137320404D01*
X121412574Y-137381107D01*
X121491736Y-137624743D01*
X121608037Y-137852996D01*
X121758612Y-138060245D01*
X121939755Y-138241388D01*
X122147004Y-138391963D01*
X122375257Y-138508264D01*
X122618893Y-138587426D01*
X122749249Y-138608072D01*
X122871908Y-138627500D01*
X122871913Y-138627500D01*
X123128092Y-138627500D01*
X123239908Y-138609789D01*
X123381107Y-138587426D01*
X123624743Y-138508264D01*
X123852996Y-138391963D01*
X124060245Y-138241388D01*
X124241388Y-138060245D01*
X124391963Y-137852996D01*
X124508264Y-137624743D01*
X124587426Y-137381107D01*
X124609789Y-137239908D01*
X124627500Y-137128092D01*
X124627500Y-136871907D01*
X145372500Y-136871907D01*
X145372500Y-137128092D01*
X145402960Y-137320404D01*
X145412574Y-137381107D01*
X145491736Y-137624743D01*
X145608037Y-137852996D01*
X145758612Y-138060245D01*
X145939755Y-138241388D01*
X146147004Y-138391963D01*
X146375257Y-138508264D01*
X146618893Y-138587426D01*
X146749249Y-138608072D01*
X146871908Y-138627500D01*
X146871913Y-138627500D01*
X147128092Y-138627500D01*
X147239908Y-138609789D01*
X147381107Y-138587426D01*
X147624743Y-138508264D01*
X147852996Y-138391963D01*
X148060245Y-138241388D01*
X148241388Y-138060245D01*
X148391963Y-137852996D01*
X148508264Y-137624743D01*
X148587426Y-137381107D01*
X148609789Y-137239908D01*
X148627500Y-137128092D01*
X148627500Y-136871907D01*
X148597040Y-136679596D01*
X148587426Y-136618893D01*
X148508264Y-136375257D01*
X148391963Y-136147004D01*
X148241388Y-135939755D01*
X148060245Y-135758612D01*
X147852996Y-135608037D01*
X147624743Y-135491736D01*
X147381107Y-135412574D01*
X147128092Y-135372500D01*
X147128087Y-135372500D01*
X146871913Y-135372500D01*
X146871908Y-135372500D01*
X146618892Y-135412574D01*
X146375254Y-135491737D01*
X146147003Y-135608037D01*
X145939752Y-135758614D01*
X145758614Y-135939752D01*
X145608037Y-136147003D01*
X145491737Y-136375254D01*
X145412574Y-136618892D01*
X145372500Y-136871907D01*
X124627500Y-136871907D01*
X124597040Y-136679596D01*
X124587426Y-136618893D01*
X124508264Y-136375257D01*
X124391963Y-136147004D01*
X124241388Y-135939755D01*
X124060245Y-135758612D01*
X123852996Y-135608037D01*
X123624743Y-135491736D01*
X123381107Y-135412574D01*
X123128092Y-135372500D01*
X123128087Y-135372500D01*
X122871913Y-135372500D01*
X122871908Y-135372500D01*
X122618892Y-135412574D01*
X122375254Y-135491737D01*
X122147003Y-135608037D01*
X121939752Y-135758614D01*
X121758614Y-135939752D01*
X121608037Y-136147003D01*
X121491737Y-136375254D01*
X121412574Y-136618892D01*
X121372500Y-136871907D01*
X121000000Y-136871907D01*
X121000000Y-128324983D01*
X129124500Y-128324983D01*
X129124500Y-129875001D01*
X129124501Y-129875018D01*
X129135000Y-129977796D01*
X129135001Y-129977799D01*
X129180894Y-130116294D01*
X129190186Y-130144334D01*
X129282288Y-130293656D01*
X129406344Y-130417712D01*
X129555666Y-130509814D01*
X129722203Y-130564999D01*
X129824991Y-130575500D01*
X131125008Y-130575499D01*
X131227797Y-130564999D01*
X131394334Y-130509814D01*
X131543656Y-130417712D01*
X131667712Y-130293656D01*
X131759814Y-130144334D01*
X131759814Y-130144331D01*
X131763178Y-130138879D01*
X131815126Y-130092154D01*
X131884088Y-130080931D01*
X131948170Y-130108774D01*
X131956398Y-130116294D01*
X132095213Y-130255109D01*
X132267179Y-130380048D01*
X132267181Y-130380049D01*
X132267184Y-130380051D01*
X132456588Y-130476557D01*
X132658757Y-130542246D01*
X132868713Y-130575500D01*
X132868714Y-130575500D01*
X133081286Y-130575500D01*
X133081287Y-130575500D01*
X133291243Y-130542246D01*
X133493412Y-130476557D01*
X133682816Y-130380051D01*
X133704789Y-130364086D01*
X133854786Y-130255109D01*
X133854788Y-130255106D01*
X133854792Y-130255104D01*
X134005104Y-130104792D01*
X134124683Y-129940204D01*
X134180011Y-129897540D01*
X134249624Y-129891561D01*
X134311420Y-129924166D01*
X134325313Y-129940199D01*
X134427560Y-130080931D01*
X134444896Y-130104792D01*
X134595213Y-130255109D01*
X134767179Y-130380048D01*
X134767181Y-130380049D01*
X134767184Y-130380051D01*
X134956588Y-130476557D01*
X135158757Y-130542246D01*
X135368713Y-130575500D01*
X135368714Y-130575500D01*
X135581286Y-130575500D01*
X135581287Y-130575500D01*
X135791243Y-130542246D01*
X135993412Y-130476557D01*
X136182816Y-130380051D01*
X136204789Y-130364086D01*
X136354786Y-130255109D01*
X136354788Y-130255106D01*
X136354792Y-130255104D01*
X136505104Y-130104792D01*
X136624683Y-129940204D01*
X136680011Y-129897540D01*
X136749624Y-129891561D01*
X136811420Y-129924166D01*
X136825313Y-129940199D01*
X136927560Y-130080931D01*
X136944896Y-130104792D01*
X137095213Y-130255109D01*
X137267179Y-130380048D01*
X137267181Y-130380049D01*
X137267184Y-130380051D01*
X137456588Y-130476557D01*
X137658757Y-130542246D01*
X137868713Y-130575500D01*
X137868714Y-130575500D01*
X138081286Y-130575500D01*
X138081287Y-130575500D01*
X138291243Y-130542246D01*
X138493412Y-130476557D01*
X138682816Y-130380051D01*
X138704789Y-130364086D01*
X138854786Y-130255109D01*
X138854788Y-130255106D01*
X138854792Y-130255104D01*
X139005104Y-130104792D01*
X139124683Y-129940204D01*
X139180011Y-129897540D01*
X139249624Y-129891561D01*
X139311420Y-129924166D01*
X139325313Y-129940199D01*
X139427560Y-130080931D01*
X139444896Y-130104792D01*
X139595213Y-130255109D01*
X139767179Y-130380048D01*
X139767181Y-130380049D01*
X139767184Y-130380051D01*
X139956588Y-130476557D01*
X140158757Y-130542246D01*
X140368713Y-130575500D01*
X140368714Y-130575500D01*
X140581286Y-130575500D01*
X140581287Y-130575500D01*
X140791243Y-130542246D01*
X140993412Y-130476557D01*
X141182816Y-130380051D01*
X141204789Y-130364086D01*
X141354786Y-130255109D01*
X141354788Y-130255106D01*
X141354792Y-130255104D01*
X141505104Y-130104792D01*
X141505106Y-130104788D01*
X141505109Y-130104786D01*
X141630048Y-129932820D01*
X141630047Y-129932820D01*
X141630051Y-129932816D01*
X141726557Y-129743412D01*
X141792246Y-129541243D01*
X141825500Y-129331287D01*
X141825500Y-128868713D01*
X141792246Y-128658757D01*
X141726557Y-128456588D01*
X141630051Y-128267184D01*
X141630049Y-128267181D01*
X141630048Y-128267179D01*
X141505109Y-128095213D01*
X141354786Y-127944890D01*
X141182820Y-127819951D01*
X140993414Y-127723444D01*
X140993413Y-127723443D01*
X140993412Y-127723443D01*
X140791243Y-127657754D01*
X140791241Y-127657753D01*
X140791240Y-127657753D01*
X140629957Y-127632208D01*
X140581287Y-127624500D01*
X140368713Y-127624500D01*
X140320042Y-127632208D01*
X140158760Y-127657753D01*
X139956585Y-127723444D01*
X139767179Y-127819951D01*
X139595213Y-127944890D01*
X139444894Y-128095209D01*
X139444890Y-128095214D01*
X139325318Y-128259793D01*
X139269989Y-128302459D01*
X139200375Y-128308438D01*
X139138580Y-128275833D01*
X139124682Y-128259793D01*
X139005109Y-128095214D01*
X139005105Y-128095209D01*
X138854786Y-127944890D01*
X138682820Y-127819951D01*
X138493414Y-127723444D01*
X138493413Y-127723443D01*
X138493412Y-127723443D01*
X138291243Y-127657754D01*
X138291241Y-127657753D01*
X138291240Y-127657753D01*
X138129957Y-127632208D01*
X138081287Y-127624500D01*
X137868713Y-127624500D01*
X137820042Y-127632208D01*
X137658760Y-127657753D01*
X137456585Y-127723444D01*
X137267179Y-127819951D01*
X137095213Y-127944890D01*
X136944894Y-128095209D01*
X136944890Y-128095214D01*
X136825318Y-128259793D01*
X136769989Y-128302459D01*
X136700375Y-128308438D01*
X136638580Y-128275833D01*
X136624682Y-128259793D01*
X136505109Y-128095214D01*
X136505105Y-128095209D01*
X136354786Y-127944890D01*
X136182820Y-127819951D01*
X135993414Y-127723444D01*
X135993413Y-127723443D01*
X135993412Y-127723443D01*
X135791243Y-127657754D01*
X135791241Y-127657753D01*
X135791240Y-127657753D01*
X135629957Y-127632208D01*
X135581287Y-127624500D01*
X135368713Y-127624500D01*
X135320042Y-127632208D01*
X135158760Y-127657753D01*
X134956585Y-127723444D01*
X134767179Y-127819951D01*
X134595213Y-127944890D01*
X134444894Y-128095209D01*
X134444890Y-128095214D01*
X134325318Y-128259793D01*
X134269989Y-128302459D01*
X134200375Y-128308438D01*
X134138580Y-128275833D01*
X134124682Y-128259793D01*
X134005109Y-128095214D01*
X134005105Y-128095209D01*
X133854786Y-127944890D01*
X133682820Y-127819951D01*
X133493414Y-127723444D01*
X133493413Y-127723443D01*
X133493412Y-127723443D01*
X133291243Y-127657754D01*
X133291241Y-127657753D01*
X133291240Y-127657753D01*
X133129957Y-127632208D01*
X133081287Y-127624500D01*
X132868713Y-127624500D01*
X132820042Y-127632208D01*
X132658760Y-127657753D01*
X132456585Y-127723444D01*
X132267179Y-127819951D01*
X132095215Y-127944889D01*
X131956398Y-128083706D01*
X131895075Y-128117190D01*
X131825383Y-128112206D01*
X131769450Y-128070334D01*
X131763178Y-128061120D01*
X131667712Y-127906344D01*
X131543657Y-127782289D01*
X131543656Y-127782288D01*
X131394334Y-127690186D01*
X131227797Y-127635001D01*
X131227795Y-127635000D01*
X131125010Y-127624500D01*
X129824998Y-127624500D01*
X129824981Y-127624501D01*
X129722203Y-127635000D01*
X129722200Y-127635001D01*
X129555668Y-127690185D01*
X129555663Y-127690187D01*
X129406342Y-127782289D01*
X129282289Y-127906342D01*
X129190187Y-128055663D01*
X129190185Y-128055668D01*
X129185325Y-128070334D01*
X129135001Y-128222203D01*
X129135001Y-128222204D01*
X129135000Y-128222204D01*
X129124500Y-128324983D01*
X121000000Y-128324983D01*
X121000000Y-118013713D01*
X125799500Y-118013713D01*
X125799500Y-118226287D01*
X125832754Y-118436243D01*
X125888357Y-118607372D01*
X125898444Y-118638414D01*
X125994951Y-118827820D01*
X126119890Y-118999786D01*
X126270213Y-119150109D01*
X126442179Y-119275048D01*
X126442181Y-119275049D01*
X126442184Y-119275051D01*
X126451493Y-119279794D01*
X126502290Y-119327766D01*
X126519087Y-119395587D01*
X126496552Y-119461722D01*
X126451505Y-119500760D01*
X126442446Y-119505376D01*
X126442440Y-119505380D01*
X126388282Y-119544727D01*
X126388282Y-119544728D01*
X127020591Y-120177037D01*
X126957007Y-120194075D01*
X126842993Y-120259901D01*
X126749901Y-120352993D01*
X126684075Y-120467007D01*
X126667037Y-120530591D01*
X126034728Y-119898282D01*
X126034727Y-119898282D01*
X125995380Y-119952439D01*
X125898904Y-120141782D01*
X125833242Y-120343869D01*
X125833242Y-120343872D01*
X125800000Y-120553753D01*
X125800000Y-120766246D01*
X125833242Y-120976127D01*
X125833242Y-120976130D01*
X125898904Y-121178217D01*
X125995375Y-121367550D01*
X126034728Y-121421716D01*
X126667037Y-120789408D01*
X126684075Y-120852993D01*
X126749901Y-120967007D01*
X126842993Y-121060099D01*
X126957007Y-121125925D01*
X127020590Y-121142962D01*
X126350370Y-121813181D01*
X126289047Y-121846666D01*
X126262698Y-121849500D01*
X126252134Y-121849500D01*
X126252123Y-121849501D01*
X126192516Y-121855908D01*
X126057671Y-121906202D01*
X126057664Y-121906206D01*
X125942455Y-121992452D01*
X125942452Y-121992455D01*
X125856206Y-122107664D01*
X125856202Y-122107671D01*
X125805908Y-122242517D01*
X125799501Y-122302116D01*
X125799501Y-122302123D01*
X125799500Y-122302135D01*
X125799500Y-124097870D01*
X125799501Y-124097876D01*
X125805908Y-124157483D01*
X125856202Y-124292328D01*
X125856206Y-124292335D01*
X125942452Y-124407544D01*
X125942455Y-124407547D01*
X126057664Y-124493793D01*
X126057671Y-124493797D01*
X126192517Y-124544091D01*
X126192516Y-124544091D01*
X126199444Y-124544835D01*
X126252127Y-124550500D01*
X128047872Y-124550499D01*
X128107483Y-124544091D01*
X128242331Y-124493796D01*
X128357546Y-124407546D01*
X128443796Y-124292331D01*
X128494091Y-124157483D01*
X128500500Y-124097873D01*
X128500499Y-122302128D01*
X128494091Y-122242517D01*
X128443796Y-122107669D01*
X128443795Y-122107668D01*
X128443793Y-122107664D01*
X128357547Y-121992455D01*
X128357544Y-121992452D01*
X128242335Y-121906206D01*
X128242328Y-121906202D01*
X128107482Y-121855908D01*
X128107483Y-121855908D01*
X128047883Y-121849501D01*
X128047881Y-121849500D01*
X128047873Y-121849500D01*
X128047865Y-121849500D01*
X128037309Y-121849500D01*
X127970270Y-121829815D01*
X127949628Y-121813181D01*
X127279408Y-121142962D01*
X127342993Y-121125925D01*
X127457007Y-121060099D01*
X127550099Y-120967007D01*
X127615925Y-120852993D01*
X127632962Y-120789408D01*
X128265270Y-121421717D01*
X128265270Y-121421716D01*
X128304622Y-121367554D01*
X128401095Y-121178217D01*
X128466757Y-120976130D01*
X128466757Y-120976127D01*
X128500000Y-120766246D01*
X128500000Y-120553753D01*
X128466757Y-120343872D01*
X128466757Y-120343869D01*
X128401095Y-120141782D01*
X128304624Y-119952449D01*
X128265270Y-119898282D01*
X128265269Y-119898282D01*
X127632962Y-120530590D01*
X127615925Y-120467007D01*
X127550099Y-120352993D01*
X127457007Y-120259901D01*
X127342993Y-120194075D01*
X127279409Y-120177037D01*
X127911716Y-119544728D01*
X127857547Y-119505373D01*
X127857547Y-119505372D01*
X127848500Y-119500763D01*
X127797706Y-119452788D01*
X127780912Y-119384966D01*
X127803451Y-119318832D01*
X127848508Y-119279793D01*
X127857816Y-119275051D01*
X127937007Y-119217515D01*
X128029786Y-119150109D01*
X128029788Y-119150106D01*
X128029792Y-119150104D01*
X128180104Y-118999792D01*
X128180106Y-118999788D01*
X128180109Y-118999786D01*
X128305048Y-118827820D01*
X128305047Y-118827820D01*
X128305051Y-118827816D01*
X128401557Y-118638412D01*
X128467246Y-118436243D01*
X128500500Y-118226287D01*
X128500500Y-118013713D01*
X128493302Y-117968267D01*
X128477427Y-117868036D01*
X128467246Y-117803760D01*
X128467246Y-117803757D01*
X128401557Y-117601588D01*
X128305051Y-117412184D01*
X128305049Y-117412181D01*
X128305048Y-117412179D01*
X128180109Y-117240213D01*
X128029786Y-117089890D01*
X127857820Y-116964951D01*
X127668414Y-116868444D01*
X127668413Y-116868443D01*
X127668412Y-116868443D01*
X127466243Y-116802754D01*
X127466241Y-116802753D01*
X127466240Y-116802753D01*
X127304957Y-116777208D01*
X127256287Y-116769500D01*
X127043713Y-116769500D01*
X126995042Y-116777208D01*
X126833760Y-116802753D01*
X126631585Y-116868444D01*
X126442179Y-116964951D01*
X126270213Y-117089890D01*
X126119890Y-117240213D01*
X125994951Y-117412179D01*
X125898444Y-117601585D01*
X125832753Y-117803760D01*
X125806698Y-117968267D01*
X125799500Y-118013713D01*
X121000000Y-118013713D01*
X121000000Y-116752155D01*
X133650000Y-116752155D01*
X133650000Y-117400000D01*
X134566988Y-117400000D01*
X134534075Y-117457007D01*
X134500000Y-117584174D01*
X134500000Y-117715826D01*
X134534075Y-117842993D01*
X134566988Y-117900000D01*
X133650000Y-117900000D01*
X133650000Y-118547844D01*
X133656401Y-118607372D01*
X133656403Y-118607379D01*
X133706645Y-118742086D01*
X133706649Y-118742093D01*
X133792809Y-118857187D01*
X133792812Y-118857190D01*
X133907906Y-118943350D01*
X133907913Y-118943354D01*
X134042620Y-118993596D01*
X134042627Y-118993598D01*
X134102155Y-118999999D01*
X134102172Y-119000000D01*
X134750000Y-119000000D01*
X134750000Y-118083012D01*
X134807007Y-118115925D01*
X134934174Y-118150000D01*
X135065826Y-118150000D01*
X135192993Y-118115925D01*
X135250000Y-118083012D01*
X135250000Y-119000000D01*
X135897828Y-119000000D01*
X135897844Y-118999999D01*
X135957372Y-118993598D01*
X135957379Y-118993596D01*
X136092086Y-118943354D01*
X136092093Y-118943350D01*
X136207187Y-118857190D01*
X136207190Y-118857187D01*
X136293350Y-118742093D01*
X136293354Y-118742086D01*
X136343596Y-118607379D01*
X136343598Y-118607372D01*
X136349999Y-118547844D01*
X136350000Y-118547827D01*
X136350000Y-117900000D01*
X135433012Y-117900000D01*
X135465925Y-117842993D01*
X135500000Y-117715826D01*
X135500000Y-117584174D01*
X135465925Y-117457007D01*
X135433012Y-117400000D01*
X136350000Y-117400000D01*
X136350000Y-117221158D01*
X137499500Y-117221158D01*
X137499500Y-117378842D01*
X137502587Y-117394364D01*
X137502778Y-117405504D01*
X137502728Y-117405684D01*
X137502789Y-117406266D01*
X137502835Y-117410508D01*
X137545327Y-117925092D01*
X137548676Y-117953997D01*
X137549500Y-117968267D01*
X137549500Y-120048918D01*
X137549500Y-120048920D01*
X137549499Y-120048920D01*
X137578340Y-120193907D01*
X137578343Y-120193917D01*
X137634914Y-120330492D01*
X137667812Y-120379727D01*
X137667813Y-120379730D01*
X137717046Y-120453414D01*
X137717052Y-120453421D01*
X138878927Y-121615295D01*
X138905807Y-121655523D01*
X138915604Y-121679175D01*
X138915609Y-121679185D01*
X139003210Y-121810288D01*
X139003213Y-121810292D01*
X139114707Y-121921786D01*
X139114711Y-121921789D01*
X139245814Y-122009390D01*
X139245827Y-122009397D01*
X139391498Y-122069735D01*
X139391503Y-122069737D01*
X139546153Y-122100499D01*
X139546156Y-122100500D01*
X139546158Y-122100500D01*
X139703844Y-122100500D01*
X139703845Y-122100499D01*
X139858497Y-122069737D01*
X140004179Y-122009394D01*
X140135289Y-121921789D01*
X140246789Y-121810289D01*
X140334394Y-121679179D01*
X140394737Y-121533497D01*
X140425500Y-121378842D01*
X140425500Y-121221158D01*
X140425500Y-121221155D01*
X140425499Y-121221153D01*
X140394738Y-121066510D01*
X140394737Y-121066503D01*
X140357304Y-120976130D01*
X140334397Y-120920827D01*
X140334390Y-120920814D01*
X140246789Y-120789711D01*
X140246786Y-120789707D01*
X140135292Y-120678213D01*
X140135288Y-120678210D01*
X140004185Y-120590609D01*
X140004175Y-120590604D01*
X139980523Y-120580807D01*
X139940295Y-120553927D01*
X139086819Y-119700451D01*
X139053334Y-119639128D01*
X139050500Y-119612770D01*
X139050500Y-117957331D01*
X139053631Y-117929641D01*
X139054672Y-117925098D01*
X139093323Y-117457007D01*
X139097161Y-117410532D01*
X139097161Y-117410526D01*
X139097164Y-117410494D01*
X139097890Y-117398013D01*
X139100063Y-117381038D01*
X139100500Y-117378841D01*
X139100500Y-117221155D01*
X139100499Y-117221153D01*
X139069738Y-117066510D01*
X139069737Y-117066503D01*
X139027673Y-116964951D01*
X139009397Y-116920827D01*
X139009390Y-116920814D01*
X138921789Y-116789711D01*
X138921786Y-116789707D01*
X138810292Y-116678213D01*
X138810288Y-116678210D01*
X138679185Y-116590609D01*
X138679172Y-116590602D01*
X138533501Y-116530264D01*
X138533489Y-116530261D01*
X138378845Y-116499500D01*
X138378842Y-116499500D01*
X138221158Y-116499500D01*
X138221155Y-116499500D01*
X138066510Y-116530261D01*
X138066498Y-116530264D01*
X137920827Y-116590602D01*
X137920814Y-116590609D01*
X137789711Y-116678210D01*
X137789707Y-116678213D01*
X137678213Y-116789707D01*
X137678210Y-116789711D01*
X137590609Y-116920814D01*
X137590602Y-116920827D01*
X137530264Y-117066498D01*
X137530261Y-117066510D01*
X137499612Y-117220587D01*
X137499612Y-117220594D01*
X137499500Y-117221158D01*
X136350000Y-117221158D01*
X136350000Y-116752172D01*
X136349999Y-116752155D01*
X136343598Y-116692627D01*
X136343596Y-116692620D01*
X136293354Y-116557913D01*
X136293350Y-116557906D01*
X136207190Y-116442812D01*
X136207187Y-116442809D01*
X136092093Y-116356649D01*
X136092086Y-116356645D01*
X135957379Y-116306403D01*
X135957372Y-116306401D01*
X135897844Y-116300000D01*
X135250000Y-116300000D01*
X135250000Y-117216988D01*
X135192993Y-117184075D01*
X135065826Y-117150000D01*
X134934174Y-117150000D01*
X134807007Y-117184075D01*
X134750000Y-117216988D01*
X134750000Y-116300000D01*
X134102155Y-116300000D01*
X134042627Y-116306401D01*
X134042620Y-116306403D01*
X133907913Y-116356645D01*
X133907906Y-116356649D01*
X133792812Y-116442809D01*
X133792809Y-116442812D01*
X133706649Y-116557906D01*
X133706645Y-116557913D01*
X133656403Y-116692620D01*
X133656401Y-116692627D01*
X133650000Y-116752155D01*
X121000000Y-116752155D01*
X121000000Y-96221153D01*
X122399500Y-96221153D01*
X122399500Y-96378846D01*
X122430261Y-96533489D01*
X122430264Y-96533501D01*
X122490602Y-96679172D01*
X122490609Y-96679185D01*
X122578602Y-96810874D01*
X122599480Y-96877551D01*
X122599500Y-96879765D01*
X122599500Y-101563330D01*
X122599499Y-101563348D01*
X122599499Y-101729054D01*
X122599498Y-101729054D01*
X122640423Y-101881785D01*
X122669358Y-101931900D01*
X122669359Y-101931904D01*
X122669360Y-101931904D01*
X122719479Y-102018714D01*
X122719481Y-102018717D01*
X122838349Y-102137585D01*
X122838355Y-102137590D01*
X132965139Y-112264374D01*
X132965149Y-112264385D01*
X132969479Y-112268715D01*
X132969480Y-112268716D01*
X133081284Y-112380520D01*
X133168095Y-112430639D01*
X133168097Y-112430641D01*
X133206151Y-112452611D01*
X133218215Y-112459577D01*
X133370943Y-112500501D01*
X133370946Y-112500501D01*
X133525501Y-112500501D01*
X133592540Y-112520186D01*
X133638295Y-112572990D01*
X133649501Y-112624501D01*
X133649501Y-112797876D01*
X133655908Y-112857483D01*
X133706202Y-112992328D01*
X133706206Y-112992335D01*
X133792452Y-113107544D01*
X133792455Y-113107547D01*
X133907664Y-113193793D01*
X133907671Y-113193797D01*
X134042517Y-113244091D01*
X134042516Y-113244091D01*
X134049444Y-113244835D01*
X134102127Y-113250500D01*
X135897872Y-113250499D01*
X135957483Y-113244091D01*
X136092331Y-113193796D01*
X136207546Y-113107546D01*
X136293796Y-112992331D01*
X136344091Y-112857483D01*
X136350500Y-112797873D01*
X136350499Y-111002128D01*
X136344091Y-110942517D01*
X136293796Y-110807669D01*
X136293795Y-110807668D01*
X136293793Y-110807664D01*
X136207547Y-110692455D01*
X136207544Y-110692452D01*
X136092335Y-110606206D01*
X136092328Y-110606202D01*
X135957482Y-110555908D01*
X135957483Y-110555908D01*
X135897883Y-110549501D01*
X135897881Y-110549500D01*
X135897873Y-110549500D01*
X135897864Y-110549500D01*
X134102129Y-110549500D01*
X134102123Y-110549501D01*
X134042516Y-110555908D01*
X133907671Y-110606202D01*
X133907664Y-110606206D01*
X133792455Y-110692452D01*
X133792452Y-110692455D01*
X133706206Y-110807664D01*
X133706202Y-110807671D01*
X133655908Y-110942516D01*
X133653116Y-110968488D01*
X133626376Y-111033039D01*
X133568983Y-111072885D01*
X133499158Y-111075377D01*
X133442146Y-111042911D01*
X123836819Y-101437584D01*
X123803334Y-101376261D01*
X123800500Y-101349903D01*
X123800500Y-99595119D01*
X123806738Y-99573873D01*
X123808318Y-99551786D01*
X123816390Y-99541002D01*
X123820185Y-99528080D01*
X123836916Y-99513581D01*
X123850189Y-99495852D01*
X123862811Y-99491144D01*
X123872989Y-99482325D01*
X123894904Y-99479173D01*
X123915653Y-99471435D01*
X123928814Y-99474297D01*
X123942147Y-99472381D01*
X123962288Y-99481579D01*
X123983926Y-99486286D01*
X124001652Y-99499556D01*
X124005703Y-99501406D01*
X124012166Y-99507423D01*
X124081284Y-99576541D01*
X124081286Y-99576542D01*
X124088356Y-99583612D01*
X132969118Y-108464374D01*
X132969128Y-108464385D01*
X132973458Y-108468715D01*
X132973459Y-108468716D01*
X133085263Y-108580520D01*
X133172074Y-108630639D01*
X133172076Y-108630641D01*
X133222192Y-108659576D01*
X133222194Y-108659577D01*
X133374921Y-108700500D01*
X133374922Y-108700500D01*
X133525501Y-108700500D01*
X133592540Y-108720185D01*
X133638295Y-108772989D01*
X133649501Y-108824500D01*
X133649501Y-108997876D01*
X133655908Y-109057483D01*
X133706202Y-109192328D01*
X133706206Y-109192335D01*
X133792452Y-109307544D01*
X133792455Y-109307547D01*
X133907664Y-109393793D01*
X133907671Y-109393797D01*
X134042517Y-109444091D01*
X134042516Y-109444091D01*
X134049444Y-109444835D01*
X134102127Y-109450500D01*
X135897872Y-109450499D01*
X135957483Y-109444091D01*
X136092331Y-109393796D01*
X136207546Y-109307546D01*
X136293796Y-109192331D01*
X136344091Y-109057483D01*
X136350500Y-108997873D01*
X136350499Y-107202128D01*
X136344091Y-107142517D01*
X136293796Y-107007669D01*
X136293795Y-107007668D01*
X136293793Y-107007664D01*
X136207547Y-106892455D01*
X136207544Y-106892452D01*
X136092335Y-106806206D01*
X136092328Y-106806202D01*
X135957482Y-106755908D01*
X135957483Y-106755908D01*
X135897883Y-106749501D01*
X135897881Y-106749500D01*
X135897873Y-106749500D01*
X135897864Y-106749500D01*
X134102129Y-106749500D01*
X134102123Y-106749501D01*
X134042516Y-106755908D01*
X133907671Y-106806202D01*
X133907664Y-106806206D01*
X133792455Y-106892452D01*
X133792452Y-106892455D01*
X133706206Y-107007664D01*
X133706202Y-107007671D01*
X133655908Y-107142517D01*
X133653503Y-107164893D01*
X133626765Y-107229444D01*
X133569373Y-107269293D01*
X133499548Y-107271786D01*
X133442533Y-107239319D01*
X127655349Y-101452135D01*
X133649500Y-101452135D01*
X133649500Y-103247870D01*
X133649501Y-103247876D01*
X133655908Y-103307483D01*
X133706202Y-103442328D01*
X133706206Y-103442335D01*
X133792452Y-103557544D01*
X133792455Y-103557547D01*
X133907664Y-103643793D01*
X133907671Y-103643797D01*
X134042517Y-103694091D01*
X134042516Y-103694091D01*
X134049444Y-103694835D01*
X134102127Y-103700500D01*
X135897872Y-103700499D01*
X135957483Y-103694091D01*
X136092331Y-103643796D01*
X136207546Y-103557546D01*
X136293796Y-103442331D01*
X136344091Y-103307483D01*
X136350500Y-103247873D01*
X136350499Y-101452128D01*
X136344091Y-101392517D01*
X136293796Y-101257669D01*
X136293795Y-101257668D01*
X136293793Y-101257664D01*
X136207547Y-101142455D01*
X136207544Y-101142452D01*
X136092335Y-101056206D01*
X136092328Y-101056202D01*
X135957482Y-101005908D01*
X135957483Y-101005908D01*
X135897883Y-100999501D01*
X135897881Y-100999500D01*
X135897873Y-100999500D01*
X135897864Y-100999500D01*
X134102129Y-100999500D01*
X134102123Y-100999501D01*
X134042516Y-101005908D01*
X133907671Y-101056202D01*
X133907664Y-101056206D01*
X133792455Y-101142452D01*
X133792452Y-101142455D01*
X133706206Y-101257664D01*
X133706202Y-101257671D01*
X133655908Y-101392517D01*
X133649501Y-101452116D01*
X133649501Y-101452123D01*
X133649500Y-101452135D01*
X127655349Y-101452135D01*
X125366139Y-99162925D01*
X125356042Y-99144435D01*
X125341962Y-99128759D01*
X125339632Y-99114382D01*
X125332654Y-99101602D01*
X125334156Y-99080587D01*
X125330787Y-99059789D01*
X125336599Y-99046437D01*
X125337638Y-99031910D01*
X125350265Y-99015041D01*
X125358674Y-98995726D01*
X125377148Y-98979131D01*
X125379510Y-98975977D01*
X125384914Y-98972152D01*
X125417352Y-98950478D01*
X125460877Y-98921397D01*
X125527554Y-98900520D01*
X125529766Y-98900500D01*
X126570234Y-98900500D01*
X126637273Y-98920185D01*
X126639125Y-98921398D01*
X126770814Y-99009390D01*
X126770827Y-99009397D01*
X126860251Y-99046437D01*
X126916503Y-99069737D01*
X127071153Y-99100499D01*
X127071156Y-99100500D01*
X127071158Y-99100500D01*
X127228844Y-99100500D01*
X127228845Y-99100499D01*
X127383497Y-99069737D01*
X127529179Y-99009394D01*
X127660289Y-98921789D01*
X127771789Y-98810289D01*
X127859394Y-98679179D01*
X127919737Y-98533497D01*
X127950500Y-98378842D01*
X127950500Y-98221158D01*
X127950500Y-98221155D01*
X127950499Y-98221153D01*
X127933372Y-98135050D01*
X127919737Y-98066503D01*
X127896376Y-98010104D01*
X127859397Y-97920827D01*
X127859390Y-97920814D01*
X127771789Y-97789711D01*
X127771786Y-97789707D01*
X127660292Y-97678213D01*
X127660288Y-97678210D01*
X127529185Y-97590609D01*
X127529172Y-97590602D01*
X127383501Y-97530264D01*
X127383489Y-97530261D01*
X127228845Y-97499500D01*
X127228842Y-97499500D01*
X127071158Y-97499500D01*
X127071155Y-97499500D01*
X126916510Y-97530261D01*
X126916498Y-97530264D01*
X126770827Y-97590602D01*
X126770814Y-97590609D01*
X126639125Y-97678602D01*
X126572447Y-97699480D01*
X126570234Y-97699500D01*
X125529766Y-97699500D01*
X125462727Y-97679815D01*
X125460875Y-97678602D01*
X125329185Y-97590609D01*
X125329172Y-97590602D01*
X125183501Y-97530264D01*
X125183489Y-97530261D01*
X125150309Y-97523661D01*
X125088398Y-97491276D01*
X125053824Y-97430561D01*
X125050500Y-97402044D01*
X125050500Y-96879765D01*
X125070185Y-96812726D01*
X125071398Y-96810874D01*
X125159390Y-96679185D01*
X125159390Y-96679184D01*
X125159394Y-96679179D01*
X125219737Y-96533497D01*
X125250500Y-96378842D01*
X125250500Y-96221158D01*
X125250500Y-96221155D01*
X125250499Y-96221153D01*
X125219738Y-96066510D01*
X125219737Y-96066503D01*
X125219735Y-96066498D01*
X125159397Y-95920827D01*
X125159390Y-95920814D01*
X125071789Y-95789711D01*
X125071786Y-95789707D01*
X124960292Y-95678213D01*
X124960288Y-95678210D01*
X124829185Y-95590609D01*
X124829172Y-95590602D01*
X124683501Y-95530264D01*
X124683489Y-95530261D01*
X124528845Y-95499500D01*
X124528842Y-95499500D01*
X124371158Y-95499500D01*
X124371155Y-95499500D01*
X124216510Y-95530261D01*
X124216498Y-95530264D01*
X124070827Y-95590602D01*
X124070814Y-95590609D01*
X123939711Y-95678210D01*
X123939707Y-95678213D01*
X123912681Y-95705240D01*
X123851358Y-95738725D01*
X123781666Y-95733741D01*
X123737319Y-95705240D01*
X123710292Y-95678213D01*
X123710288Y-95678210D01*
X123579185Y-95590609D01*
X123579172Y-95590602D01*
X123433501Y-95530264D01*
X123433489Y-95530261D01*
X123278845Y-95499500D01*
X123278842Y-95499500D01*
X123121158Y-95499500D01*
X123121155Y-95499500D01*
X122966510Y-95530261D01*
X122966498Y-95530264D01*
X122820827Y-95590602D01*
X122820814Y-95590609D01*
X122689711Y-95678210D01*
X122689707Y-95678213D01*
X122578213Y-95789707D01*
X122578210Y-95789711D01*
X122490609Y-95920814D01*
X122490602Y-95920827D01*
X122430264Y-96066498D01*
X122430261Y-96066510D01*
X122399500Y-96221153D01*
X121000000Y-96221153D01*
X121000000Y-90546153D01*
X138999500Y-90546153D01*
X138999500Y-90703846D01*
X139030261Y-90858489D01*
X139030264Y-90858501D01*
X139090602Y-91004172D01*
X139090609Y-91004185D01*
X139178210Y-91135288D01*
X139178213Y-91135292D01*
X139289707Y-91246786D01*
X139289711Y-91246789D01*
X139420814Y-91334390D01*
X139420827Y-91334397D01*
X139534751Y-91381585D01*
X139566503Y-91394737D01*
X139721153Y-91425499D01*
X139721156Y-91425500D01*
X139721158Y-91425500D01*
X139749903Y-91425500D01*
X139816942Y-91445185D01*
X139837584Y-91461819D01*
X141386165Y-93010400D01*
X141419650Y-93071723D01*
X141414666Y-93141415D01*
X141401586Y-93166972D01*
X141365609Y-93220814D01*
X141365602Y-93220827D01*
X141305264Y-93366498D01*
X141305261Y-93366510D01*
X141274500Y-93521153D01*
X141274500Y-93678846D01*
X141305261Y-93833489D01*
X141305264Y-93833501D01*
X141365602Y-93979172D01*
X141365609Y-93979185D01*
X141453210Y-94110288D01*
X141453213Y-94110292D01*
X141564707Y-94221786D01*
X141564711Y-94221789D01*
X141695814Y-94309390D01*
X141695827Y-94309397D01*
X141841498Y-94369735D01*
X141841503Y-94369737D01*
X141996153Y-94400499D01*
X141996156Y-94400500D01*
X141996158Y-94400500D01*
X142153844Y-94400500D01*
X142153845Y-94400499D01*
X142308497Y-94369737D01*
X142454179Y-94309394D01*
X142585289Y-94221789D01*
X142696789Y-94110289D01*
X142784394Y-93979179D01*
X142844737Y-93833497D01*
X142875500Y-93678842D01*
X142875500Y-93521158D01*
X142875500Y-93521155D01*
X142875499Y-93521153D01*
X142844738Y-93366510D01*
X142844737Y-93366503D01*
X142844735Y-93366498D01*
X142784397Y-93220827D01*
X142784390Y-93220814D01*
X142696398Y-93089125D01*
X142675520Y-93022447D01*
X142675500Y-93020234D01*
X142675500Y-92770945D01*
X142675500Y-92770943D01*
X142634577Y-92618215D01*
X142605639Y-92568095D01*
X142555520Y-92481284D01*
X142443716Y-92369480D01*
X142443715Y-92369479D01*
X142439385Y-92365149D01*
X142439374Y-92365139D01*
X140622157Y-90547922D01*
X140588672Y-90486599D01*
X140588250Y-90484575D01*
X140569737Y-90391503D01*
X140539077Y-90317482D01*
X140509397Y-90245827D01*
X140509390Y-90245814D01*
X140421789Y-90114711D01*
X140421786Y-90114707D01*
X140310292Y-90003213D01*
X140310288Y-90003210D01*
X140179185Y-89915609D01*
X140179172Y-89915602D01*
X140033501Y-89855264D01*
X140033489Y-89855261D01*
X139878845Y-89824500D01*
X139878842Y-89824500D01*
X139721158Y-89824500D01*
X139721155Y-89824500D01*
X139566510Y-89855261D01*
X139566498Y-89855264D01*
X139420827Y-89915602D01*
X139420814Y-89915609D01*
X139289711Y-90003210D01*
X139289707Y-90003213D01*
X139178213Y-90114707D01*
X139178210Y-90114711D01*
X139090609Y-90245814D01*
X139090602Y-90245827D01*
X139030264Y-90391498D01*
X139030261Y-90391510D01*
X138999500Y-90546153D01*
X121000000Y-90546153D01*
X121000000Y-88462135D01*
X144199500Y-88462135D01*
X144199500Y-90257870D01*
X144199501Y-90257876D01*
X144205908Y-90317483D01*
X144256202Y-90452328D01*
X144256206Y-90452335D01*
X144342452Y-90567544D01*
X144342455Y-90567547D01*
X144457664Y-90653793D01*
X144457671Y-90653797D01*
X144589082Y-90702810D01*
X144645016Y-90744681D01*
X144669433Y-90810145D01*
X144654582Y-90878418D01*
X144633431Y-90906673D01*
X144519889Y-91020215D01*
X144394951Y-91192179D01*
X144298444Y-91381585D01*
X144232753Y-91583760D01*
X144199500Y-91793713D01*
X144199500Y-92006287D01*
X144232754Y-92216243D01*
X144282543Y-92369478D01*
X144298444Y-92418414D01*
X144394951Y-92607820D01*
X144519890Y-92779786D01*
X144670213Y-92930109D01*
X144842182Y-93055050D01*
X144850946Y-93059516D01*
X144901742Y-93107491D01*
X144918536Y-93175312D01*
X144895998Y-93241447D01*
X144850946Y-93280484D01*
X144842182Y-93284949D01*
X144670213Y-93409890D01*
X144519890Y-93560213D01*
X144394951Y-93732179D01*
X144298444Y-93921585D01*
X144232753Y-94123760D01*
X144199500Y-94333713D01*
X144199500Y-94546286D01*
X144232753Y-94756239D01*
X144298444Y-94958414D01*
X144394951Y-95147820D01*
X144519890Y-95319786D01*
X144670213Y-95470109D01*
X144842182Y-95595050D01*
X144850946Y-95599516D01*
X144901742Y-95647491D01*
X144918536Y-95715312D01*
X144895998Y-95781447D01*
X144850946Y-95820484D01*
X144842182Y-95824949D01*
X144670213Y-95949890D01*
X144519890Y-96100213D01*
X144394951Y-96272179D01*
X144298444Y-96461585D01*
X144232753Y-96663760D01*
X144199500Y-96873713D01*
X144199500Y-97086287D01*
X144232754Y-97296243D01*
X144296124Y-97491276D01*
X144298444Y-97498414D01*
X144394951Y-97687820D01*
X144519890Y-97859786D01*
X144670213Y-98010109D01*
X144842182Y-98135050D01*
X144850946Y-98139516D01*
X144901742Y-98187491D01*
X144918536Y-98255312D01*
X144895998Y-98321447D01*
X144850946Y-98360484D01*
X144842182Y-98364949D01*
X144670213Y-98489890D01*
X144519890Y-98640213D01*
X144394951Y-98812179D01*
X144298444Y-99001585D01*
X144232753Y-99203760D01*
X144199500Y-99413713D01*
X144199500Y-99626286D01*
X144232753Y-99836239D01*
X144298444Y-100038414D01*
X144394951Y-100227820D01*
X144519890Y-100399786D01*
X144670213Y-100550109D01*
X144842179Y-100675048D01*
X144842181Y-100675049D01*
X144842184Y-100675051D01*
X145031588Y-100771557D01*
X145233757Y-100837246D01*
X145443713Y-100870500D01*
X145443714Y-100870500D01*
X145656286Y-100870500D01*
X145656287Y-100870500D01*
X145866243Y-100837246D01*
X146068412Y-100771557D01*
X146257816Y-100675051D01*
X146279789Y-100659086D01*
X146429786Y-100550109D01*
X146429788Y-100550106D01*
X146429792Y-100550104D01*
X146580104Y-100399792D01*
X146580106Y-100399788D01*
X146580109Y-100399786D01*
X146705048Y-100227820D01*
X146705047Y-100227820D01*
X146705051Y-100227816D01*
X146801557Y-100038412D01*
X146867246Y-99836243D01*
X146900500Y-99626287D01*
X146900500Y-99413713D01*
X146867246Y-99203757D01*
X146801557Y-99001588D01*
X146705051Y-98812184D01*
X146705049Y-98812181D01*
X146705048Y-98812179D01*
X146580109Y-98640213D01*
X146429786Y-98489890D01*
X146257820Y-98364951D01*
X146257115Y-98364591D01*
X146249054Y-98360485D01*
X146198259Y-98312512D01*
X146181463Y-98244692D01*
X146203999Y-98178556D01*
X146249054Y-98139515D01*
X146257816Y-98135051D01*
X146279789Y-98119086D01*
X146429786Y-98010109D01*
X146429788Y-98010106D01*
X146429792Y-98010104D01*
X146580104Y-97859792D01*
X146580106Y-97859788D01*
X146580109Y-97859786D01*
X146705048Y-97687820D01*
X146705047Y-97687820D01*
X146705051Y-97687816D01*
X146801557Y-97498412D01*
X146867246Y-97296243D01*
X146900500Y-97086287D01*
X146900500Y-96873713D01*
X146867246Y-96663757D01*
X146801557Y-96461588D01*
X146705051Y-96272184D01*
X146705049Y-96272181D01*
X146705048Y-96272179D01*
X146580109Y-96100213D01*
X146429786Y-95949890D01*
X146257820Y-95824951D01*
X146257115Y-95824591D01*
X146249054Y-95820485D01*
X146198259Y-95772512D01*
X146181463Y-95704692D01*
X146203999Y-95638556D01*
X146249054Y-95599515D01*
X146257816Y-95595051D01*
X146279789Y-95579086D01*
X146429786Y-95470109D01*
X146429788Y-95470106D01*
X146429792Y-95470104D01*
X146580104Y-95319792D01*
X146580106Y-95319788D01*
X146580109Y-95319786D01*
X146705048Y-95147820D01*
X146705047Y-95147820D01*
X146705051Y-95147816D01*
X146801557Y-94958412D01*
X146867246Y-94756243D01*
X146900500Y-94546287D01*
X146900500Y-94333713D01*
X146867246Y-94123757D01*
X146801557Y-93921588D01*
X146705051Y-93732184D01*
X146705049Y-93732181D01*
X146705048Y-93732179D01*
X146580109Y-93560213D01*
X146429786Y-93409890D01*
X146257820Y-93284951D01*
X146257115Y-93284591D01*
X146249054Y-93280485D01*
X146198259Y-93232512D01*
X146181463Y-93164692D01*
X146203999Y-93098556D01*
X146249054Y-93059515D01*
X146257816Y-93055051D01*
X146319273Y-93010400D01*
X146429786Y-92930109D01*
X146429788Y-92930106D01*
X146429792Y-92930104D01*
X146580104Y-92779792D01*
X146580106Y-92779788D01*
X146580109Y-92779786D01*
X146705048Y-92607820D01*
X146705047Y-92607820D01*
X146705051Y-92607816D01*
X146801557Y-92418412D01*
X146867246Y-92216243D01*
X146900500Y-92006287D01*
X146900500Y-91793713D01*
X146867246Y-91583757D01*
X146801557Y-91381588D01*
X146705051Y-91192184D01*
X146705049Y-91192181D01*
X146705048Y-91192179D01*
X146580109Y-91020213D01*
X146466569Y-90906673D01*
X146433084Y-90845350D01*
X146438068Y-90775658D01*
X146479940Y-90719725D01*
X146510915Y-90702810D01*
X146642331Y-90653796D01*
X146757546Y-90567546D01*
X146843796Y-90452331D01*
X146894091Y-90317483D01*
X146900500Y-90257873D01*
X146900499Y-88462128D01*
X146894091Y-88402517D01*
X146843796Y-88267669D01*
X146843795Y-88267668D01*
X146843793Y-88267664D01*
X146757547Y-88152455D01*
X146757544Y-88152452D01*
X146642335Y-88066206D01*
X146642328Y-88066202D01*
X146507482Y-88015908D01*
X146507483Y-88015908D01*
X146447883Y-88009501D01*
X146447881Y-88009500D01*
X146447873Y-88009500D01*
X146447864Y-88009500D01*
X144652129Y-88009500D01*
X144652123Y-88009501D01*
X144592516Y-88015908D01*
X144457671Y-88066202D01*
X144457664Y-88066206D01*
X144342455Y-88152452D01*
X144342452Y-88152455D01*
X144256206Y-88267664D01*
X144256202Y-88267671D01*
X144205908Y-88402517D01*
X144199501Y-88462116D01*
X144199501Y-88462123D01*
X144199500Y-88462135D01*
X121000000Y-88462135D01*
X121000000Y-85902135D01*
X131459500Y-85902135D01*
X131459500Y-87697870D01*
X131459501Y-87697876D01*
X131465908Y-87757483D01*
X131516202Y-87892328D01*
X131516206Y-87892335D01*
X131602452Y-88007544D01*
X131602455Y-88007547D01*
X131717664Y-88093793D01*
X131717671Y-88093797D01*
X131852517Y-88144091D01*
X131852516Y-88144091D01*
X131859444Y-88144835D01*
X131912127Y-88150500D01*
X133707872Y-88150499D01*
X133767483Y-88144091D01*
X133902331Y-88093796D01*
X134017546Y-88007546D01*
X134103796Y-87892331D01*
X134154091Y-87757483D01*
X134160500Y-87697873D01*
X134160499Y-87673979D01*
X134163330Y-87660963D01*
X134173940Y-87641525D01*
X134180179Y-87620275D01*
X134196803Y-87599643D01*
X134196808Y-87599636D01*
X134196811Y-87599634D01*
X134196818Y-87599626D01*
X134867037Y-86929408D01*
X134884075Y-86992993D01*
X134949901Y-87107007D01*
X135042993Y-87200099D01*
X135157007Y-87265925D01*
X135220590Y-87282962D01*
X134588282Y-87915269D01*
X134588282Y-87915270D01*
X134642449Y-87954624D01*
X134831782Y-88051095D01*
X135033870Y-88116757D01*
X135243754Y-88150000D01*
X135456246Y-88150000D01*
X135666127Y-88116757D01*
X135666130Y-88116757D01*
X135868217Y-88051095D01*
X136057554Y-87954622D01*
X136111716Y-87915270D01*
X136111717Y-87915270D01*
X135479408Y-87282962D01*
X135542993Y-87265925D01*
X135657007Y-87200099D01*
X135750099Y-87107007D01*
X135815925Y-86992993D01*
X135832962Y-86929408D01*
X136465270Y-87561717D01*
X136465270Y-87561716D01*
X136504622Y-87507555D01*
X136509232Y-87498507D01*
X136557205Y-87447709D01*
X136625025Y-87430912D01*
X136691161Y-87453447D01*
X136730204Y-87498504D01*
X136734949Y-87507817D01*
X136859890Y-87679786D01*
X137010213Y-87830109D01*
X137182179Y-87955048D01*
X137182181Y-87955049D01*
X137182184Y-87955051D01*
X137371588Y-88051557D01*
X137573757Y-88117246D01*
X137783713Y-88150500D01*
X137783714Y-88150500D01*
X137996286Y-88150500D01*
X137996287Y-88150500D01*
X138206243Y-88117246D01*
X138408412Y-88051557D01*
X138597816Y-87955051D01*
X138684138Y-87892335D01*
X138769786Y-87830109D01*
X138769788Y-87830106D01*
X138769792Y-87830104D01*
X138920104Y-87679792D01*
X138920106Y-87679788D01*
X138920109Y-87679786D01*
X139045048Y-87507820D01*
X139045050Y-87507817D01*
X139045051Y-87507816D01*
X139141557Y-87318412D01*
X139207246Y-87116243D01*
X139240500Y-86906287D01*
X139240500Y-86693713D01*
X139207246Y-86483757D01*
X139141557Y-86281588D01*
X139045051Y-86092184D01*
X139045049Y-86092181D01*
X139045048Y-86092179D01*
X138920109Y-85920213D01*
X138769786Y-85769890D01*
X138597820Y-85644951D01*
X138408414Y-85548444D01*
X138408413Y-85548443D01*
X138408412Y-85548443D01*
X138206243Y-85482754D01*
X138206241Y-85482753D01*
X138206240Y-85482753D01*
X138044957Y-85457208D01*
X137996287Y-85449500D01*
X137783713Y-85449500D01*
X137735042Y-85457208D01*
X137573760Y-85482753D01*
X137371585Y-85548444D01*
X137182179Y-85644951D01*
X137010213Y-85769890D01*
X136859890Y-85920213D01*
X136734949Y-86092182D01*
X136730202Y-86101499D01*
X136682227Y-86152293D01*
X136614405Y-86169087D01*
X136548271Y-86146548D01*
X136509234Y-86101495D01*
X136504626Y-86092452D01*
X136465270Y-86038282D01*
X136465269Y-86038282D01*
X135832962Y-86670590D01*
X135815925Y-86607007D01*
X135750099Y-86492993D01*
X135657007Y-86399901D01*
X135542993Y-86334075D01*
X135479409Y-86317037D01*
X136111716Y-85684728D01*
X136057550Y-85645375D01*
X135868217Y-85548904D01*
X135666129Y-85483242D01*
X135456246Y-85450000D01*
X135243754Y-85450000D01*
X135033872Y-85483242D01*
X135033869Y-85483242D01*
X134831782Y-85548904D01*
X134642439Y-85645380D01*
X134588282Y-85684727D01*
X134588282Y-85684728D01*
X135220591Y-86317037D01*
X135157007Y-86334075D01*
X135042993Y-86399901D01*
X134949901Y-86492993D01*
X134884075Y-86607007D01*
X134867037Y-86670591D01*
X134196818Y-86000372D01*
X134163333Y-85939049D01*
X134163330Y-85939036D01*
X134160499Y-85926015D01*
X134160499Y-85902128D01*
X134154091Y-85842517D01*
X134125926Y-85767002D01*
X134103798Y-85707673D01*
X134103793Y-85707664D01*
X134017547Y-85592455D01*
X134017544Y-85592452D01*
X133902335Y-85506206D01*
X133902328Y-85506202D01*
X133767482Y-85455908D01*
X133767483Y-85455908D01*
X133707883Y-85449501D01*
X133707881Y-85449500D01*
X133707873Y-85449500D01*
X133707864Y-85449500D01*
X131912129Y-85449500D01*
X131912123Y-85449501D01*
X131852516Y-85455908D01*
X131717671Y-85506202D01*
X131717664Y-85506206D01*
X131602455Y-85592452D01*
X131602452Y-85592455D01*
X131516206Y-85707664D01*
X131516202Y-85707671D01*
X131465908Y-85842517D01*
X131459501Y-85902116D01*
X131459500Y-85902135D01*
X121000000Y-85902135D01*
X121000000Y-82871907D01*
X121372500Y-82871907D01*
X121372500Y-83128092D01*
X121402960Y-83320404D01*
X121412574Y-83381107D01*
X121491736Y-83624743D01*
X121608037Y-83852996D01*
X121758612Y-84060245D01*
X121939755Y-84241388D01*
X122147004Y-84391963D01*
X122375257Y-84508264D01*
X122618893Y-84587426D01*
X122749249Y-84608072D01*
X122871908Y-84627500D01*
X122871913Y-84627500D01*
X123128092Y-84627500D01*
X123239908Y-84609789D01*
X123381107Y-84587426D01*
X123624743Y-84508264D01*
X123852996Y-84391963D01*
X124060245Y-84241388D01*
X124241388Y-84060245D01*
X124391963Y-83852996D01*
X124508264Y-83624743D01*
X124587426Y-83381107D01*
X124609789Y-83239908D01*
X124627500Y-83128092D01*
X124627500Y-82871907D01*
X145372500Y-82871907D01*
X145372500Y-83128092D01*
X145402960Y-83320404D01*
X145412574Y-83381107D01*
X145491736Y-83624743D01*
X145608037Y-83852996D01*
X145758612Y-84060245D01*
X145939755Y-84241388D01*
X146147004Y-84391963D01*
X146375257Y-84508264D01*
X146618893Y-84587426D01*
X146749249Y-84608072D01*
X146871908Y-84627500D01*
X146871913Y-84627500D01*
X147128092Y-84627500D01*
X147239908Y-84609789D01*
X147381107Y-84587426D01*
X147624743Y-84508264D01*
X147852996Y-84391963D01*
X148060245Y-84241388D01*
X148241388Y-84060245D01*
X148391963Y-83852996D01*
X148508264Y-83624743D01*
X148587426Y-83381107D01*
X148609789Y-83239908D01*
X148627500Y-83128092D01*
X148627500Y-82871907D01*
X148597040Y-82679596D01*
X148587426Y-82618893D01*
X148508264Y-82375257D01*
X148391963Y-82147004D01*
X148241388Y-81939755D01*
X148060245Y-81758612D01*
X147852996Y-81608037D01*
X147624743Y-81491736D01*
X147381107Y-81412574D01*
X147128092Y-81372500D01*
X147128087Y-81372500D01*
X146871913Y-81372500D01*
X146871908Y-81372500D01*
X146618892Y-81412574D01*
X146375254Y-81491737D01*
X146147003Y-81608037D01*
X145939752Y-81758614D01*
X145758614Y-81939752D01*
X145608037Y-82147003D01*
X145491737Y-82375254D01*
X145412574Y-82618892D01*
X145372500Y-82871907D01*
X124627500Y-82871907D01*
X124597040Y-82679596D01*
X124587426Y-82618893D01*
X124508264Y-82375257D01*
X124391963Y-82147004D01*
X124241388Y-81939755D01*
X124060245Y-81758612D01*
X123852996Y-81608037D01*
X123624743Y-81491736D01*
X123381107Y-81412574D01*
X123128092Y-81372500D01*
X123128087Y-81372500D01*
X122871913Y-81372500D01*
X122871908Y-81372500D01*
X122618892Y-81412574D01*
X122375254Y-81491737D01*
X122147003Y-81608037D01*
X121939752Y-81758614D01*
X121758614Y-81939752D01*
X121608037Y-82147003D01*
X121491737Y-82375254D01*
X121412574Y-82618892D01*
X121372500Y-82871907D01*
X121000000Y-82871907D01*
X121000000Y-81098352D01*
X121019685Y-81031313D01*
X121072489Y-80985558D01*
X121124000Y-80974352D01*
X148876000Y-80974352D01*
X148943039Y-80994037D01*
G37*
%TD.AperFunction*%
%TD*%
%TA.AperFunction,Conductor*%
%TO.N,+VBUSF*%
G36*
X138584039Y-117356464D02*
G01*
X138591468Y-117361464D01*
X138593379Y-117368895D01*
X138550887Y-117883499D01*
X138546791Y-117891462D01*
X138539227Y-117894236D01*
X138060773Y-117894236D01*
X138052500Y-117890809D01*
X138049113Y-117883499D01*
X138006620Y-117368895D01*
X138009354Y-117360368D01*
X138015959Y-117356464D01*
X138297682Y-117299469D01*
X138302318Y-117299469D01*
X138584039Y-117356464D01*
G37*
%TD.AperFunction*%
%TD*%
M02*
