%TF.GenerationSoftware,KiCad,Pcbnew,9.0.5*%
%TF.CreationDate,2025-12-05T12:21:23-05:00*%
%TF.ProjectId,SplitFlapDriverATtiny1616V2,53706c69-7446-46c6-9170-447269766572,rev?*%
%TF.SameCoordinates,Original*%
%TF.FileFunction,Legend,Top*%
%TF.FilePolarity,Positive*%
%FSLAX46Y46*%
G04 Gerber Fmt 4.6, Leading zero omitted, Abs format (unit mm)*
G04 Created by KiCad (PCBNEW 9.0.5) date 2025-12-05 12:21:23*
%MOMM*%
%LPD*%
G01*
G04 APERTURE LIST*
%ADD10C,0.100000*%
%ADD11C,0.120000*%
G04 APERTURE END LIST*
D10*
X124958533Y-116575312D02*
X124958533Y-117565789D01*
X124577580Y-117070550D02*
X125339485Y-117070550D01*
X125577580Y-117999122D02*
X124577580Y-118432455D01*
X124577580Y-118432455D02*
X125577580Y-118865789D01*
X125529961Y-120970551D02*
X125577580Y-120846741D01*
X125577580Y-120846741D02*
X125577580Y-120661027D01*
X125577580Y-120661027D02*
X125529961Y-120475313D01*
X125529961Y-120475313D02*
X125434723Y-120351503D01*
X125434723Y-120351503D02*
X125339485Y-120289598D01*
X125339485Y-120289598D02*
X125149009Y-120227694D01*
X125149009Y-120227694D02*
X125006152Y-120227694D01*
X125006152Y-120227694D02*
X124815676Y-120289598D01*
X124815676Y-120289598D02*
X124720438Y-120351503D01*
X124720438Y-120351503D02*
X124625200Y-120475313D01*
X124625200Y-120475313D02*
X124577580Y-120661027D01*
X124577580Y-120661027D02*
X124577580Y-120784836D01*
X124577580Y-120784836D02*
X124625200Y-120970551D01*
X124625200Y-120970551D02*
X124672819Y-121032455D01*
X124672819Y-121032455D02*
X125006152Y-121032455D01*
X125006152Y-121032455D02*
X125006152Y-120784836D01*
X124577580Y-122580074D02*
X125577580Y-122580074D01*
X124577580Y-123199122D02*
X125577580Y-123199122D01*
X125577580Y-123199122D02*
X124577580Y-123941979D01*
X124577580Y-123941979D02*
X125577580Y-123941979D01*
X128902580Y-116528884D02*
X129902580Y-116528884D01*
X129426390Y-116528884D02*
X129426390Y-117100312D01*
X128902580Y-117100312D02*
X129902580Y-117100312D01*
X128902580Y-118005074D02*
X129426390Y-118005074D01*
X129426390Y-118005074D02*
X129521628Y-117957455D01*
X129521628Y-117957455D02*
X129569247Y-117862217D01*
X129569247Y-117862217D02*
X129569247Y-117671741D01*
X129569247Y-117671741D02*
X129521628Y-117576503D01*
X128950200Y-118005074D02*
X128902580Y-117909836D01*
X128902580Y-117909836D02*
X128902580Y-117671741D01*
X128902580Y-117671741D02*
X128950200Y-117576503D01*
X128950200Y-117576503D02*
X129045438Y-117528884D01*
X129045438Y-117528884D02*
X129140676Y-117528884D01*
X129140676Y-117528884D02*
X129235914Y-117576503D01*
X129235914Y-117576503D02*
X129283533Y-117671741D01*
X129283533Y-117671741D02*
X129283533Y-117909836D01*
X129283533Y-117909836D02*
X129331152Y-118005074D01*
X128902580Y-118624122D02*
X128950200Y-118528884D01*
X128950200Y-118528884D02*
X129045438Y-118481265D01*
X129045438Y-118481265D02*
X129902580Y-118481265D01*
X128902580Y-119147932D02*
X128950200Y-119052694D01*
X128950200Y-119052694D02*
X129045438Y-119005075D01*
X129045438Y-119005075D02*
X129902580Y-119005075D01*
X128950200Y-120243171D02*
X128902580Y-120386028D01*
X128902580Y-120386028D02*
X128902580Y-120624123D01*
X128902580Y-120624123D02*
X128950200Y-120719361D01*
X128950200Y-120719361D02*
X128997819Y-120766980D01*
X128997819Y-120766980D02*
X129093057Y-120814599D01*
X129093057Y-120814599D02*
X129188295Y-120814599D01*
X129188295Y-120814599D02*
X129283533Y-120766980D01*
X129283533Y-120766980D02*
X129331152Y-120719361D01*
X129331152Y-120719361D02*
X129378771Y-120624123D01*
X129378771Y-120624123D02*
X129426390Y-120433647D01*
X129426390Y-120433647D02*
X129474009Y-120338409D01*
X129474009Y-120338409D02*
X129521628Y-120290790D01*
X129521628Y-120290790D02*
X129616866Y-120243171D01*
X129616866Y-120243171D02*
X129712104Y-120243171D01*
X129712104Y-120243171D02*
X129807342Y-120290790D01*
X129807342Y-120290790D02*
X129854961Y-120338409D01*
X129854961Y-120338409D02*
X129902580Y-120433647D01*
X129902580Y-120433647D02*
X129902580Y-120671742D01*
X129902580Y-120671742D02*
X129854961Y-120814599D01*
X128950200Y-121624123D02*
X128902580Y-121528885D01*
X128902580Y-121528885D02*
X128902580Y-121338409D01*
X128902580Y-121338409D02*
X128950200Y-121243171D01*
X128950200Y-121243171D02*
X129045438Y-121195552D01*
X129045438Y-121195552D02*
X129426390Y-121195552D01*
X129426390Y-121195552D02*
X129521628Y-121243171D01*
X129521628Y-121243171D02*
X129569247Y-121338409D01*
X129569247Y-121338409D02*
X129569247Y-121528885D01*
X129569247Y-121528885D02*
X129521628Y-121624123D01*
X129521628Y-121624123D02*
X129426390Y-121671742D01*
X129426390Y-121671742D02*
X129331152Y-121671742D01*
X129331152Y-121671742D02*
X129235914Y-121195552D01*
X129569247Y-122100314D02*
X128902580Y-122100314D01*
X129474009Y-122100314D02*
X129521628Y-122147933D01*
X129521628Y-122147933D02*
X129569247Y-122243171D01*
X129569247Y-122243171D02*
X129569247Y-122386028D01*
X129569247Y-122386028D02*
X129521628Y-122481266D01*
X129521628Y-122481266D02*
X129426390Y-122528885D01*
X129426390Y-122528885D02*
X128902580Y-122528885D01*
X128950200Y-122957457D02*
X128902580Y-123052695D01*
X128902580Y-123052695D02*
X128902580Y-123243171D01*
X128902580Y-123243171D02*
X128950200Y-123338409D01*
X128950200Y-123338409D02*
X129045438Y-123386028D01*
X129045438Y-123386028D02*
X129093057Y-123386028D01*
X129093057Y-123386028D02*
X129188295Y-123338409D01*
X129188295Y-123338409D02*
X129235914Y-123243171D01*
X129235914Y-123243171D02*
X129235914Y-123100314D01*
X129235914Y-123100314D02*
X129283533Y-123005076D01*
X129283533Y-123005076D02*
X129378771Y-122957457D01*
X129378771Y-122957457D02*
X129426390Y-122957457D01*
X129426390Y-122957457D02*
X129521628Y-123005076D01*
X129521628Y-123005076D02*
X129569247Y-123100314D01*
X129569247Y-123100314D02*
X129569247Y-123243171D01*
X129569247Y-123243171D02*
X129521628Y-123338409D01*
X128902580Y-123957457D02*
X128950200Y-123862219D01*
X128950200Y-123862219D02*
X128997819Y-123814600D01*
X128997819Y-123814600D02*
X129093057Y-123766981D01*
X129093057Y-123766981D02*
X129378771Y-123766981D01*
X129378771Y-123766981D02*
X129474009Y-123814600D01*
X129474009Y-123814600D02*
X129521628Y-123862219D01*
X129521628Y-123862219D02*
X129569247Y-123957457D01*
X129569247Y-123957457D02*
X129569247Y-124100314D01*
X129569247Y-124100314D02*
X129521628Y-124195552D01*
X129521628Y-124195552D02*
X129474009Y-124243171D01*
X129474009Y-124243171D02*
X129378771Y-124290790D01*
X129378771Y-124290790D02*
X129093057Y-124290790D01*
X129093057Y-124290790D02*
X128997819Y-124243171D01*
X128997819Y-124243171D02*
X128950200Y-124195552D01*
X128950200Y-124195552D02*
X128902580Y-124100314D01*
X128902580Y-124100314D02*
X128902580Y-123957457D01*
X128902580Y-124719362D02*
X129569247Y-124719362D01*
X129378771Y-124719362D02*
X129474009Y-124766981D01*
X129474009Y-124766981D02*
X129521628Y-124814600D01*
X129521628Y-124814600D02*
X129569247Y-124909838D01*
X129569247Y-124909838D02*
X129569247Y-125005076D01*
X130128884Y-84911466D02*
X130890789Y-84911466D01*
X130509836Y-85292419D02*
X130509836Y-84530514D01*
X131271741Y-84292419D02*
X131890788Y-84292419D01*
X131890788Y-84292419D02*
X131557455Y-84673371D01*
X131557455Y-84673371D02*
X131700312Y-84673371D01*
X131700312Y-84673371D02*
X131795550Y-84720990D01*
X131795550Y-84720990D02*
X131843169Y-84768609D01*
X131843169Y-84768609D02*
X131890788Y-84863847D01*
X131890788Y-84863847D02*
X131890788Y-85101942D01*
X131890788Y-85101942D02*
X131843169Y-85197180D01*
X131843169Y-85197180D02*
X131795550Y-85244800D01*
X131795550Y-85244800D02*
X131700312Y-85292419D01*
X131700312Y-85292419D02*
X131414598Y-85292419D01*
X131414598Y-85292419D02*
X131319360Y-85244800D01*
X131319360Y-85244800D02*
X131271741Y-85197180D01*
X132176503Y-84292419D02*
X132509836Y-85292419D01*
X132509836Y-85292419D02*
X132843169Y-84292419D01*
X133081265Y-84292419D02*
X133700312Y-84292419D01*
X133700312Y-84292419D02*
X133366979Y-84673371D01*
X133366979Y-84673371D02*
X133509836Y-84673371D01*
X133509836Y-84673371D02*
X133605074Y-84720990D01*
X133605074Y-84720990D02*
X133652693Y-84768609D01*
X133652693Y-84768609D02*
X133700312Y-84863847D01*
X133700312Y-84863847D02*
X133700312Y-85101942D01*
X133700312Y-85101942D02*
X133652693Y-85197180D01*
X133652693Y-85197180D02*
X133605074Y-85244800D01*
X133605074Y-85244800D02*
X133509836Y-85292419D01*
X133509836Y-85292419D02*
X133224122Y-85292419D01*
X133224122Y-85292419D02*
X133128884Y-85244800D01*
X133128884Y-85244800D02*
X133081265Y-85197180D01*
X135414598Y-84340038D02*
X135319360Y-84292419D01*
X135319360Y-84292419D02*
X135176503Y-84292419D01*
X135176503Y-84292419D02*
X135033646Y-84340038D01*
X135033646Y-84340038D02*
X134938408Y-84435276D01*
X134938408Y-84435276D02*
X134890789Y-84530514D01*
X134890789Y-84530514D02*
X134843170Y-84720990D01*
X134843170Y-84720990D02*
X134843170Y-84863847D01*
X134843170Y-84863847D02*
X134890789Y-85054323D01*
X134890789Y-85054323D02*
X134938408Y-85149561D01*
X134938408Y-85149561D02*
X135033646Y-85244800D01*
X135033646Y-85244800D02*
X135176503Y-85292419D01*
X135176503Y-85292419D02*
X135271741Y-85292419D01*
X135271741Y-85292419D02*
X135414598Y-85244800D01*
X135414598Y-85244800D02*
X135462217Y-85197180D01*
X135462217Y-85197180D02*
X135462217Y-84863847D01*
X135462217Y-84863847D02*
X135271741Y-84863847D01*
X136652694Y-84292419D02*
X136652694Y-85101942D01*
X136652694Y-85101942D02*
X136700313Y-85197180D01*
X136700313Y-85197180D02*
X136747932Y-85244800D01*
X136747932Y-85244800D02*
X136843170Y-85292419D01*
X136843170Y-85292419D02*
X137033646Y-85292419D01*
X137033646Y-85292419D02*
X137128884Y-85244800D01*
X137128884Y-85244800D02*
X137176503Y-85197180D01*
X137176503Y-85197180D02*
X137224122Y-85101942D01*
X137224122Y-85101942D02*
X137224122Y-84292419D01*
X137700313Y-85292419D02*
X137700313Y-84292419D01*
X137700313Y-84292419D02*
X138081265Y-84292419D01*
X138081265Y-84292419D02*
X138176503Y-84340038D01*
X138176503Y-84340038D02*
X138224122Y-84387657D01*
X138224122Y-84387657D02*
X138271741Y-84482895D01*
X138271741Y-84482895D02*
X138271741Y-84625752D01*
X138271741Y-84625752D02*
X138224122Y-84720990D01*
X138224122Y-84720990D02*
X138176503Y-84768609D01*
X138176503Y-84768609D02*
X138081265Y-84816228D01*
X138081265Y-84816228D02*
X137700313Y-84816228D01*
X138700313Y-85292419D02*
X138700313Y-84292419D01*
X138700313Y-84292419D02*
X138938408Y-84292419D01*
X138938408Y-84292419D02*
X139081265Y-84340038D01*
X139081265Y-84340038D02*
X139176503Y-84435276D01*
X139176503Y-84435276D02*
X139224122Y-84530514D01*
X139224122Y-84530514D02*
X139271741Y-84720990D01*
X139271741Y-84720990D02*
X139271741Y-84863847D01*
X139271741Y-84863847D02*
X139224122Y-85054323D01*
X139224122Y-85054323D02*
X139176503Y-85149561D01*
X139176503Y-85149561D02*
X139081265Y-85244800D01*
X139081265Y-85244800D02*
X138938408Y-85292419D01*
X138938408Y-85292419D02*
X138700313Y-85292419D01*
X139700313Y-85292419D02*
X139700313Y-84292419D01*
X131177693Y-102982631D02*
X130606265Y-102982631D01*
X130891979Y-102982631D02*
X130891979Y-101432631D01*
X130891979Y-101432631D02*
X130796741Y-101654060D01*
X130796741Y-101654060D02*
X130701503Y-101801679D01*
X130701503Y-101801679D02*
X130606265Y-101875488D01*
X131558646Y-101580250D02*
X131606265Y-101506441D01*
X131606265Y-101506441D02*
X131701503Y-101432631D01*
X131701503Y-101432631D02*
X131939598Y-101432631D01*
X131939598Y-101432631D02*
X132034836Y-101506441D01*
X132034836Y-101506441D02*
X132082455Y-101580250D01*
X132082455Y-101580250D02*
X132130074Y-101727869D01*
X132130074Y-101727869D02*
X132130074Y-101875488D01*
X132130074Y-101875488D02*
X132082455Y-102096917D01*
X132082455Y-102096917D02*
X131511027Y-102982631D01*
X131511027Y-102982631D02*
X132130074Y-102982631D01*
X132415789Y-101432631D02*
X132749122Y-102982631D01*
X132749122Y-102982631D02*
X133082455Y-101432631D01*
X132511027Y-107161552D02*
X132653884Y-107235362D01*
X132653884Y-107235362D02*
X132701503Y-107309171D01*
X132701503Y-107309171D02*
X132749122Y-107456790D01*
X132749122Y-107456790D02*
X132749122Y-107678219D01*
X132749122Y-107678219D02*
X132701503Y-107825838D01*
X132701503Y-107825838D02*
X132653884Y-107899648D01*
X132653884Y-107899648D02*
X132558646Y-107973457D01*
X132558646Y-107973457D02*
X132177694Y-107973457D01*
X132177694Y-107973457D02*
X132177694Y-106423457D01*
X132177694Y-106423457D02*
X132511027Y-106423457D01*
X132511027Y-106423457D02*
X132606265Y-106497267D01*
X132606265Y-106497267D02*
X132653884Y-106571076D01*
X132653884Y-106571076D02*
X132701503Y-106718695D01*
X132701503Y-106718695D02*
X132701503Y-106866314D01*
X132701503Y-106866314D02*
X132653884Y-107013933D01*
X132653884Y-107013933D02*
X132606265Y-107087743D01*
X132606265Y-107087743D02*
X132511027Y-107161552D01*
X132511027Y-107161552D02*
X132177694Y-107161552D01*
X132130075Y-112521426D02*
X132606265Y-112521426D01*
X132034837Y-112964283D02*
X132368170Y-111414283D01*
X132368170Y-111414283D02*
X132701503Y-112964283D01*
X132701503Y-116478919D02*
X132606265Y-116405109D01*
X132606265Y-116405109D02*
X132463408Y-116405109D01*
X132463408Y-116405109D02*
X132320551Y-116478919D01*
X132320551Y-116478919D02*
X132225313Y-116626538D01*
X132225313Y-116626538D02*
X132177694Y-116774157D01*
X132177694Y-116774157D02*
X132130075Y-117069395D01*
X132130075Y-117069395D02*
X132130075Y-117290823D01*
X132130075Y-117290823D02*
X132177694Y-117586061D01*
X132177694Y-117586061D02*
X132225313Y-117733680D01*
X132225313Y-117733680D02*
X132320551Y-117881300D01*
X132320551Y-117881300D02*
X132463408Y-117955109D01*
X132463408Y-117955109D02*
X132558646Y-117955109D01*
X132558646Y-117955109D02*
X132701503Y-117881300D01*
X132701503Y-117881300D02*
X132749122Y-117807490D01*
X132749122Y-117807490D02*
X132749122Y-117290823D01*
X132749122Y-117290823D02*
X132558646Y-117290823D01*
X121962475Y-133946115D02*
X120962475Y-133946115D01*
X120962475Y-133946115D02*
X120962475Y-133708020D01*
X120962475Y-133708020D02*
X121010094Y-133565163D01*
X121010094Y-133565163D02*
X121105332Y-133469925D01*
X121105332Y-133469925D02*
X121200570Y-133422306D01*
X121200570Y-133422306D02*
X121391046Y-133374687D01*
X121391046Y-133374687D02*
X121533903Y-133374687D01*
X121533903Y-133374687D02*
X121724379Y-133422306D01*
X121724379Y-133422306D02*
X121819617Y-133469925D01*
X121819617Y-133469925D02*
X121914856Y-133565163D01*
X121914856Y-133565163D02*
X121962475Y-133708020D01*
X121962475Y-133708020D02*
X121962475Y-133946115D01*
X121914856Y-132565163D02*
X121962475Y-132660401D01*
X121962475Y-132660401D02*
X121962475Y-132850877D01*
X121962475Y-132850877D02*
X121914856Y-132946115D01*
X121914856Y-132946115D02*
X121819617Y-132993734D01*
X121819617Y-132993734D02*
X121438665Y-132993734D01*
X121438665Y-132993734D02*
X121343427Y-132946115D01*
X121343427Y-132946115D02*
X121295808Y-132850877D01*
X121295808Y-132850877D02*
X121295808Y-132660401D01*
X121295808Y-132660401D02*
X121343427Y-132565163D01*
X121343427Y-132565163D02*
X121438665Y-132517544D01*
X121438665Y-132517544D02*
X121533903Y-132517544D01*
X121533903Y-132517544D02*
X121629141Y-132993734D01*
X121914856Y-132136591D02*
X121962475Y-132041353D01*
X121962475Y-132041353D02*
X121962475Y-131850877D01*
X121962475Y-131850877D02*
X121914856Y-131755639D01*
X121914856Y-131755639D02*
X121819617Y-131708020D01*
X121819617Y-131708020D02*
X121771998Y-131708020D01*
X121771998Y-131708020D02*
X121676760Y-131755639D01*
X121676760Y-131755639D02*
X121629141Y-131850877D01*
X121629141Y-131850877D02*
X121629141Y-131993734D01*
X121629141Y-131993734D02*
X121581522Y-132088972D01*
X121581522Y-132088972D02*
X121486284Y-132136591D01*
X121486284Y-132136591D02*
X121438665Y-132136591D01*
X121438665Y-132136591D02*
X121343427Y-132088972D01*
X121343427Y-132088972D02*
X121295808Y-131993734D01*
X121295808Y-131993734D02*
X121295808Y-131850877D01*
X121295808Y-131850877D02*
X121343427Y-131755639D01*
X121962475Y-131279448D02*
X121295808Y-131279448D01*
X120962475Y-131279448D02*
X121010094Y-131327067D01*
X121010094Y-131327067D02*
X121057713Y-131279448D01*
X121057713Y-131279448D02*
X121010094Y-131231829D01*
X121010094Y-131231829D02*
X120962475Y-131279448D01*
X120962475Y-131279448D02*
X121057713Y-131279448D01*
X121295808Y-130374687D02*
X122105332Y-130374687D01*
X122105332Y-130374687D02*
X122200570Y-130422306D01*
X122200570Y-130422306D02*
X122248189Y-130469925D01*
X122248189Y-130469925D02*
X122295808Y-130565163D01*
X122295808Y-130565163D02*
X122295808Y-130708020D01*
X122295808Y-130708020D02*
X122248189Y-130803258D01*
X121914856Y-130374687D02*
X121962475Y-130469925D01*
X121962475Y-130469925D02*
X121962475Y-130660401D01*
X121962475Y-130660401D02*
X121914856Y-130755639D01*
X121914856Y-130755639D02*
X121867236Y-130803258D01*
X121867236Y-130803258D02*
X121771998Y-130850877D01*
X121771998Y-130850877D02*
X121486284Y-130850877D01*
X121486284Y-130850877D02*
X121391046Y-130803258D01*
X121391046Y-130803258D02*
X121343427Y-130755639D01*
X121343427Y-130755639D02*
X121295808Y-130660401D01*
X121295808Y-130660401D02*
X121295808Y-130469925D01*
X121295808Y-130469925D02*
X121343427Y-130374687D01*
X121295808Y-129898496D02*
X121962475Y-129898496D01*
X121391046Y-129898496D02*
X121343427Y-129850877D01*
X121343427Y-129850877D02*
X121295808Y-129755639D01*
X121295808Y-129755639D02*
X121295808Y-129612782D01*
X121295808Y-129612782D02*
X121343427Y-129517544D01*
X121343427Y-129517544D02*
X121438665Y-129469925D01*
X121438665Y-129469925D02*
X121962475Y-129469925D01*
X121914856Y-128612782D02*
X121962475Y-128708020D01*
X121962475Y-128708020D02*
X121962475Y-128898496D01*
X121962475Y-128898496D02*
X121914856Y-128993734D01*
X121914856Y-128993734D02*
X121819617Y-129041353D01*
X121819617Y-129041353D02*
X121438665Y-129041353D01*
X121438665Y-129041353D02*
X121343427Y-128993734D01*
X121343427Y-128993734D02*
X121295808Y-128898496D01*
X121295808Y-128898496D02*
X121295808Y-128708020D01*
X121295808Y-128708020D02*
X121343427Y-128612782D01*
X121343427Y-128612782D02*
X121438665Y-128565163D01*
X121438665Y-128565163D02*
X121533903Y-128565163D01*
X121533903Y-128565163D02*
X121629141Y-129041353D01*
X121962475Y-127708020D02*
X120962475Y-127708020D01*
X121914856Y-127708020D02*
X121962475Y-127803258D01*
X121962475Y-127803258D02*
X121962475Y-127993734D01*
X121962475Y-127993734D02*
X121914856Y-128088972D01*
X121914856Y-128088972D02*
X121867236Y-128136591D01*
X121867236Y-128136591D02*
X121771998Y-128184210D01*
X121771998Y-128184210D02*
X121486284Y-128184210D01*
X121486284Y-128184210D02*
X121391046Y-128136591D01*
X121391046Y-128136591D02*
X121343427Y-128088972D01*
X121343427Y-128088972D02*
X121295808Y-127993734D01*
X121295808Y-127993734D02*
X121295808Y-127803258D01*
X121295808Y-127803258D02*
X121343427Y-127708020D01*
X121962475Y-126469924D02*
X120962475Y-126469924D01*
X121343427Y-126469924D02*
X121295808Y-126374686D01*
X121295808Y-126374686D02*
X121295808Y-126184210D01*
X121295808Y-126184210D02*
X121343427Y-126088972D01*
X121343427Y-126088972D02*
X121391046Y-126041353D01*
X121391046Y-126041353D02*
X121486284Y-125993734D01*
X121486284Y-125993734D02*
X121771998Y-125993734D01*
X121771998Y-125993734D02*
X121867236Y-126041353D01*
X121867236Y-126041353D02*
X121914856Y-126088972D01*
X121914856Y-126088972D02*
X121962475Y-126184210D01*
X121962475Y-126184210D02*
X121962475Y-126374686D01*
X121962475Y-126374686D02*
X121914856Y-126469924D01*
X121295808Y-125660400D02*
X121962475Y-125422305D01*
X121295808Y-125184210D02*
X121962475Y-125422305D01*
X121962475Y-125422305D02*
X122200570Y-125517543D01*
X122200570Y-125517543D02*
X122248189Y-125565162D01*
X122248189Y-125565162D02*
X122295808Y-125660400D01*
X121867236Y-124803257D02*
X121914856Y-124755638D01*
X121914856Y-124755638D02*
X121962475Y-124803257D01*
X121962475Y-124803257D02*
X121914856Y-124850876D01*
X121914856Y-124850876D02*
X121867236Y-124803257D01*
X121867236Y-124803257D02*
X121962475Y-124803257D01*
X121343427Y-124803257D02*
X121391046Y-124755638D01*
X121391046Y-124755638D02*
X121438665Y-124803257D01*
X121438665Y-124803257D02*
X121391046Y-124850876D01*
X121391046Y-124850876D02*
X121343427Y-124803257D01*
X121343427Y-124803257D02*
X121438665Y-124803257D01*
X123286704Y-133993734D02*
X123286704Y-133517544D01*
X123572419Y-134088972D02*
X122572419Y-133755639D01*
X122572419Y-133755639D02*
X123572419Y-133422306D01*
X123572419Y-132660401D02*
X122572419Y-132660401D01*
X123524800Y-132660401D02*
X123572419Y-132755639D01*
X123572419Y-132755639D02*
X123572419Y-132946115D01*
X123572419Y-132946115D02*
X123524800Y-133041353D01*
X123524800Y-133041353D02*
X123477180Y-133088972D01*
X123477180Y-133088972D02*
X123381942Y-133136591D01*
X123381942Y-133136591D02*
X123096228Y-133136591D01*
X123096228Y-133136591D02*
X123000990Y-133088972D01*
X123000990Y-133088972D02*
X122953371Y-133041353D01*
X122953371Y-133041353D02*
X122905752Y-132946115D01*
X122905752Y-132946115D02*
X122905752Y-132755639D01*
X122905752Y-132755639D02*
X122953371Y-132660401D01*
X123572419Y-131755639D02*
X123048609Y-131755639D01*
X123048609Y-131755639D02*
X122953371Y-131803258D01*
X122953371Y-131803258D02*
X122905752Y-131898496D01*
X122905752Y-131898496D02*
X122905752Y-132088972D01*
X122905752Y-132088972D02*
X122953371Y-132184210D01*
X123524800Y-131755639D02*
X123572419Y-131850877D01*
X123572419Y-131850877D02*
X123572419Y-132088972D01*
X123572419Y-132088972D02*
X123524800Y-132184210D01*
X123524800Y-132184210D02*
X123429561Y-132231829D01*
X123429561Y-132231829D02*
X123334323Y-132231829D01*
X123334323Y-132231829D02*
X123239085Y-132184210D01*
X123239085Y-132184210D02*
X123191466Y-132088972D01*
X123191466Y-132088972D02*
X123191466Y-131850877D01*
X123191466Y-131850877D02*
X123143847Y-131755639D01*
X123572419Y-131279448D02*
X122905752Y-131279448D01*
X123000990Y-131279448D02*
X122953371Y-131231829D01*
X122953371Y-131231829D02*
X122905752Y-131136591D01*
X122905752Y-131136591D02*
X122905752Y-130993734D01*
X122905752Y-130993734D02*
X122953371Y-130898496D01*
X122953371Y-130898496D02*
X123048609Y-130850877D01*
X123048609Y-130850877D02*
X123572419Y-130850877D01*
X123048609Y-130850877D02*
X122953371Y-130803258D01*
X122953371Y-130803258D02*
X122905752Y-130708020D01*
X122905752Y-130708020D02*
X122905752Y-130565163D01*
X122905752Y-130565163D02*
X122953371Y-130469924D01*
X122953371Y-130469924D02*
X123048609Y-130422305D01*
X123048609Y-130422305D02*
X123572419Y-130422305D01*
X122620038Y-129422306D02*
X122572419Y-129517544D01*
X122572419Y-129517544D02*
X122572419Y-129660401D01*
X122572419Y-129660401D02*
X122620038Y-129803258D01*
X122620038Y-129803258D02*
X122715276Y-129898496D01*
X122715276Y-129898496D02*
X122810514Y-129946115D01*
X122810514Y-129946115D02*
X123000990Y-129993734D01*
X123000990Y-129993734D02*
X123143847Y-129993734D01*
X123143847Y-129993734D02*
X123334323Y-129946115D01*
X123334323Y-129946115D02*
X123429561Y-129898496D01*
X123429561Y-129898496D02*
X123524800Y-129803258D01*
X123524800Y-129803258D02*
X123572419Y-129660401D01*
X123572419Y-129660401D02*
X123572419Y-129565163D01*
X123572419Y-129565163D02*
X123524800Y-129422306D01*
X123524800Y-129422306D02*
X123477180Y-129374687D01*
X123477180Y-129374687D02*
X123143847Y-129374687D01*
X123143847Y-129374687D02*
X123143847Y-129565163D01*
X123572419Y-128946115D02*
X122572419Y-128946115D01*
X122572419Y-128946115D02*
X123286704Y-128612782D01*
X123286704Y-128612782D02*
X122572419Y-128279449D01*
X122572419Y-128279449D02*
X123572419Y-128279449D01*
X123572419Y-127374687D02*
X123048609Y-127374687D01*
X123048609Y-127374687D02*
X122953371Y-127422306D01*
X122953371Y-127422306D02*
X122905752Y-127517544D01*
X122905752Y-127517544D02*
X122905752Y-127708020D01*
X122905752Y-127708020D02*
X122953371Y-127803258D01*
X123524800Y-127374687D02*
X123572419Y-127469925D01*
X123572419Y-127469925D02*
X123572419Y-127708020D01*
X123572419Y-127708020D02*
X123524800Y-127803258D01*
X123524800Y-127803258D02*
X123429561Y-127850877D01*
X123429561Y-127850877D02*
X123334323Y-127850877D01*
X123334323Y-127850877D02*
X123239085Y-127803258D01*
X123239085Y-127803258D02*
X123191466Y-127708020D01*
X123191466Y-127708020D02*
X123191466Y-127469925D01*
X123191466Y-127469925D02*
X123143847Y-127374687D01*
X123572419Y-126898496D02*
X122572419Y-126898496D01*
X123191466Y-126803258D02*
X123572419Y-126517544D01*
X122905752Y-126517544D02*
X123286704Y-126898496D01*
X123524800Y-125708020D02*
X123572419Y-125803258D01*
X123572419Y-125803258D02*
X123572419Y-125993734D01*
X123572419Y-125993734D02*
X123524800Y-126088972D01*
X123524800Y-126088972D02*
X123429561Y-126136591D01*
X123429561Y-126136591D02*
X123048609Y-126136591D01*
X123048609Y-126136591D02*
X122953371Y-126088972D01*
X122953371Y-126088972D02*
X122905752Y-125993734D01*
X122905752Y-125993734D02*
X122905752Y-125803258D01*
X122905752Y-125803258D02*
X122953371Y-125708020D01*
X122953371Y-125708020D02*
X123048609Y-125660401D01*
X123048609Y-125660401D02*
X123143847Y-125660401D01*
X123143847Y-125660401D02*
X123239085Y-126136591D01*
X123524800Y-125279448D02*
X123572419Y-125184210D01*
X123572419Y-125184210D02*
X123572419Y-124993734D01*
X123572419Y-124993734D02*
X123524800Y-124898496D01*
X123524800Y-124898496D02*
X123429561Y-124850877D01*
X123429561Y-124850877D02*
X123381942Y-124850877D01*
X123381942Y-124850877D02*
X123286704Y-124898496D01*
X123286704Y-124898496D02*
X123239085Y-124993734D01*
X123239085Y-124993734D02*
X123239085Y-125136591D01*
X123239085Y-125136591D02*
X123191466Y-125231829D01*
X123191466Y-125231829D02*
X123096228Y-125279448D01*
X123096228Y-125279448D02*
X123048609Y-125279448D01*
X123048609Y-125279448D02*
X122953371Y-125231829D01*
X122953371Y-125231829D02*
X122905752Y-125136591D01*
X122905752Y-125136591D02*
X122905752Y-124993734D01*
X122905752Y-124993734D02*
X122953371Y-124898496D01*
X125106265Y-138474800D02*
X125249122Y-138522419D01*
X125249122Y-138522419D02*
X125487217Y-138522419D01*
X125487217Y-138522419D02*
X125582455Y-138474800D01*
X125582455Y-138474800D02*
X125630074Y-138427180D01*
X125630074Y-138427180D02*
X125677693Y-138331942D01*
X125677693Y-138331942D02*
X125677693Y-138236704D01*
X125677693Y-138236704D02*
X125630074Y-138141466D01*
X125630074Y-138141466D02*
X125582455Y-138093847D01*
X125582455Y-138093847D02*
X125487217Y-138046228D01*
X125487217Y-138046228D02*
X125296741Y-137998609D01*
X125296741Y-137998609D02*
X125201503Y-137950990D01*
X125201503Y-137950990D02*
X125153884Y-137903371D01*
X125153884Y-137903371D02*
X125106265Y-137808133D01*
X125106265Y-137808133D02*
X125106265Y-137712895D01*
X125106265Y-137712895D02*
X125153884Y-137617657D01*
X125153884Y-137617657D02*
X125201503Y-137570038D01*
X125201503Y-137570038D02*
X125296741Y-137522419D01*
X125296741Y-137522419D02*
X125534836Y-137522419D01*
X125534836Y-137522419D02*
X125677693Y-137570038D01*
X126106265Y-137855752D02*
X126106265Y-138855752D01*
X126106265Y-137903371D02*
X126201503Y-137855752D01*
X126201503Y-137855752D02*
X126391979Y-137855752D01*
X126391979Y-137855752D02*
X126487217Y-137903371D01*
X126487217Y-137903371D02*
X126534836Y-137950990D01*
X126534836Y-137950990D02*
X126582455Y-138046228D01*
X126582455Y-138046228D02*
X126582455Y-138331942D01*
X126582455Y-138331942D02*
X126534836Y-138427180D01*
X126534836Y-138427180D02*
X126487217Y-138474800D01*
X126487217Y-138474800D02*
X126391979Y-138522419D01*
X126391979Y-138522419D02*
X126201503Y-138522419D01*
X126201503Y-138522419D02*
X126106265Y-138474800D01*
X127153884Y-138522419D02*
X127058646Y-138474800D01*
X127058646Y-138474800D02*
X127011027Y-138379561D01*
X127011027Y-138379561D02*
X127011027Y-137522419D01*
X127534837Y-138522419D02*
X127534837Y-137855752D01*
X127534837Y-137522419D02*
X127487218Y-137570038D01*
X127487218Y-137570038D02*
X127534837Y-137617657D01*
X127534837Y-137617657D02*
X127582456Y-137570038D01*
X127582456Y-137570038D02*
X127534837Y-137522419D01*
X127534837Y-137522419D02*
X127534837Y-137617657D01*
X127868170Y-137855752D02*
X128249122Y-137855752D01*
X128011027Y-137522419D02*
X128011027Y-138379561D01*
X128011027Y-138379561D02*
X128058646Y-138474800D01*
X128058646Y-138474800D02*
X128153884Y-138522419D01*
X128153884Y-138522419D02*
X128249122Y-138522419D01*
X129677694Y-137998609D02*
X129344361Y-137998609D01*
X129344361Y-138522419D02*
X129344361Y-137522419D01*
X129344361Y-137522419D02*
X129820551Y-137522419D01*
X130344361Y-138522419D02*
X130249123Y-138474800D01*
X130249123Y-138474800D02*
X130201504Y-138379561D01*
X130201504Y-138379561D02*
X130201504Y-137522419D01*
X131153885Y-138522419D02*
X131153885Y-137998609D01*
X131153885Y-137998609D02*
X131106266Y-137903371D01*
X131106266Y-137903371D02*
X131011028Y-137855752D01*
X131011028Y-137855752D02*
X130820552Y-137855752D01*
X130820552Y-137855752D02*
X130725314Y-137903371D01*
X131153885Y-138474800D02*
X131058647Y-138522419D01*
X131058647Y-138522419D02*
X130820552Y-138522419D01*
X130820552Y-138522419D02*
X130725314Y-138474800D01*
X130725314Y-138474800D02*
X130677695Y-138379561D01*
X130677695Y-138379561D02*
X130677695Y-138284323D01*
X130677695Y-138284323D02*
X130725314Y-138189085D01*
X130725314Y-138189085D02*
X130820552Y-138141466D01*
X130820552Y-138141466D02*
X131058647Y-138141466D01*
X131058647Y-138141466D02*
X131153885Y-138093847D01*
X131630076Y-137855752D02*
X131630076Y-138855752D01*
X131630076Y-137903371D02*
X131725314Y-137855752D01*
X131725314Y-137855752D02*
X131915790Y-137855752D01*
X131915790Y-137855752D02*
X132011028Y-137903371D01*
X132011028Y-137903371D02*
X132058647Y-137950990D01*
X132058647Y-137950990D02*
X132106266Y-138046228D01*
X132106266Y-138046228D02*
X132106266Y-138331942D01*
X132106266Y-138331942D02*
X132058647Y-138427180D01*
X132058647Y-138427180D02*
X132011028Y-138474800D01*
X132011028Y-138474800D02*
X131915790Y-138522419D01*
X131915790Y-138522419D02*
X131725314Y-138522419D01*
X131725314Y-138522419D02*
X131630076Y-138474800D01*
X133296743Y-138522419D02*
X133296743Y-137522419D01*
X133296743Y-137522419D02*
X133534838Y-137522419D01*
X133534838Y-137522419D02*
X133677695Y-137570038D01*
X133677695Y-137570038D02*
X133772933Y-137665276D01*
X133772933Y-137665276D02*
X133820552Y-137760514D01*
X133820552Y-137760514D02*
X133868171Y-137950990D01*
X133868171Y-137950990D02*
X133868171Y-138093847D01*
X133868171Y-138093847D02*
X133820552Y-138284323D01*
X133820552Y-138284323D02*
X133772933Y-138379561D01*
X133772933Y-138379561D02*
X133677695Y-138474800D01*
X133677695Y-138474800D02*
X133534838Y-138522419D01*
X133534838Y-138522419D02*
X133296743Y-138522419D01*
X134296743Y-138522419D02*
X134296743Y-137855752D01*
X134296743Y-138046228D02*
X134344362Y-137950990D01*
X134344362Y-137950990D02*
X134391981Y-137903371D01*
X134391981Y-137903371D02*
X134487219Y-137855752D01*
X134487219Y-137855752D02*
X134582457Y-137855752D01*
X134915791Y-138522419D02*
X134915791Y-137855752D01*
X134915791Y-137522419D02*
X134868172Y-137570038D01*
X134868172Y-137570038D02*
X134915791Y-137617657D01*
X134915791Y-137617657D02*
X134963410Y-137570038D01*
X134963410Y-137570038D02*
X134915791Y-137522419D01*
X134915791Y-137522419D02*
X134915791Y-137617657D01*
X135296743Y-137855752D02*
X135534838Y-138522419D01*
X135534838Y-138522419D02*
X135772933Y-137855752D01*
X136534838Y-138474800D02*
X136439600Y-138522419D01*
X136439600Y-138522419D02*
X136249124Y-138522419D01*
X136249124Y-138522419D02*
X136153886Y-138474800D01*
X136153886Y-138474800D02*
X136106267Y-138379561D01*
X136106267Y-138379561D02*
X136106267Y-137998609D01*
X136106267Y-137998609D02*
X136153886Y-137903371D01*
X136153886Y-137903371D02*
X136249124Y-137855752D01*
X136249124Y-137855752D02*
X136439600Y-137855752D01*
X136439600Y-137855752D02*
X136534838Y-137903371D01*
X136534838Y-137903371D02*
X136582457Y-137998609D01*
X136582457Y-137998609D02*
X136582457Y-138093847D01*
X136582457Y-138093847D02*
X136106267Y-138189085D01*
X137011029Y-138522419D02*
X137011029Y-137855752D01*
X137011029Y-138046228D02*
X137058648Y-137950990D01*
X137058648Y-137950990D02*
X137106267Y-137903371D01*
X137106267Y-137903371D02*
X137201505Y-137855752D01*
X137201505Y-137855752D02*
X137296743Y-137855752D01*
X138725315Y-137998609D02*
X138868172Y-138046228D01*
X138868172Y-138046228D02*
X138915791Y-138093847D01*
X138915791Y-138093847D02*
X138963410Y-138189085D01*
X138963410Y-138189085D02*
X138963410Y-138331942D01*
X138963410Y-138331942D02*
X138915791Y-138427180D01*
X138915791Y-138427180D02*
X138868172Y-138474800D01*
X138868172Y-138474800D02*
X138772934Y-138522419D01*
X138772934Y-138522419D02*
X138391982Y-138522419D01*
X138391982Y-138522419D02*
X138391982Y-137522419D01*
X138391982Y-137522419D02*
X138725315Y-137522419D01*
X138725315Y-137522419D02*
X138820553Y-137570038D01*
X138820553Y-137570038D02*
X138868172Y-137617657D01*
X138868172Y-137617657D02*
X138915791Y-137712895D01*
X138915791Y-137712895D02*
X138915791Y-137808133D01*
X138915791Y-137808133D02*
X138868172Y-137903371D01*
X138868172Y-137903371D02*
X138820553Y-137950990D01*
X138820553Y-137950990D02*
X138725315Y-137998609D01*
X138725315Y-137998609D02*
X138391982Y-137998609D01*
X139534839Y-138522419D02*
X139439601Y-138474800D01*
X139439601Y-138474800D02*
X139391982Y-138427180D01*
X139391982Y-138427180D02*
X139344363Y-138331942D01*
X139344363Y-138331942D02*
X139344363Y-138046228D01*
X139344363Y-138046228D02*
X139391982Y-137950990D01*
X139391982Y-137950990D02*
X139439601Y-137903371D01*
X139439601Y-137903371D02*
X139534839Y-137855752D01*
X139534839Y-137855752D02*
X139677696Y-137855752D01*
X139677696Y-137855752D02*
X139772934Y-137903371D01*
X139772934Y-137903371D02*
X139820553Y-137950990D01*
X139820553Y-137950990D02*
X139868172Y-138046228D01*
X139868172Y-138046228D02*
X139868172Y-138331942D01*
X139868172Y-138331942D02*
X139820553Y-138427180D01*
X139820553Y-138427180D02*
X139772934Y-138474800D01*
X139772934Y-138474800D02*
X139677696Y-138522419D01*
X139677696Y-138522419D02*
X139534839Y-138522419D01*
X140725315Y-138522419D02*
X140725315Y-137998609D01*
X140725315Y-137998609D02*
X140677696Y-137903371D01*
X140677696Y-137903371D02*
X140582458Y-137855752D01*
X140582458Y-137855752D02*
X140391982Y-137855752D01*
X140391982Y-137855752D02*
X140296744Y-137903371D01*
X140725315Y-138474800D02*
X140630077Y-138522419D01*
X140630077Y-138522419D02*
X140391982Y-138522419D01*
X140391982Y-138522419D02*
X140296744Y-138474800D01*
X140296744Y-138474800D02*
X140249125Y-138379561D01*
X140249125Y-138379561D02*
X140249125Y-138284323D01*
X140249125Y-138284323D02*
X140296744Y-138189085D01*
X140296744Y-138189085D02*
X140391982Y-138141466D01*
X140391982Y-138141466D02*
X140630077Y-138141466D01*
X140630077Y-138141466D02*
X140725315Y-138093847D01*
X141201506Y-138522419D02*
X141201506Y-137855752D01*
X141201506Y-138046228D02*
X141249125Y-137950990D01*
X141249125Y-137950990D02*
X141296744Y-137903371D01*
X141296744Y-137903371D02*
X141391982Y-137855752D01*
X141391982Y-137855752D02*
X141487220Y-137855752D01*
X142249125Y-138522419D02*
X142249125Y-137522419D01*
X142249125Y-138474800D02*
X142153887Y-138522419D01*
X142153887Y-138522419D02*
X141963411Y-138522419D01*
X141963411Y-138522419D02*
X141868173Y-138474800D01*
X141868173Y-138474800D02*
X141820554Y-138427180D01*
X141820554Y-138427180D02*
X141772935Y-138331942D01*
X141772935Y-138331942D02*
X141772935Y-138046228D01*
X141772935Y-138046228D02*
X141820554Y-137950990D01*
X141820554Y-137950990D02*
X141868173Y-137903371D01*
X141868173Y-137903371D02*
X141963411Y-137855752D01*
X141963411Y-137855752D02*
X142153887Y-137855752D01*
X142153887Y-137855752D02*
X142249125Y-137903371D01*
X143344364Y-137522419D02*
X143677697Y-138522419D01*
X143677697Y-138522419D02*
X144011030Y-137522419D01*
X144296745Y-137617657D02*
X144344364Y-137570038D01*
X144344364Y-137570038D02*
X144439602Y-137522419D01*
X144439602Y-137522419D02*
X144677697Y-137522419D01*
X144677697Y-137522419D02*
X144772935Y-137570038D01*
X144772935Y-137570038D02*
X144820554Y-137617657D01*
X144820554Y-137617657D02*
X144868173Y-137712895D01*
X144868173Y-137712895D02*
X144868173Y-137808133D01*
X144868173Y-137808133D02*
X144820554Y-137950990D01*
X144820554Y-137950990D02*
X144249126Y-138522419D01*
X144249126Y-138522419D02*
X144868173Y-138522419D01*
X130903884Y-134347419D02*
X130903884Y-133347419D01*
X130903884Y-133347419D02*
X131237217Y-134061704D01*
X131237217Y-134061704D02*
X131570550Y-133347419D01*
X131570550Y-133347419D02*
X131570550Y-134347419D01*
X132189598Y-134347419D02*
X132094360Y-134299800D01*
X132094360Y-134299800D02*
X132046741Y-134252180D01*
X132046741Y-134252180D02*
X131999122Y-134156942D01*
X131999122Y-134156942D02*
X131999122Y-133871228D01*
X131999122Y-133871228D02*
X132046741Y-133775990D01*
X132046741Y-133775990D02*
X132094360Y-133728371D01*
X132094360Y-133728371D02*
X132189598Y-133680752D01*
X132189598Y-133680752D02*
X132332455Y-133680752D01*
X132332455Y-133680752D02*
X132427693Y-133728371D01*
X132427693Y-133728371D02*
X132475312Y-133775990D01*
X132475312Y-133775990D02*
X132522931Y-133871228D01*
X132522931Y-133871228D02*
X132522931Y-134156942D01*
X132522931Y-134156942D02*
X132475312Y-134252180D01*
X132475312Y-134252180D02*
X132427693Y-134299800D01*
X132427693Y-134299800D02*
X132332455Y-134347419D01*
X132332455Y-134347419D02*
X132189598Y-134347419D01*
X132808646Y-133680752D02*
X133189598Y-133680752D01*
X132951503Y-133347419D02*
X132951503Y-134204561D01*
X132951503Y-134204561D02*
X132999122Y-134299800D01*
X132999122Y-134299800D02*
X133094360Y-134347419D01*
X133094360Y-134347419D02*
X133189598Y-134347419D01*
X133665789Y-134347419D02*
X133570551Y-134299800D01*
X133570551Y-134299800D02*
X133522932Y-134252180D01*
X133522932Y-134252180D02*
X133475313Y-134156942D01*
X133475313Y-134156942D02*
X133475313Y-133871228D01*
X133475313Y-133871228D02*
X133522932Y-133775990D01*
X133522932Y-133775990D02*
X133570551Y-133728371D01*
X133570551Y-133728371D02*
X133665789Y-133680752D01*
X133665789Y-133680752D02*
X133808646Y-133680752D01*
X133808646Y-133680752D02*
X133903884Y-133728371D01*
X133903884Y-133728371D02*
X133951503Y-133775990D01*
X133951503Y-133775990D02*
X133999122Y-133871228D01*
X133999122Y-133871228D02*
X133999122Y-134156942D01*
X133999122Y-134156942D02*
X133951503Y-134252180D01*
X133951503Y-134252180D02*
X133903884Y-134299800D01*
X133903884Y-134299800D02*
X133808646Y-134347419D01*
X133808646Y-134347419D02*
X133665789Y-134347419D01*
X134427694Y-134347419D02*
X134427694Y-133680752D01*
X134427694Y-133871228D02*
X134475313Y-133775990D01*
X134475313Y-133775990D02*
X134522932Y-133728371D01*
X134522932Y-133728371D02*
X134618170Y-133680752D01*
X134618170Y-133680752D02*
X134713408Y-133680752D01*
X136094361Y-133347419D02*
X136094361Y-134061704D01*
X136094361Y-134061704D02*
X136046742Y-134204561D01*
X136046742Y-134204561D02*
X135951504Y-134299800D01*
X135951504Y-134299800D02*
X135808647Y-134347419D01*
X135808647Y-134347419D02*
X135713409Y-134347419D01*
X136522933Y-134299800D02*
X136665790Y-134347419D01*
X136665790Y-134347419D02*
X136903885Y-134347419D01*
X136903885Y-134347419D02*
X136999123Y-134299800D01*
X136999123Y-134299800D02*
X137046742Y-134252180D01*
X137046742Y-134252180D02*
X137094361Y-134156942D01*
X137094361Y-134156942D02*
X137094361Y-134061704D01*
X137094361Y-134061704D02*
X137046742Y-133966466D01*
X137046742Y-133966466D02*
X136999123Y-133918847D01*
X136999123Y-133918847D02*
X136903885Y-133871228D01*
X136903885Y-133871228D02*
X136713409Y-133823609D01*
X136713409Y-133823609D02*
X136618171Y-133775990D01*
X136618171Y-133775990D02*
X136570552Y-133728371D01*
X136570552Y-133728371D02*
X136522933Y-133633133D01*
X136522933Y-133633133D02*
X136522933Y-133537895D01*
X136522933Y-133537895D02*
X136570552Y-133442657D01*
X136570552Y-133442657D02*
X136618171Y-133395038D01*
X136618171Y-133395038D02*
X136713409Y-133347419D01*
X136713409Y-133347419D02*
X136951504Y-133347419D01*
X136951504Y-133347419D02*
X137094361Y-133395038D01*
X137380076Y-133347419D02*
X137951504Y-133347419D01*
X137665790Y-134347419D02*
X137665790Y-133347419D01*
X138284838Y-133966466D02*
X139046743Y-133966466D01*
X139427695Y-133347419D02*
X140094361Y-134347419D01*
X140094361Y-133347419D02*
X139427695Y-134347419D01*
X140475314Y-134347419D02*
X140475314Y-133347419D01*
X140475314Y-133823609D02*
X141046742Y-133823609D01*
X141046742Y-134347419D02*
X141046742Y-133347419D01*
X130478884Y-82547419D02*
X130478884Y-83356942D01*
X130478884Y-83356942D02*
X130526503Y-83452180D01*
X130526503Y-83452180D02*
X130574122Y-83499800D01*
X130574122Y-83499800D02*
X130669360Y-83547419D01*
X130669360Y-83547419D02*
X130859836Y-83547419D01*
X130859836Y-83547419D02*
X130955074Y-83499800D01*
X130955074Y-83499800D02*
X131002693Y-83452180D01*
X131002693Y-83452180D02*
X131050312Y-83356942D01*
X131050312Y-83356942D02*
X131050312Y-82547419D01*
X131526503Y-83547419D02*
X131526503Y-82547419D01*
X131526503Y-82547419D02*
X131907455Y-82547419D01*
X131907455Y-82547419D02*
X132002693Y-82595038D01*
X132002693Y-82595038D02*
X132050312Y-82642657D01*
X132050312Y-82642657D02*
X132097931Y-82737895D01*
X132097931Y-82737895D02*
X132097931Y-82880752D01*
X132097931Y-82880752D02*
X132050312Y-82975990D01*
X132050312Y-82975990D02*
X132002693Y-83023609D01*
X132002693Y-83023609D02*
X131907455Y-83071228D01*
X131907455Y-83071228D02*
X131526503Y-83071228D01*
X132526503Y-83547419D02*
X132526503Y-82547419D01*
X132526503Y-82547419D02*
X132764598Y-82547419D01*
X132764598Y-82547419D02*
X132907455Y-82595038D01*
X132907455Y-82595038D02*
X133002693Y-82690276D01*
X133002693Y-82690276D02*
X133050312Y-82785514D01*
X133050312Y-82785514D02*
X133097931Y-82975990D01*
X133097931Y-82975990D02*
X133097931Y-83118847D01*
X133097931Y-83118847D02*
X133050312Y-83309323D01*
X133050312Y-83309323D02*
X133002693Y-83404561D01*
X133002693Y-83404561D02*
X132907455Y-83499800D01*
X132907455Y-83499800D02*
X132764598Y-83547419D01*
X132764598Y-83547419D02*
X132526503Y-83547419D01*
X133526503Y-83547419D02*
X133526503Y-82547419D01*
X134764598Y-83547419D02*
X134764598Y-82547419D01*
X135240788Y-82880752D02*
X135240788Y-83547419D01*
X135240788Y-82975990D02*
X135288407Y-82928371D01*
X135288407Y-82928371D02*
X135383645Y-82880752D01*
X135383645Y-82880752D02*
X135526502Y-82880752D01*
X135526502Y-82880752D02*
X135621740Y-82928371D01*
X135621740Y-82928371D02*
X135669359Y-83023609D01*
X135669359Y-83023609D02*
X135669359Y-83547419D01*
X136002693Y-82880752D02*
X136383645Y-82880752D01*
X136145550Y-82547419D02*
X136145550Y-83404561D01*
X136145550Y-83404561D02*
X136193169Y-83499800D01*
X136193169Y-83499800D02*
X136288407Y-83547419D01*
X136288407Y-83547419D02*
X136383645Y-83547419D01*
X137097931Y-83499800D02*
X137002693Y-83547419D01*
X137002693Y-83547419D02*
X136812217Y-83547419D01*
X136812217Y-83547419D02*
X136716979Y-83499800D01*
X136716979Y-83499800D02*
X136669360Y-83404561D01*
X136669360Y-83404561D02*
X136669360Y-83023609D01*
X136669360Y-83023609D02*
X136716979Y-82928371D01*
X136716979Y-82928371D02*
X136812217Y-82880752D01*
X136812217Y-82880752D02*
X137002693Y-82880752D01*
X137002693Y-82880752D02*
X137097931Y-82928371D01*
X137097931Y-82928371D02*
X137145550Y-83023609D01*
X137145550Y-83023609D02*
X137145550Y-83118847D01*
X137145550Y-83118847D02*
X136669360Y-83214085D01*
X137574122Y-83547419D02*
X137574122Y-82880752D01*
X137574122Y-83071228D02*
X137621741Y-82975990D01*
X137621741Y-82975990D02*
X137669360Y-82928371D01*
X137669360Y-82928371D02*
X137764598Y-82880752D01*
X137764598Y-82880752D02*
X137859836Y-82880752D01*
X138050313Y-82880752D02*
X138431265Y-82880752D01*
X138193170Y-83547419D02*
X138193170Y-82690276D01*
X138193170Y-82690276D02*
X138240789Y-82595038D01*
X138240789Y-82595038D02*
X138336027Y-82547419D01*
X138336027Y-82547419D02*
X138431265Y-82547419D01*
X139193170Y-83547419D02*
X139193170Y-83023609D01*
X139193170Y-83023609D02*
X139145551Y-82928371D01*
X139145551Y-82928371D02*
X139050313Y-82880752D01*
X139050313Y-82880752D02*
X138859837Y-82880752D01*
X138859837Y-82880752D02*
X138764599Y-82928371D01*
X139193170Y-83499800D02*
X139097932Y-83547419D01*
X139097932Y-83547419D02*
X138859837Y-83547419D01*
X138859837Y-83547419D02*
X138764599Y-83499800D01*
X138764599Y-83499800D02*
X138716980Y-83404561D01*
X138716980Y-83404561D02*
X138716980Y-83309323D01*
X138716980Y-83309323D02*
X138764599Y-83214085D01*
X138764599Y-83214085D02*
X138859837Y-83166466D01*
X138859837Y-83166466D02*
X139097932Y-83166466D01*
X139097932Y-83166466D02*
X139193170Y-83118847D01*
X140097932Y-83499800D02*
X140002694Y-83547419D01*
X140002694Y-83547419D02*
X139812218Y-83547419D01*
X139812218Y-83547419D02*
X139716980Y-83499800D01*
X139716980Y-83499800D02*
X139669361Y-83452180D01*
X139669361Y-83452180D02*
X139621742Y-83356942D01*
X139621742Y-83356942D02*
X139621742Y-83071228D01*
X139621742Y-83071228D02*
X139669361Y-82975990D01*
X139669361Y-82975990D02*
X139716980Y-82928371D01*
X139716980Y-82928371D02*
X139812218Y-82880752D01*
X139812218Y-82880752D02*
X140002694Y-82880752D01*
X140002694Y-82880752D02*
X140097932Y-82928371D01*
X140907456Y-83499800D02*
X140812218Y-83547419D01*
X140812218Y-83547419D02*
X140621742Y-83547419D01*
X140621742Y-83547419D02*
X140526504Y-83499800D01*
X140526504Y-83499800D02*
X140478885Y-83404561D01*
X140478885Y-83404561D02*
X140478885Y-83023609D01*
X140478885Y-83023609D02*
X140526504Y-82928371D01*
X140526504Y-82928371D02*
X140621742Y-82880752D01*
X140621742Y-82880752D02*
X140812218Y-82880752D01*
X140812218Y-82880752D02*
X140907456Y-82928371D01*
X140907456Y-82928371D02*
X140955075Y-83023609D01*
X140955075Y-83023609D02*
X140955075Y-83118847D01*
X140955075Y-83118847D02*
X140478885Y-83214085D01*
X147353884Y-90035350D02*
X147353884Y-88435350D01*
X148020550Y-88435350D02*
X148211026Y-88435350D01*
X148211026Y-88435350D02*
X148306264Y-88511540D01*
X148306264Y-88511540D02*
X148401502Y-88663921D01*
X148401502Y-88663921D02*
X148449121Y-88968683D01*
X148449121Y-88968683D02*
X148449121Y-89502017D01*
X148449121Y-89502017D02*
X148401502Y-89806779D01*
X148401502Y-89806779D02*
X148306264Y-89959160D01*
X148306264Y-89959160D02*
X148211026Y-90035350D01*
X148211026Y-90035350D02*
X148020550Y-90035350D01*
X148020550Y-90035350D02*
X147925312Y-89959160D01*
X147925312Y-89959160D02*
X147830074Y-89806779D01*
X147830074Y-89806779D02*
X147782455Y-89502017D01*
X147782455Y-89502017D02*
X147782455Y-88968683D01*
X147782455Y-88968683D02*
X147830074Y-88663921D01*
X147830074Y-88663921D02*
X147925312Y-88511540D01*
X147925312Y-88511540D02*
X148020550Y-88435350D01*
X149401502Y-90035350D02*
X148830074Y-90035350D01*
X149115788Y-90035350D02*
X149115788Y-88435350D01*
X149115788Y-88435350D02*
X149020550Y-88663921D01*
X149020550Y-88663921D02*
X148925312Y-88816302D01*
X148925312Y-88816302D02*
X148830074Y-88892493D01*
X147353884Y-92611260D02*
X147353884Y-91011260D01*
X148020550Y-91011260D02*
X148211026Y-91011260D01*
X148211026Y-91011260D02*
X148306264Y-91087450D01*
X148306264Y-91087450D02*
X148401502Y-91239831D01*
X148401502Y-91239831D02*
X148449121Y-91544593D01*
X148449121Y-91544593D02*
X148449121Y-92077927D01*
X148449121Y-92077927D02*
X148401502Y-92382689D01*
X148401502Y-92382689D02*
X148306264Y-92535070D01*
X148306264Y-92535070D02*
X148211026Y-92611260D01*
X148211026Y-92611260D02*
X148020550Y-92611260D01*
X148020550Y-92611260D02*
X147925312Y-92535070D01*
X147925312Y-92535070D02*
X147830074Y-92382689D01*
X147830074Y-92382689D02*
X147782455Y-92077927D01*
X147782455Y-92077927D02*
X147782455Y-91544593D01*
X147782455Y-91544593D02*
X147830074Y-91239831D01*
X147830074Y-91239831D02*
X147925312Y-91087450D01*
X147925312Y-91087450D02*
X148020550Y-91011260D01*
X148830074Y-91163641D02*
X148877693Y-91087450D01*
X148877693Y-91087450D02*
X148972931Y-91011260D01*
X148972931Y-91011260D02*
X149211026Y-91011260D01*
X149211026Y-91011260D02*
X149306264Y-91087450D01*
X149306264Y-91087450D02*
X149353883Y-91163641D01*
X149353883Y-91163641D02*
X149401502Y-91316022D01*
X149401502Y-91316022D02*
X149401502Y-91468403D01*
X149401502Y-91468403D02*
X149353883Y-91696974D01*
X149353883Y-91696974D02*
X148782455Y-92611260D01*
X148782455Y-92611260D02*
X149401502Y-92611260D01*
X147353884Y-95187170D02*
X147353884Y-93587170D01*
X148020550Y-93587170D02*
X148211026Y-93587170D01*
X148211026Y-93587170D02*
X148306264Y-93663360D01*
X148306264Y-93663360D02*
X148401502Y-93815741D01*
X148401502Y-93815741D02*
X148449121Y-94120503D01*
X148449121Y-94120503D02*
X148449121Y-94653837D01*
X148449121Y-94653837D02*
X148401502Y-94958599D01*
X148401502Y-94958599D02*
X148306264Y-95110980D01*
X148306264Y-95110980D02*
X148211026Y-95187170D01*
X148211026Y-95187170D02*
X148020550Y-95187170D01*
X148020550Y-95187170D02*
X147925312Y-95110980D01*
X147925312Y-95110980D02*
X147830074Y-94958599D01*
X147830074Y-94958599D02*
X147782455Y-94653837D01*
X147782455Y-94653837D02*
X147782455Y-94120503D01*
X147782455Y-94120503D02*
X147830074Y-93815741D01*
X147830074Y-93815741D02*
X147925312Y-93663360D01*
X147925312Y-93663360D02*
X148020550Y-93587170D01*
X148782455Y-93587170D02*
X149401502Y-93587170D01*
X149401502Y-93587170D02*
X149068169Y-94196694D01*
X149068169Y-94196694D02*
X149211026Y-94196694D01*
X149211026Y-94196694D02*
X149306264Y-94272884D01*
X149306264Y-94272884D02*
X149353883Y-94349075D01*
X149353883Y-94349075D02*
X149401502Y-94501456D01*
X149401502Y-94501456D02*
X149401502Y-94882408D01*
X149401502Y-94882408D02*
X149353883Y-95034789D01*
X149353883Y-95034789D02*
X149306264Y-95110980D01*
X149306264Y-95110980D02*
X149211026Y-95187170D01*
X149211026Y-95187170D02*
X148925312Y-95187170D01*
X148925312Y-95187170D02*
X148830074Y-95110980D01*
X148830074Y-95110980D02*
X148782455Y-95034789D01*
X147353884Y-97763080D02*
X147353884Y-96163080D01*
X148020550Y-96163080D02*
X148211026Y-96163080D01*
X148211026Y-96163080D02*
X148306264Y-96239270D01*
X148306264Y-96239270D02*
X148401502Y-96391651D01*
X148401502Y-96391651D02*
X148449121Y-96696413D01*
X148449121Y-96696413D02*
X148449121Y-97229747D01*
X148449121Y-97229747D02*
X148401502Y-97534509D01*
X148401502Y-97534509D02*
X148306264Y-97686890D01*
X148306264Y-97686890D02*
X148211026Y-97763080D01*
X148211026Y-97763080D02*
X148020550Y-97763080D01*
X148020550Y-97763080D02*
X147925312Y-97686890D01*
X147925312Y-97686890D02*
X147830074Y-97534509D01*
X147830074Y-97534509D02*
X147782455Y-97229747D01*
X147782455Y-97229747D02*
X147782455Y-96696413D01*
X147782455Y-96696413D02*
X147830074Y-96391651D01*
X147830074Y-96391651D02*
X147925312Y-96239270D01*
X147925312Y-96239270D02*
X148020550Y-96163080D01*
X149306264Y-96696413D02*
X149306264Y-97763080D01*
X149068169Y-96086890D02*
X148830074Y-97229747D01*
X148830074Y-97229747D02*
X149449121Y-97229747D01*
X147353884Y-100338990D02*
X147353884Y-98738990D01*
X148020550Y-98738990D02*
X148211026Y-98738990D01*
X148211026Y-98738990D02*
X148306264Y-98815180D01*
X148306264Y-98815180D02*
X148401502Y-98967561D01*
X148401502Y-98967561D02*
X148449121Y-99272323D01*
X148449121Y-99272323D02*
X148449121Y-99805657D01*
X148449121Y-99805657D02*
X148401502Y-100110419D01*
X148401502Y-100110419D02*
X148306264Y-100262800D01*
X148306264Y-100262800D02*
X148211026Y-100338990D01*
X148211026Y-100338990D02*
X148020550Y-100338990D01*
X148020550Y-100338990D02*
X147925312Y-100262800D01*
X147925312Y-100262800D02*
X147830074Y-100110419D01*
X147830074Y-100110419D02*
X147782455Y-99805657D01*
X147782455Y-99805657D02*
X147782455Y-99272323D01*
X147782455Y-99272323D02*
X147830074Y-98967561D01*
X147830074Y-98967561D02*
X147925312Y-98815180D01*
X147925312Y-98815180D02*
X148020550Y-98738990D01*
X149353883Y-98738990D02*
X148877693Y-98738990D01*
X148877693Y-98738990D02*
X148830074Y-99500895D01*
X148830074Y-99500895D02*
X148877693Y-99424704D01*
X148877693Y-99424704D02*
X148972931Y-99348514D01*
X148972931Y-99348514D02*
X149211026Y-99348514D01*
X149211026Y-99348514D02*
X149306264Y-99424704D01*
X149306264Y-99424704D02*
X149353883Y-99500895D01*
X149353883Y-99500895D02*
X149401502Y-99653276D01*
X149401502Y-99653276D02*
X149401502Y-100034228D01*
X149401502Y-100034228D02*
X149353883Y-100186609D01*
X149353883Y-100186609D02*
X149306264Y-100262800D01*
X149306264Y-100262800D02*
X149211026Y-100338990D01*
X149211026Y-100338990D02*
X148972931Y-100338990D01*
X148972931Y-100338990D02*
X148877693Y-100262800D01*
X148877693Y-100262800D02*
X148830074Y-100186609D01*
X133250000Y-98000000D02*
X136750000Y-98000000D01*
X136750000Y-122000000D01*
X133250000Y-122000000D01*
X133250000Y-98000000D01*
D11*
%TO.C,U5*%
X125352500Y-102750000D02*
X125022500Y-102990000D01*
X125022500Y-102510000D01*
X125352500Y-102750000D01*
G36*
X125352500Y-102750000D02*
G01*
X125022500Y-102990000D01*
X125022500Y-102510000D01*
X125352500Y-102750000D01*
G37*
X128422500Y-102210000D02*
X128372500Y-102210000D01*
X128422500Y-100390000D02*
X128422500Y-102210000D01*
X128372500Y-100390000D02*
X128422500Y-100390000D01*
X126472500Y-100390000D02*
X127252500Y-100390000D01*
X125352500Y-102210000D02*
X125302500Y-102210000D01*
X125302500Y-102210000D02*
X125302500Y-100390000D01*
X125302500Y-100390000D02*
X125352500Y-100390000D01*
%TO.C,C5*%
X124885000Y-101196920D02*
X124885000Y-101478080D01*
X123865000Y-101196920D02*
X123865000Y-101478080D01*
%TO.C,C3*%
X125847500Y-112334420D02*
X125847500Y-112615580D01*
X124827500Y-112334420D02*
X124827500Y-112615580D01*
%TO.C,C8*%
X129822500Y-106034420D02*
X129822500Y-106315580D01*
X128802500Y-106034420D02*
X128802500Y-106315580D01*
%TO.C,C6*%
X129835000Y-101171920D02*
X129835000Y-101453080D01*
X128815000Y-101171920D02*
X128815000Y-101453080D01*
%TO.C,R1*%
X128027064Y-109015000D02*
X127572936Y-109015000D01*
X128027064Y-110485000D02*
X127572936Y-110485000D01*
%TO.C,C9*%
X124847500Y-106059420D02*
X124847500Y-106340580D01*
X123827500Y-106059420D02*
X123827500Y-106340580D01*
%TO.C,U6*%
X125327500Y-107600000D02*
X124997500Y-107840000D01*
X124997500Y-107360000D01*
X125327500Y-107600000D01*
G36*
X125327500Y-107600000D02*
G01*
X124997500Y-107840000D01*
X124997500Y-107360000D01*
X125327500Y-107600000D01*
G37*
X128397500Y-107060000D02*
X128347500Y-107060000D01*
X128397500Y-105240000D02*
X128397500Y-107060000D01*
X128347500Y-105240000D02*
X128397500Y-105240000D01*
X126447500Y-105240000D02*
X127227500Y-105240000D01*
X125327500Y-107060000D02*
X125277500Y-107060000D01*
X125277500Y-107060000D02*
X125277500Y-105240000D01*
X125277500Y-105240000D02*
X125327500Y-105240000D01*
%TO.C,C4*%
X127347500Y-112334420D02*
X127347500Y-112615580D01*
X126327500Y-112334420D02*
X126327500Y-112615580D01*
%TO.C,C7*%
X128847500Y-112334420D02*
X128847500Y-112615580D01*
X127827500Y-112334420D02*
X127827500Y-112615580D01*
%TO.C,J4*%
X128530000Y-124580000D02*
X127150000Y-124580000D01*
X128530000Y-123200000D02*
X128530000Y-124580000D01*
X128530000Y-121930000D02*
X128530000Y-116740000D01*
X128530000Y-121930000D02*
X125770000Y-121930000D01*
X128530000Y-116740000D02*
X125770000Y-116740000D01*
X125770000Y-121930000D02*
X125770000Y-116740000D01*
%TO.C,C2*%
X138259420Y-101840000D02*
X138540580Y-101840000D01*
X138259420Y-102860000D02*
X138540580Y-102860000D01*
D10*
%TO.C,D1*%
X141195000Y-86300000D02*
G75*
G02*
X141095000Y-86300000I-50000J0D01*
G01*
X141095000Y-86300000D02*
G75*
G02*
X141195000Y-86300000I50000J0D01*
G01*
D11*
%TO.C,J8*%
X133620000Y-110520000D02*
X135000000Y-110520000D01*
X133620000Y-111900000D02*
X133620000Y-110520000D01*
X133620000Y-113170000D02*
X133620000Y-113280000D01*
X133620000Y-113170000D02*
X136380000Y-113170000D01*
X133620000Y-113280000D02*
X136380000Y-113280000D01*
X136380000Y-113170000D02*
X136380000Y-113280000D01*
%TO.C,J6*%
X133620000Y-116270000D02*
X135000000Y-116270000D01*
X133620000Y-117650000D02*
X133620000Y-116270000D01*
X133620000Y-118920000D02*
X133620000Y-119030000D01*
X133620000Y-118920000D02*
X136380000Y-118920000D01*
X133620000Y-119030000D02*
X136380000Y-119030000D01*
X136380000Y-118920000D02*
X136380000Y-119030000D01*
%TO.C,U2*%
X137557500Y-106990000D02*
X137762500Y-106990000D01*
X137557500Y-112510000D02*
X137557500Y-106990000D01*
X137762500Y-112510000D02*
X137557500Y-112510000D01*
X147772500Y-106990000D02*
X147977500Y-106990000D01*
X147977500Y-106990000D02*
X147977500Y-112510000D01*
X147977500Y-112510000D02*
X147772500Y-112510000D01*
X148247500Y-106690000D02*
X147777500Y-106350000D01*
X148247500Y-106010000D01*
X148247500Y-106690000D01*
G36*
X148247500Y-106690000D02*
G01*
X147777500Y-106350000D01*
X148247500Y-106010000D01*
X148247500Y-106690000D01*
G37*
%TO.C,J2*%
X133620000Y-100970000D02*
X135000000Y-100970000D01*
X133620000Y-102350000D02*
X133620000Y-100970000D01*
X133620000Y-103620000D02*
X133620000Y-103730000D01*
X133620000Y-103620000D02*
X136380000Y-103620000D01*
X133620000Y-103730000D02*
X136380000Y-103730000D01*
X136380000Y-103620000D02*
X136380000Y-103730000D01*
%TO.C,U1*%
X136990000Y-93190000D02*
X137440000Y-93190000D01*
X136990000Y-93640000D02*
X136990000Y-93190000D01*
X136990000Y-96410000D02*
X136990000Y-95960000D01*
X137440000Y-96410000D02*
X136990000Y-96410000D01*
X139760000Y-93190000D02*
X140210000Y-93190000D01*
X140210000Y-93190000D02*
X140210000Y-93640000D01*
X140210000Y-95960000D02*
X140210000Y-96410000D01*
X140210000Y-96410000D02*
X139760000Y-96410000D01*
X139400000Y-92680000D02*
X139160000Y-92350000D01*
X139640000Y-92350000D01*
X139400000Y-92680000D01*
G36*
X139400000Y-92680000D02*
G01*
X139160000Y-92350000D01*
X139640000Y-92350000D01*
X139400000Y-92680000D01*
G37*
%TO.C,C1*%
X141015000Y-119604437D02*
X141015000Y-120240000D01*
X141015000Y-119604437D02*
X142079437Y-118540000D01*
X141015000Y-122995563D02*
X141015000Y-122360000D01*
X141015000Y-122995563D02*
X142079437Y-124060000D01*
X142079437Y-118540000D02*
X146535000Y-118540000D01*
X142079437Y-124060000D02*
X146535000Y-124060000D01*
X146535000Y-118540000D02*
X146535000Y-120240000D01*
X146535000Y-124060000D02*
X146535000Y-122360000D01*
%TO.C,J3*%
X127625000Y-126350000D02*
X127625000Y-127600000D01*
X127915000Y-126640000D02*
X127915000Y-132610000D01*
X127915000Y-132610000D02*
X143035000Y-132610000D01*
X127925000Y-126650000D02*
X127925000Y-127400000D01*
X127925000Y-127400000D02*
X129725000Y-127400000D01*
X127925000Y-128900000D02*
X128675000Y-128900000D01*
X128675000Y-128900000D02*
X128675000Y-131850000D01*
X128675000Y-131850000D02*
X135475000Y-131850000D01*
X128875000Y-126350000D02*
X127625000Y-126350000D01*
X129725000Y-126650000D02*
X127925000Y-126650000D01*
X129725000Y-127400000D02*
X129725000Y-126650000D01*
X131225000Y-126650000D02*
X131225000Y-127400000D01*
X131225000Y-127400000D02*
X139725000Y-127400000D01*
X139725000Y-126650000D02*
X131225000Y-126650000D01*
X139725000Y-127400000D02*
X139725000Y-126650000D01*
X141225000Y-126650000D02*
X141225000Y-127400000D01*
X141225000Y-127400000D02*
X143025000Y-127400000D01*
X142275000Y-128900000D02*
X142275000Y-131850000D01*
X142275000Y-131850000D02*
X135475000Y-131850000D01*
X143025000Y-126650000D02*
X141225000Y-126650000D01*
X143025000Y-127400000D02*
X143025000Y-126650000D01*
X143025000Y-128900000D02*
X142275000Y-128900000D01*
X143035000Y-126640000D02*
X127915000Y-126640000D01*
X143035000Y-132610000D02*
X143035000Y-126640000D01*
%TO.C,J7*%
X133620000Y-106720000D02*
X135000000Y-106720000D01*
X133620000Y-108100000D02*
X133620000Y-106720000D01*
X133620000Y-109370000D02*
X133620000Y-109480000D01*
X133620000Y-109370000D02*
X136380000Y-109370000D01*
X133620000Y-109480000D02*
X136380000Y-109480000D01*
X136380000Y-109370000D02*
X136380000Y-109480000D01*
%TO.C,J1*%
X131430000Y-88180000D02*
X131430000Y-86800000D01*
X132810000Y-88180000D02*
X131430000Y-88180000D01*
X134080000Y-85420000D02*
X139270000Y-85420000D01*
X134080000Y-88180000D02*
X134080000Y-85420000D01*
X134080000Y-88180000D02*
X139270000Y-88180000D01*
X139270000Y-88180000D02*
X139270000Y-85420000D01*
%TO.C,U3*%
X127115000Y-91265000D02*
X132635000Y-91265000D01*
X127115000Y-92010000D02*
X127115000Y-91265000D01*
X127115000Y-97685000D02*
X127115000Y-96940000D01*
X132635000Y-91265000D02*
X132635000Y-92010000D01*
X132635000Y-96940000D02*
X132635000Y-97685000D01*
X132635000Y-97685000D02*
X127115000Y-97685000D01*
X133715000Y-97415000D02*
X133035000Y-97415000D01*
X133375000Y-96945000D01*
X133715000Y-97415000D01*
G36*
X133715000Y-97415000D02*
G01*
X133035000Y-97415000D01*
X133375000Y-96945000D01*
X133715000Y-97415000D01*
G37*
%TO.C,J5*%
X144170000Y-87980000D02*
X145550000Y-87980000D01*
X144170000Y-89360000D02*
X144170000Y-87980000D01*
X144170000Y-90630000D02*
X144170000Y-100900000D01*
X144170000Y-90630000D02*
X146930000Y-90630000D01*
X144170000Y-100900000D02*
X146930000Y-100900000D01*
X146930000Y-90630000D02*
X146930000Y-100900000D01*
%TD*%
M02*
